Coval-Black.ufo
<glyph name="quotedbl" format="2">
  <advance width="550"/>
  <unicode hex="0022"/>
  <outline>
    <contour>
      <point x="282" y="695" type="line"/>
      <point x="436" y="695" type="line"/>
      <point x="403" y="386" type="line"/>
      <point x="315" y="386" type="line"/>
    </contour>
    <contour>
      <point x="104" y="695" type="line"/>
      <point x="258" y="695" type="line"/>
      <point x="225" y="386" type="line"/>
      <point x="137" y="386" type="line"/>
    </contour>
  </outline>
</glyph>
<glyph name="numbersign" format="2">
  <advance width="899"/>
  <unicode hex="0023"/>
  <outline>
    <contour>
      <point x="76" y="195" type="line"/>
      <point x="266" y="195" type="line"/>
      <point x="309" y="336" type="line"/>
      <point x="106" y="336" type="line"/>
      <point x="126" y="427" type="line"/>
      <point x="336" y="427" type="line"/>
      <point x="410" y="694" type="line"/>
      <point x="501" y="694" type="line"/>
      <point x="431" y="427" type="line"/>
      <point x="567" y="427" type="line"/>
      <point x="646" y="694" type="line"/>
      <point x="740" y="694" type="line"/>
      <point x="662" y="427" type="line"/>
      <point x="846" y="427" type="line"/>
      <point x="826" y="336" type="line"/>
      <point x="635" y="336" type="line"/>
      <point x="592" y="195" type="line"/>
      <point x="806" y="195" type="line"/>
      <point x="786" y="106" type="line"/>
      <point x="565" y="106" type="line"/>
      <point x="483" y="-161" type="line"/>
      <point x="386" y="-161" type="line"/>
      <point x="470" y="106" type="line"/>
      <point x="334" y="106" type="line"/>
      <point x="250" y="-161" type="line"/>
      <point x="152" y="-161" type="line"/>
      <point x="239" y="106" type="line"/>
      <point x="56" y="106" type="line"/>
    </contour>
    <contour>
      <point x="360" y="195" type="line"/>
      <point x="498" y="195" type="line"/>
      <point x="541" y="336" type="line"/>
      <point x="403" y="336" type="line"/>
    </contour>
  </outline>
</glyph>
<glyph name="dollar" format="2">
  <advance width="550"/>
  <unicode hex="0024"/>
  <outline>
    <contour>
      <point x="40" y="61" type="curve"/>
      <point x="62" y="190" type="line"/>
      <point x="115" y="151"/>
      <point x="147" y="123"/>
      <point x="225" y="110" type="curve"/>
      <point x="225" y="288" type="line"/>
      <point x="95" y="320"/>
      <point x="52" y="418"/>
      <point x="52" y="498" type="curve" smooth="yes"/>
      <point x="52" y="657"/>
      <point x="151" y="693"/>
      <point x="225" y="703" type="curve"/>
      <point x="225" y="748" type="line"/>
      <point x="315" y="748" type="line"/>
      <point x="315" y="704" type="line"/>
      <point x="373" y="699"/>
      <point x="418" y="678"/>
      <point x="470" y="645" type="curve"/>
      <point x="450" y="525" type="line"/>
      <point x="430" y="535" type="line"/>
      <point x="402" y="554"/>
      <point x="371" y="578"/>
      <point x="315" y="585" type="curve"/>
      <point x="315" y="434" type="line"/>
      <point x="441" y="400"/>
      <point x="488" y="297"/>
      <point x="488" y="210" type="curve" smooth="yes"/>
      <point x="488" y="95"/>
      <point x="444" y="6"/>
      <point x="315" y="-8" type="curve"/>
      <point x="315" y="-54" type="line"/>
      <point x="225" y="-54" type="line"/>
      <point x="225" y="-9" type="line"/>
      <point x="200" y="-7"/>
      <point x="129" y="3"/>
    </contour>
    <contour>
      <point x="186" y="520" type="curve" smooth="yes"/>
      <point x="186" y="486"/>
      <point x="209" y="467"/>
      <point x="225" y="458" type="curve"/>
      <point x="225" y="500"/>
      <point x="224" y="535"/>
      <point x="224" y="581" type="curve"/>
      <point x="209" y="574"/>
      <point x="186" y="557"/>
    </contour>
    <contour>
      <point x="315" y="115" type="line"/>
      <point x="331" y="122"/>
      <point x="355" y="140"/>
      <point x="355" y="188" type="curve" smooth="yes"/>
      <point x="355" y="229"/>
      <point x="334" y="251"/>
      <point x="315" y="262" type="curve"/>
    </contour>
  </outline>
</glyph>
<glyph name="percent" format="2">
  <advance width="1029"/>
  <unicode hex="0025"/>
  <outline>
    <contour>
      <point x="722" y="156" type="curve" smooth="yes"/>
      <point x="722" y="116.611"/>
      <point x="726" y="36"/>
      <point x="771" y="36" type="curve" smooth="yes"/>
      <point x="824" y="36"/>
      <point x="825" y="116"/>
      <point x="825" y="152" type="curve" smooth="yes"/>
      <point x="825" y="208"/>
      <point x="818" y="266"/>
      <point x="771" y="266" type="curve" smooth="yes"/>
      <point x="728" y="266"/>
      <point x="722" y="203.778"/>
    </contour>
    <contour>
      <point x="585" y="153" type="curve" smooth="yes"/>
      <point x="585" y="300"/>
      <point x="660" y="357"/>
      <point x="773" y="357" type="curve" smooth="yes"/>
      <point x="919" y="357"/>
      <point x="956" y="257.05"/>
      <point x="956" y="167" type="curve" smooth="yes"/>
      <point x="956" y="71"/>
      <point x="940" y="-54"/>
      <point x="771" y="-54" type="curve" smooth="yes"/>
      <point x="659" y="-54"/>
      <point x="585" y="3"/>
    </contour>
    <contour>
      <point x="192" y="543" type="curve" smooth="yes"/>
      <point x="192" y="491.006"/>
      <point x="193" y="428"/>
      <point x="241" y="428" type="curve" smooth="yes"/>
      <point x="294" y="428" name=".hr01"/>
      <point x="296" y="507"/>
      <point x="296" y="543" type="curve" smooth="yes"/>
      <point x="296" y="600"/>
      <point x="288" y="658"/>
      <point x="241" y="658" type="curve" smooth="yes"/>
      <point x="198" y="658"/>
      <point x="192" y="586.65"/>
    </contour>
    <contour>
      <point x="56" y="543" type="curve" smooth="yes"/>
      <point x="56" y="649"/>
      <point x="94" y="748"/>
      <point x="243" y="748" type="curve" smooth="yes"/>
      <point x="397" y="748"/>
      <point x="427" y="637"/>
      <point x="427" y="541" type="curve" smooth="yes"/>
      <point x="427" y="428"/>
      <point x="382" y="337"/>
      <point x="241" y="337" type="curve" smooth="yes"/>
      <point x="130" y="337"/>
      <point x="56" y="395"/>
    </contour>
    <contour>
      <point x="872" y="748" type="line"/>
      <point x="268" y="-53" type="line"/>
      <point x="141.604" y="-53" type="line"/>
      <point x="746.212" y="748" type="line"/>
    </contour>
  </outline>
</glyph>
<glyph name="ampersand" format="2">
  <advance width="801"/>
  <unicode hex="0026"/>
  <outline>
    <contour>
      <point x="40" y="154" type="curve" smooth="yes"/>
      <point x="40" y="253.147"/>
      <point x="119.975" y="301.091"/>
      <point x="182" y="336" type="curve"/>
      <point x="167" y="377"/>
      <point x="152" y="428" name=".hr01"/>
      <point x="152" y="485" type="curve" smooth="yes"/>
      <point x="152" y="607"/>
      <point x="224" y="716"/>
      <point x="334" y="716" type="curve" smooth="yes"/>
      <point x="420.461" y="716"/>
      <point x="496" y="682"/>
      <point x="496" y="547" type="curve" smooth="yes"/>
      <point x="496" y="467"/>
      <point x="414.09" y="396"/>
      <point x="334" y="333" type="curve"/>
      <point x="380.8" y="248.066"/>
      <point x="442.16" y="183.517"/>
      <point x="464" y="162" type="curve"/>
      <point x="494" y="188"/>
      <point x="571" y="265"/>
      <point x="618" y="434" type="curve"/>
      <point x="730" y="422" type="line"/>
      <point x="703" y="316"/>
      <point x="650" y="208"/>
      <point x="554" y="112" type="curve"/>
      <point x="576" y="102"/>
      <point x="600" y="95"/>
      <point x="631" y="95" type="curve" smooth="yes"/>
      <point x="677.446" y="95"/>
      <point x="716.75" y="107.79"/>
      <point x="752" y="121" type="curve"/>
      <point x="752" y="-3" type="line"/>
      <point x="722" y="-14"/>
      <point x="673.954" y="-22"/>
      <point x="638" y="-22" type="curve" smooth="yes"/>
      <point x="553.132" y="-22"/>
      <point x="478.921" y="6"/>
      <point x="445" y="30" type="curve"/>
      <point x="378" y="-9"/>
      <point x="294" y="-21"/>
      <point x="246" y="-21" type="curve" smooth="yes"/>
      <point x="125" y="-21"/>
      <point x="40" y="58" name=".hr02"/>
    </contour>
    <contour>
      <point x="192" y="179" type="curve" smooth="yes"/>
      <point x="192" y="144"/>
      <point x="206.929" y="95"/>
      <point x="268" y="95" type="curve" smooth="yes"/>
      <point x="294.688" y="95"/>
      <point x="320" y="100"/>
      <point x="341" y="111" type="curve"/>
      <point x="299" y="152"/>
      <point x="262" y="190"/>
      <point x="222" y="255" type="curve"/>
      <point x="204.163" y="237.163"/>
      <point x="192" y="211.729"/>
    </contour>
    <contour>
      <point x="273" y="540" type="curve" smooth="yes"/>
      <point x="273" y="493"/>
      <point x="284" y="447" name=".hr03"/>
      <point x="294" y="416" type="curve"/>
      <point x="329" y="441"/>
      <point x="381" y="481"/>
      <point x="381" y="546" type="curve" smooth="yes"/>
      <point x="381" y="574"/>
      <point x="371" y="626"/>
      <point x="332" y="626" type="curve" smooth="yes"/>
      <point x="309" y="626"/>
      <point x="273" y="604"/>
    </contour>
  </outline>
</glyph>
<glyph name="quotesingle" format="2">
  <advance width="306"/>
  <unicode hex="0027"/>
  <outline>
    <contour>
      <point x="72" y="695" type="line"/>
      <point x="227" y="695" type="line"/>
      <point x="194" y="386" type="line"/>
      <point x="105" y="386" type="line"/>
    </contour>
  </outline>
</glyph>
<glyph name="parenleft" format="2">
  <advance width="428"/>
  <unicode hex="0028"/>
  <outline>
    <contour>
      <point x="76" y="265" type="curve" smooth="yes"/>
      <point x="76" y="459"/>
      <point x="138" y="632"/>
      <point x="284" y="748" type="curve"/>
      <point x="378" y="748" type="line"/>
      <point x="322" y="677"/>
      <point x="229" y="561"/>
      <point x="229" y="266" type="curve" smooth="yes"/>
      <point x="229" y="-114"/>
      <point x="361" y="-194"/>
      <point x="373" y="-217" type="curve"/>
      <point x="284" y="-217" type="line"/>
      <point x="138" y="-99"/>
      <point x="76" y="77"/>
    </contour>
  </outline>
</glyph>
<glyph name="parenright" format="2">
  <advance width="428"/>
  <unicode hex="0029"/>
  <outline>
    <contour>
      <point x="53" y="-201" type="line"/>
      <point x="106" y="-135"/>
      <point x="191" y="-30"/>
      <point x="191" y="266" type="curve" smooth="yes"/>
      <point x="191" y="564"/>
      <point x="98" y="677"/>
      <point x="64" y="718" type="curve"/>
      <point x="64" y="717" type="line"/>
      <point x="57" y="727"/>
      <point x="50" y="738"/>
      <point x="43" y="748" type="curve"/>
      <point x="136" y="748" type="line"/>
      <point x="281" y="632"/>
      <point x="343" y="456"/>
      <point x="343" y="265" type="curve" smooth="yes"/>
      <point x="343" y="75"/>
      <point x="281" y="-100"/>
      <point x="136" y="-217" type="curve"/>
      <point x="61" y="-217" type="line"/>
    </contour>
  </outline>
</glyph>
<glyph name="asterisk" format="2">
  <advance width="550"/>
  <unicode hex="002A"/>
  <outline>
    <contour>
      <point x="59" y="424" type="curve" smooth="yes"/>
      <point x="59" y="467"/>
      <point x="73" y="465"/>
      <point x="201" y="508" type="curve"/>
      <point x="168" y="519" type="line" smooth="yes"/>
      <point x="75" y="549"/>
      <point x="59" y="555"/>
      <point x="59" y="595" type="curve" smooth="yes"/>
      <point x="59" y="628"/>
      <point x="86" y="661"/>
      <point x="120" y="661" type="curve" smooth="yes"/>
      <point x="149" y="661"/>
      <point x="157" y="643"/>
      <point x="234" y="571" type="curve" name=".hr01"/>
      <point x="226" y="610" type="line" smooth="yes"/>
      <point x="217" y="656"/>
      <point x="211" y="682"/>
      <point x="211" y="698" type="curve" smooth="yes"/>
      <point x="211" y="731"/>
      <point x="244" y="748"/>
      <point x="270" y="748" type="curve" smooth="yes"/>
      <point x="299" y="748"/>
      <point x="330" y="728"/>
      <point x="330" y="696" type="curve" smooth="yes"/>
      <point x="330" y="677"/>
      <point x="314" y="614"/>
      <point x="305" y="571" type="curve"/>
      <point x="331" y="597" type="line"/>
      <point x="396" y="658"/>
      <point x="400" y="661"/>
      <point x="420" y="661" type="curve" smooth="yes"/>
      <point x="443" y="661"/>
      <point x="463" y="646"/>
      <point x="473" y="626" type="curve" smooth="yes"/>
      <point x="478" y="616"/>
      <point x="481" y="606"/>
      <point x="481" y="595" type="curve" smooth="yes"/>
      <point x="481" y="552"/>
      <point x="460" y="548"/>
      <point x="340" y="508" type="curve" name=".hr02"/>
      <point x="378" y="498" type="line"/>
      <point x="466" y="469"/>
      <point x="481" y="464"/>
      <point x="481" y="424" type="curve" smooth="yes"/>
      <point x="481" y="392"/>
      <point x="455" y="359"/>
      <point x="420" y="359" type="curve" smooth="yes"/>
      <point x="390" y="359"/>
      <point x="385" y="376"/>
      <point x="306" y="447" type="curve" name=".hr03"/>
      <point x="326" y="350"/>
      <point x="330" y="330"/>
      <point x="330" y="323" type="curve" smooth="yes"/>
      <point x="330" y="290"/>
      <point x="298" y="270"/>
      <point x="270" y="270" type="curve" smooth="yes"/>
      <point x="241" y="270"/>
      <point x="210" y="291"/>
      <point x="210" y="323" type="curve" smooth="yes"/>
      <point x="210" y="333"/>
      <point x="213" y="347"/>
      <point x="220" y="375" type="curve"/>
      <point x="235" y="447" type="line" name=".hr04"/>
      <point x="148" y="360"/>
      <point x="140" y="359"/>
      <point x="121" y="359" type="curve" smooth="yes"/>
      <point x="85" y="359"/>
      <point x="59" y="392" name=".hr05"/>
    </contour>
  </outline>
</glyph>
<glyph name="plus" format="2">
  <advance width="658"/>
  <unicode hex="002B"/>
  <outline>
    <contour>
      <point x="53" y="311" type="line"/>
      <point x="286" y="311" type="line"/>
      <point x="286" y="543" type="line"/>
      <point x="375" y="543" type="line"/>
      <point x="375" y="311" type="line"/>
      <point x="606" y="311" type="line"/>
      <point x="606" y="221" type="line"/>
      <point x="375" y="221" type="line"/>
      <point x="375" y="-11" type="line"/>
      <point x="286" y="-11" type="line"/>
      <point x="286" y="221" type="line"/>
      <point x="53" y="221" type="line"/>
    </contour>
  </outline>
</glyph>
<glyph name="slash" format="2">
  <advance width="550"/>
  <unicode hex="002F"/>
  <outline>
    <contour>
      <point x="508.492" y="748" type="line"/>
      <point x="129" y="-216" type="line"/>
      <point x="31.7871" y="-216" type="line"/>
      <point x="412" y="748" type="line"/>
    </contour>
  </outline>
</glyph>
<glyph name="zero" format="2">
  <advance width="560"/>
  <unicode hex="0030"/>
  <outline>
    <contour>
      <point x="45" y="353" type="curve" smooth="yes"/>
      <point x="45" y="513"/>
      <point x="50" y="716"/>
      <point x="280" y="716" type="curve" smooth="yes"/>
      <point x="510" y="716"/>
      <point x="515" y="513"/>
      <point x="515" y="353" type="curve" smooth="yes"/>
      <point x="515" y="193"/>
      <point x="510" y="-21"/>
      <point x="280" y="-21" type="curve" smooth="yes"/>
      <point x="50" y="-21"/>
      <point x="45" y="193"/>
    </contour>
    <contour>
      <point x="198" y="283" type="line" smooth="yes"/>
      <point x="198" y="135.149"/>
      <point x="217.097" y="68"/>
      <point x="280" y="68" type="curve" smooth="yes"/>
      <point x="347" y="68"/>
      <point x="363" y="133.717"/>
      <point x="363" y="283" type="curve" smooth="yes"/>
      <point x="363" y="423" type="line" smooth="yes"/>
      <point x="363" y="529.704"/>
      <point x="353.956" y="626"/>
      <point x="280" y="626" type="curve" smooth="yes"/>
      <point x="203.781" y="626"/>
      <point x="198" y="515.938"/>
      <point x="198" y="423" type="curve" smooth="yes"/>
    </contour>
  </outline>
</glyph>
<glyph name="one" format="2">
  <advance width="550"/>
  <unicode hex="0031"/>
  <outline>
    <contour>
      <point x="68" y="559" type="curve"/>
      <point x="68" y="649" type="line"/>
      <point x="185" y="649"/>
      <point x="257" y="671"/>
      <point x="311" y="716" type="curve"/>
      <point x="359" y="716" type="line"/>
      <point x="359" y="90" type="line"/>
      <point x="473" y="90" type="line"/>
      <point x="473" y="0" type="line"/>
      <point x="83" y="0" type="line"/>
      <point x="83" y="90" type="line"/>
      <point x="205" y="90" type="line"/>
      <point x="205" y="570" type="line"/>
      <point x="164" y="562"/>
      <point x="117" y="559"/>
    </contour>
  </outline>
</glyph>
<glyph name="two" format="2">
  <advance width="550"/>
  <unicode hex="0032"/>
  <outline>
    <contour>
      <point x="39" y="571" type="curve"/>
      <point x="67" y="641"/>
      <point x="124" y="716"/>
      <point x="255" y="716" type="curve" smooth="yes"/>
      <point x="409" y="716"/>
      <point x="494" y="601"/>
      <point x="494" y="483" type="curve" smooth="yes"/>
      <point x="494" y="375"/>
      <point x="418" y="333"/>
      <point x="290" y="224" type="curve"/>
      <point x="290" y="225" type="line"/>
      <point x="252" y="191"/>
      <point x="213" y="156"/>
      <point x="175" y="122" type="curve"/>
      <point x="283" y="122"/>
      <point x="387" y="124"/>
      <point x="494" y="124" type="curve"/>
      <point x="494" y="0" type="line"/>
      <point x="47" y="0" type="line"/>
      <point x="47" y="111" type="line"/>
      <point x="102" y="166"/>
      <point x="155" y="229"/>
      <point x="215" y="279" type="curve"/>
      <point x="214" y="278" type="line"/>
      <point x="260" y="321"/>
      <point x="337" y="393"/>
      <point x="337" y="481" type="curve" smooth="yes"/>
      <point x="337" y="541"/>
      <point x="303" y="600"/>
      <point x="239" y="600" type="curve" smooth="yes"/>
      <point x="170" y="600"/>
      <point x="139" y="530"/>
      <point x="119" y="461" type="curve"/>
      <point x="99" y="487"/>
      <point x="39" y="547"/>
    </contour>
  </outline>
</glyph>
<glyph name="three" format="2">
  <advance width="550"/>
  <unicode hex="0033"/>
  <outline>
    <contour>
      <point x="37" y="62" type="curve"/>
      <point x="44" y="100"/>
      <point x="50" y="137"/>
      <point x="57" y="175" type="curve"/>
      <point x="115" y="126"/>
      <point x="177" y="90"/>
      <point x="254" y="90" type="curve" smooth="yes"/>
      <point x="344" y="90"/>
      <point x="339" y="168"/>
      <point x="339" y="220" type="curve" smooth="yes"/>
      <point x="339" y="327"/>
      <point x="282" y="329"/>
      <point x="252" y="329" type="curve" smooth="yes"/>
      <point x="172" y="329" type="line"/>
      <point x="172" y="419" type="line"/>
      <point x="208" y="421" type="line" smooth="yes"/>
      <point x="257" y="424"/>
      <point x="317" y="446" name=".hr01"/>
      <point x="317" y="541" type="curve" smooth="yes"/>
      <point x="317" y="577"/>
      <point x="310" y="610"/>
      <point x="257" y="610" type="curve" smooth="yes"/>
      <point x="171" y="610"/>
      <point x="124" y="535"/>
      <point x="114" y="520" type="curve"/>
      <point x="50" y="612" type="line"/>
      <point x="99" y="672"/>
      <point x="166" y="716"/>
      <point x="260" y="716" type="curve" smooth="yes"/>
      <point x="444" y="716"/>
      <point x="472" y="609"/>
      <point x="472" y="538" type="curve" smooth="yes"/>
      <point x="472" y="450"/>
      <point x="418" y="404"/>
      <point x="380" y="380" type="curve"/>
      <point x="426" y="365"/>
      <point x="502" y="327" name=".hr02"/>
      <point x="502" y="207" type="curve" smooth="yes"/>
      <point x="502" y="93"/>
      <point x="454" y="-21"/>
      <point x="259" y="-21" type="curve" smooth="yes"/>
      <point x="172" y="-21"/>
      <point x="101" y="9"/>
    </contour>
  </outline>
</glyph>
<glyph name="four" format="2">
  <advance width="550"/>
  <unicode hex="0034"/>
  <outline>
    <contour>
      <point x="23" y="148" type="line"/>
      <point x="23" y="253" type="line"/>
      <point x="263" y="695" type="line"/>
      <point x="430" y="695" type="line"/>
      <point x="430" y="259" type="line"/>
      <point x="517" y="259" type="line"/>
      <point x="517" y="148" type="line"/>
      <point x="430" y="148" type="line"/>
      <point x="430" y="0" type="line"/>
      <point x="290" y="0" type="line"/>
      <point x="290" y="148" type="line"/>
    </contour>
    <contour>
      <point x="151" y="259" type="line"/>
      <point x="294" y="259" type="line"/>
      <point x="294" y="534" type="line"/>
      <point x="262" y="463"/>
      <point x="200" y="350"/>
      <point x="166" y="287" type="curve" smooth="yes"/>
    </contour>
  </outline>
</glyph>
<glyph name="five" format="2">
  <advance width="550"/>
  <unicode hex="0035"/>
  <outline>
    <contour>
      <point x="27" y="89" type="curve"/>
      <point x="90" y="194" type="line"/>
      <point x="120.51" y="132.981"/>
      <point x="173.462" y="89"/>
      <point x="239" y="89" type="curve" smooth="yes"/>
      <point x="324" y="89"/>
      <point x="330" y="149"/>
      <point x="330" y="224" type="curve" smooth="yes"/>
      <point x="330" y="289"/>
      <point x="322.788" y="368"/>
      <point x="255" y="368" type="curve" smooth="yes"/>
      <point x="213.717" y="368"/>
      <point x="192" y="330"/>
      <point x="192" y="288" type="curve"/>
      <point x="74" y="288" type="line"/>
      <point x="74" y="695" type="line"/>
      <point x="458" y="695" type="line"/>
      <point x="458" y="577" type="line"/>
      <point x="220" y="577" type="line"/>
      <point x="220" y="447" type="line"/>
      <point x="236" y="453"/>
      <point x="255" y="459"/>
      <point x="283" y="459" type="curve" smooth="yes"/>
      <point x="409" y="459"/>
      <point x="494" y="393"/>
      <point x="494" y="223" type="curve" smooth="yes"/>
      <point x="494" y="27"/>
      <point x="365" y="-21"/>
      <point x="243" y="-21" type="curve" smooth="yes"/>
      <point x="116" y="-21"/>
      <point x="49" y="58"/>
    </contour>
  </outline>
</glyph>
<glyph name="six" format="2">
  <advance width="550"/>
  <unicode hex="0036"/>
  <outline>
    <contour>
      <point x="38" y="342" type="curve" smooth="yes"/>
      <point x="38" y="669"/>
      <point x="182" y="716"/>
      <point x="329" y="716" type="curve" smooth="yes"/>
      <point x="367" y="716"/>
      <point x="392" y="710"/>
      <point x="433" y="692" type="curve"/>
      <point x="433" y="581" type="line"/>
      <point x="396" y="600"/>
      <point x="368" y="610"/>
      <point x="332" y="610" type="curve" smooth="yes"/>
      <point x="217" y="610"/>
      <point x="202" y="542"/>
      <point x="195" y="431" type="curve"/>
      <point x="220" y="468"/>
      <point x="257" y="499"/>
      <point x="316" y="499" type="curve" smooth="yes"/>
      <point x="492" y="499"/>
      <point x="502" y="339"/>
      <point x="502" y="253" type="curve" smooth="yes"/>
      <point x="502" y="0"/>
      <point x="341" y="-21"/>
      <point x="273" y="-21" type="curve" smooth="yes"/>
      <point x="43" y="-21"/>
      <point x="38" y="223"/>
    </contour>
    <contour>
      <point x="195" y="256" type="curve" smooth="yes"/>
      <point x="195" y="175"/>
      <point x="200" y="89"/>
      <point x="276" y="89" type="curve" smooth="yes"/>
      <point x="339" y="89"/>
      <point x="347" y="186"/>
      <point x="347" y="254" type="curve" smooth="yes"/>
      <point x="347" y="330"/>
      <point x="335" y="408"/>
      <point x="278" y="408" type="curve" smooth="yes"/>
      <point x="212" y="408"/>
      <point x="195" y="327"/>
    </contour>
  </outline>
</glyph>
<glyph name="seven" format="2">
  <advance width="550"/>
  <unicode hex="0037"/>
  <outline>
    <contour>
      <point x="38" y="570" type="curve"/>
      <point x="38" y="695" type="line"/>
      <point x="502" y="695" type="line"/>
      <point x="502" y="583" type="line"/>
      <point x="361" y="416"/>
      <point x="290" y="198"/>
      <point x="290" y="-11" type="curve"/>
      <point x="132" y="-11" type="line"/>
      <point x="132" y="207"/>
      <point x="222" y="421"/>
      <point x="390" y="571" type="curve"/>
      <point x="274" y="571"/>
      <point x="153" y="570"/>
    </contour>
  </outline>
</glyph>
<glyph name="eight" format="2">
  <advance width="550"/>
  <unicode hex="0038"/>
  <outline>
    <contour>
      <point x="38" y="205" type="curve" smooth="yes"/>
      <point x="38" y="284"/>
      <point x="68" y="346"/>
      <point x="139" y="375" type="curve"/>
      <point x="103" y="392"/>
      <point x="52" y="428" name=".hr01"/>
      <point x="52" y="518" type="curve" smooth="yes"/>
      <point x="52" y="617"/>
      <point x="96" y="716"/>
      <point x="271" y="716" type="curve" smooth="yes"/>
      <point x="445" y="716"/>
      <point x="488" y="617"/>
      <point x="488" y="517" type="curve" smooth="yes"/>
      <point x="488" y="432"/>
      <point x="435" y="393"/>
      <point x="399" y="375" type="curve"/>
      <point x="471" y="346"/>
      <point x="502" y="285" name=".hr02"/>
      <point x="502" y="205" type="curve" smooth="yes"/>
      <point x="502" y="91"/>
      <point x="456" y="-21"/>
      <point x="270" y="-21" type="curve" smooth="yes"/>
      <point x="85" y="-21"/>
      <point x="38" y="92"/>
    </contour>
    <contour>
      <point x="193" y="194" type="curve"/>
      <point x="194" y="140"/>
      <point x="196" y="90"/>
      <point x="269" y="90" type="curve" smooth="yes"/>
      <point x="345" y="90"/>
      <point x="347" y="148"/>
      <point x="348" y="189" type="curve" smooth="yes"/>
      <point x="348" y="266"/>
      <point x="350" y="329"/>
      <point x="270" y="329" type="curve" smooth="yes"/>
      <point x="170" y="329"/>
      <point x="193" y="208"/>
    </contour>
    <contour>
      <point x="196" y="506" type="curve" smooth="yes"/>
      <point x="196" y="448"/>
      <point x="211" y="419"/>
      <point x="269" y="419" type="curve" smooth="yes"/>
      <point x="341" y="419"/>
      <point x="344" y="465"/>
      <point x="344" y="507" type="curve" smooth="yes"/>
      <point x="344" y="580"/>
      <point x="336" y="610"/>
      <point x="271" y="610" type="curve" smooth="yes"/>
      <point x="183" y="610"/>
      <point x="196" y="543"/>
    </contour>
  </outline>
</glyph>
<glyph name="nine" format="2">
  <advance width="550"/>
  <unicode hex="0039"/>
  <outline>
    <contour>
      <point x="38" y="440" type="curve" smooth="yes"/>
      <point x="38" y="558"/>
      <point x="64" y="716"/>
      <point x="272" y="716" type="curve" smooth="yes"/>
      <point x="496" y="716"/>
      <point x="502" y="479"/>
      <point x="502" y="359" type="curve" smooth="yes"/>
      <point x="502" y="196"/>
      <point x="464" y="-21"/>
      <point x="223" y="-21" type="curve" smooth="yes"/>
      <point x="161" y="-21"/>
      <point x="119" y="-2"/>
      <point x="68" y="32" type="curve"/>
      <point x="124" y="131" type="line"/>
      <point x="157" y="106"/>
      <point x="184" y="90"/>
      <point x="223" y="90" type="curve" smooth="yes"/>
      <point x="302" y="90"/>
      <point x="341" y="132"/>
      <point x="345" y="265" type="curve"/>
      <point x="323" y="230"/>
      <point x="286" y="196"/>
      <point x="224" y="196" type="curve" smooth="yes"/>
      <point x="68.9514" y="196"/>
      <point x="38" y="328.341"/>
    </contour>
    <contour>
      <point x="193" y="447" type="curve" smooth="yes"/>
      <point x="193" y="300"/>
      <point x="232" y="287"/>
      <point x="262" y="287" type="curve" smooth="yes"/>
      <point x="296" y="287"/>
      <point x="346" y="308"/>
      <point x="346" y="445" type="curve" smooth="yes"/>
      <point x="346" y="516"/>
      <point x="345" y="610"/>
      <point x="270" y="610" type="curve" smooth="yes"/>
      <point x="218" y="610"/>
      <point x="193" y="548"/>
    </contour>
  </outline>
</glyph>
<glyph name="colon" format="2">
  <advance width="306"/>
  <unicode hex="003A"/>
  <outline>
    <contour>
      <point x="76" y="0" type="line"/>
      <point x="76" y="147" type="line"/>
      <point x="223" y="147" type="line"/>
      <point x="223" y="0" type="line"/>
    </contour>
    <contour>
      <point x="76" y="331" type="line"/>
      <point x="76" y="478" type="line"/>
      <point x="223" y="478" type="line"/>
      <point x="223" y="331" type="line"/>
    </contour>
  </outline>
</glyph>
<glyph name="semicolon" format="2">
  <advance width="306"/>
  <unicode hex="003B"/>
  <outline>
    <contour>
      <point x="76" y="331" type="line"/>
      <point x="76" y="478" type="line"/>
      <point x="223" y="478" type="line"/>
      <point x="223" y="331" type="line"/>
    </contour>
    <contour>
      <point x="76" y="0" type="line"/>
      <point x="76" y="147" type="line"/>
      <point x="223" y="147" type="line"/>
      <point x="223" y="21" type="line"/>
      <point x="222" y="3"/>
      <point x="222" y="3"/>
      <point x="206" y="-22" type="curve"/>
      <point x="197" y="-37"/>
      <point x="179" y="-66"/>
      <point x="156" y="-108" type="curve"/>
      <point x="72" y="-108" type="line"/>
      <point x="111" y="0" type="line"/>
    </contour>
  </outline>
</glyph>
<glyph name="less" format="2">
  <advance width="612"/>
  <unicode hex="003C"/>
  <outline>
    <contour>
      <point x="80" y="318" type="line"/>
      <point x="532" y="636" type="line"/>
      <point x="532" y="485" type="line"/>
      <point x="234" y="269" type="line"/>
      <point x="234" y="261" type="line"/>
      <point x="532" y="55" type="line"/>
      <point x="532" y="-102" type="line"/>
      <point x="80" y="212" type="line"/>
    </contour>
  </outline>
</glyph>
<glyph name="equal" format="2">
  <advance width="672"/>
  <unicode hex="003D"/>
  <outline>
    <contour>
      <point x="54" y="195" type="line"/>
      <point x="606" y="195" type="line"/>
      <point x="606" y="106" type="line"/>
      <point x="54" y="106" type="line"/>
    </contour>
    <contour>
      <point x="54" y="427" type="line"/>
      <point x="606" y="427" type="line"/>
      <point x="606" y="336" type="line"/>
      <point x="54" y="336" type="line"/>
    </contour>
  </outline>
</glyph>
<glyph name="greater" format="2">
  <advance width="612"/>
  <unicode hex="003E"/>
  <outline>
    <contour>
      <point x="532" y="318" type="line"/>
      <point x="532" y="212" type="line"/>
      <point x="80" y="-102" type="line"/>
      <point x="80" y="55" type="line"/>
      <point x="378" y="261" type="line"/>
      <point x="378" y="269" type="line"/>
      <point x="80" y="485" type="line"/>
      <point x="80" y="636" type="line"/>
    </contour>
  </outline>
</glyph>
<glyph name="question" format="2">
  <advance width="519"/>
  <unicode hex="003F"/>
  <outline>
    <contour>
      <point x="236" y="706" type="curve" smooth="yes"/>
      <point x="403" y="706"/>
      <point x="457" y="646"/>
      <point x="457" y="551" type="curve" smooth="yes"/>
      <point x="457" y="416"/>
      <point x="301" y="397"/>
      <point x="301" y="253" type="curve" smooth="yes"/>
      <point x="301" y="211" type="line"/>
      <point x="180" y="211" type="line"/>
      <point x="180" y="252" type="line" smooth="yes"/>
      <point x="180" y="435"/>
      <point x="306" y="449.715"/>
      <point x="306" y="556" type="curve" smooth="yes"/>
      <point x="306" y="595"/>
      <point x="285" y="615"/>
      <point x="244" y="615" type="curve" smooth="yes"/>
      <point x="180" y="615"/>
      <point x="130" y="581"/>
      <point x="93" y="537" type="curve"/>
      <point x="47" y="651" type="line"/>
      <point x="97.9753" y="681.585"/>
      <point x="157.687" y="706"/>
    </contour>
    <contour>
      <point x="167" y="0" type="line"/>
      <point x="167" y="147" type="line"/>
      <point x="314" y="147" type="line"/>
      <point x="314" y="0" type="line"/>
    </contour>
  </outline>
</glyph>
<glyph name="at" format="2">
  <advance width="941"/>
  <unicode hex="0040"/>
  <outline>
    <contour>
      <point x="350" y="256" type="curve" smooth="yes"/>
      <point x="350" y="199.919"/>
      <point x="373.807" y="157"/>
      <point x="417" y="157" type="curve" smooth="yes"/>
      <point x="450.406" y="157"/>
      <point x="482.118" y="191.435"/>
      <point x="499" y="246" type="curve"/>
      <point x="518" y="372" type="line"/>
      <point x="501.455" y="393.66"/>
      <point x="480.764" y="400"/>
      <point x="460.803" y="400" type="curve" smooth="yes"/>
      <point x="402.395" y="400"/>
      <point x="350" y="344.183"/>
    </contour>
    <contour>
      <point x="453" y="683" type="curve" smooth="yes"/>
      <point x="767.985" y="683"/>
      <point x="854" y="467.786"/>
      <point x="854" y="350" type="curve" smooth="yes"/>
      <point x="854" y="128.048"/>
      <point x="758.454" y="55"/>
      <point x="634" y="55" type="curve" smooth="yes"/>
      <point x="566" y="55"/>
      <point x="532" y="91"/>
      <point x="522" y="119" type="curve"/>
      <point x="483.779" y="82.5095"/>
      <point x="442.02" y="64"/>
      <point x="402" y="64" type="curve" smooth="yes"/>
      <point x="295.805" y="64"/>
      <point x="243" y="141.785"/>
      <point x="243" y="241" type="curve" smooth="yes"/>
      <point x="243" y="391.313"/>
      <point x="334.737" y="500"/>
      <point x="453" y="500" type="curve" smooth="yes"/>
      <point x="486.125" y="500"/>
      <point x="515.554" y="488.235"/>
      <point x="536.197" y="470" type="curve"/>
      <point x="539.658" y="495" type="line"/>
      <point x="643" y="484" type="line"/>
      <point x="597" y="173.792" type="line" smooth="yes"/>
      <point x="593.032" y="144.792"/>
      <point x="606.548" y="128"/>
      <point x="638" y="128" type="curve" smooth="yes"/>
      <point x="685.767" y="128"/>
      <point x="744" y="162.613"/>
      <point x="744" y="326" type="curve" smooth="yes"/>
      <point x="744" y="422.301"/>
      <point x="667.826" y="573"/>
      <point x="452" y="573" type="curve" smooth="yes"/>
      <point x="317.533" y="573"/>
      <point x="184" y="483.918"/>
      <point x="184" y="287" type="curve" smooth="yes"/>
      <point x="184" y="141.148"/>
      <point x="263.226" y="0"/>
      <point x="453" y="0" type="curve" smooth="yes"/>
      <point x="559.909" y="0"/>
      <point x="589.977" y="8.8"/>
      <point x="649" y="32" type="curve"/>
      <point x="669" y="-41" type="line"/>
      <point x="621.078" y="-65.7912"/>
      <point x="543.086" y="-88"/>
      <point x="451" y="-88" type="curve" smooth="yes"/>
      <point x="224.137" y="-88"/>
      <point x="70" y="73.6197"/>
      <point x="70" y="287" type="curve" smooth="yes"/>
      <point x="70" y="530.607"/>
      <point x="245.587" y="683"/>
    </contour>
  </outline>
</glyph>
<glyph name="A" format="2">
  <advance width="719"/>
  <unicode hex="0041"/>
  <anchor x="351" y="790" name="top"/>
  <anchor x="579" y="10" name="bottom_0"/>
  <outline>
    <contour>
      <point x="20" y="0" type="line"/>
      <point x="172" y="0" type="line"/>
      <point x="354.859" y="538.362" type="line"/>
      <point x="347.141" y="538.362" type="line"/>
      <point x="530" y="0" type="line"/>
      <point x="699" y="0" type="line"/>
      <point x="457" y="695" type="line"/>
      <point x="262" y="695" type="line"/>
    </contour>
    <contour>
      <point x="458" y="250" type="line"/>
      <point x="244" y="250" type="line"/>
      <point x="208" y="146" type="line"/>
      <point x="493" y="146" type="line"/>
    </contour>
  </outline>
  <guideline angle="90" x="351" y="0"/>
</glyph>
<glyph name="B" format="2">
  <advance width="694"/>
  <unicode hex="0042"/>
  <anchor x="291" y="790" name="top"/>
  <anchor x="291" y="-60" name="bottom_60"/>
  <outline>
    <contour>
      <point x="45" y="0" type="line"/>
      <point x="45" y="695" type="line"/>
      <point x="381" y="695" type="line" smooth="yes"/>
      <point x="528.772" y="695"/>
      <point x="599" y="612"/>
      <point x="599" y="509" type="curve" smooth="yes"/>
      <point x="599" y="421"/>
      <point x="535" y="382"/>
      <point x="489" y="364" type="curve"/>
      <point x="548" y="349"/>
      <point x="628" y="308" name=".hr01"/>
      <point x="628" y="197" type="curve" smooth="yes"/>
      <point x="628" y="37"/>
      <point x="506.252" y="0"/>
      <point x="377" y="0" type="curve" smooth="yes"/>
    </contour>
    <contour>
      <point x="203" y="104" type="line"/>
      <point x="348" y="104" type="line" smooth="yes"/>
      <point x="417.368" y="104"/>
      <point x="474" y="124.382"/>
      <point x="474" y="201" type="curve" smooth="yes"/>
      <point x="474" y="298.863"/>
      <point x="407.257" y="316"/>
      <point x="355" y="316" type="curve" smooth="yes"/>
      <point x="203" y="316" type="line"/>
    </contour>
    <contour>
      <point x="203" y="406" type="line"/>
      <point x="355" y="406" type="line" smooth="yes"/>
      <point x="404.736" y="406"/>
      <point x="446" y="422.127" name=".hr02"/>
      <point x="446" y="506" type="curve" smooth="yes"/>
      <point x="446" y="540"/>
      <point x="429.667" y="591"/>
      <point x="341" y="591" type="curve" smooth="yes"/>
      <point x="203" y="591" type="line"/>
    </contour>
  </outline>
</glyph>
<glyph name="C" format="2">
  <advance width="664"/>
  <unicode hex="0043"/>
  <anchor x="327" y="790" name="top"/>
  <outline>
    <contour>
      <point x="30" y="346" type="curve" smooth="yes"/>
      <point x="30" y="642"/>
      <point x="204" y="716"/>
      <point x="400" y="716" type="curve" smooth="yes"/>
      <point x="478" y="716"/>
      <point x="534" y="704"/>
      <point x="608" y="678" type="curve"/>
      <point x="583" y="529" type="line"/>
      <point x="546" y="552"/>
      <point x="503" y="599"/>
      <point x="398" y="599" type="curve" smooth="yes"/>
      <point x="240" y="599"/>
      <point x="193" y="487"/>
      <point x="193" y="349" type="curve" smooth="yes"/>
      <point x="193" y="212"/>
      <point x="234" y="95"/>
      <point x="400" y="95" type="curve" smooth="yes"/>
      <point x="498" y="95"/>
      <point x="532" y="117"/>
      <point x="609" y="166" type="curve"/>
      <point x="619" y="36" type="line"/>
      <point x="530" y="-12"/>
      <point x="489" y="-22"/>
      <point x="398" y="-22" type="curve" smooth="yes"/>
      <point x="199" y="-22"/>
      <point x="30" y="59"/>
    </contour>
  </outline>
</glyph>
<glyph name="D" format="2">
  <advance width="717"/>
  <unicode hex="0044"/>
  <anchor x="300" y="790" name="top"/>
  <outline>
    <contour>
      <point x="45" y="0" type="line"/>
      <point x="45" y="695" type="line"/>
      <point x="336" y="695" type="line" smooth="yes"/>
      <point x="527" y="695"/>
      <point x="687" y="629"/>
      <point x="687" y="340" type="curve" smooth="yes"/>
      <point x="687" y="43"/>
      <point x="499" y="0"/>
      <point x="337" y="0" type="curve" smooth="yes"/>
    </contour>
    <contour>
      <point x="205" y="104" type="line"/>
      <point x="295" y="104" type="line" smooth="yes"/>
      <point x="463" y="104"/>
      <point x="527" y="171.974"/>
      <point x="527" y="321" type="curve" smooth="yes"/>
      <point x="527" y="578.993"/>
      <point x="411" y="591"/>
      <point x="304" y="591" type="curve" smooth="yes"/>
      <point x="205" y="591" type="line"/>
    </contour>
  </outline>
</glyph>
<glyph name="E" format="2">
  <advance width="603"/>
  <unicode hex="0045"/>
  <anchor x="291" y="790" name="top"/>
  <anchor x="297" y="10" name="bottom_0"/>
  <anchor x="302" y="-60" name="bottom_60"/>
  <outline>
    <contour>
      <point x="45" y="0" type="line"/>
      <point x="45" y="692" type="line"/>
      <point x="539" y="692" type="line"/>
      <point x="539" y="570" type="line"/>
      <point x="208" y="570" type="line"/>
      <point x="208" y="415" type="line"/>
      <point x="509" y="415" type="line"/>
      <point x="509" y="303" type="line"/>
      <point x="208" y="303" type="line"/>
      <point x="208" y="127" type="line"/>
      <point x="554" y="127" type="line"/>
      <point x="554" y="0" type="line"/>
    </contour>
  </outline>
</glyph>
<glyph name="F" format="2">
  <advance width="550"/>
  <unicode hex="0046"/>
  <anchor x="292" y="790" name="top"/>
  <outline>
    <contour>
      <point x="45" y="0" type="line"/>
      <point x="45" y="692" type="line"/>
      <point x="525" y="692" type="line"/>
      <point x="525" y="570" type="line"/>
      <point x="209" y="570" type="line"/>
      <point x="209" y="402" type="line"/>
      <point x="481" y="402" type="line"/>
      <point x="481" y="291" type="line"/>
      <point x="209" y="291" type="line"/>
      <point x="209" y="0" type="line"/>
    </contour>
  </outline>
</glyph>
<glyph name="G" format="2">
  <advance width="676"/>
  <unicode hex="0047"/>
  <anchor x="376" y="790" name="top"/>
  <outline>
    <contour>
      <point x="30" y="348" type="curve" smooth="yes"/>
      <point x="30" y="574"/>
      <point x="134" y="716"/>
      <point x="396" y="716" type="curve" smooth="yes"/>
      <point x="484" y="716"/>
      <point x="543" y="702"/>
      <point x="622" y="665" type="curve"/>
      <point x="597" y="515" type="line"/>
      <point x="577" y="530"/>
      <point x="522" y="600"/>
      <point x="397" y="600" type="curve" smooth="yes"/>
      <point x="230" y="600"/>
      <point x="193" y="474"/>
      <point x="193" y="348" type="curve" smooth="yes"/>
      <point x="193" y="214"/>
      <point x="234" y="95"/>
      <point x="399" y="95" type="curve" smooth="yes"/>
      <point x="433" y="95"/>
      <point x="461.455" y="98.4924"/>
      <point x="479" y="104" type="curve"/>
      <point x="479" y="226" type="line"/>
      <point x="385" y="226" type="line"/>
      <point x="385" y="338" type="line"/>
      <point x="631" y="338" type="line"/>
      <point x="631" y="28" type="line"/>
      <point x="564" y="0"/>
      <point x="487" y="-21"/>
      <point x="395" y="-21" type="curve" smooth="yes"/>
      <point x="103" y="-21"/>
      <point x="30" y="156"/>
    </contour>
  </outline>
</glyph>
<glyph name="H" format="2">
  <advance width="702"/>
  <unicode hex="0048"/>
  <anchor x="340" y="790" name="top"/>
  <anchor x="361" y="-60" name="bottom_60"/>
  <outline>
    <contour>
      <point x="45" y="0" type="line"/>
      <point x="45" y="695" type="line"/>
      <point x="208" y="695" type="line"/>
      <point x="208" y="417" type="line"/>
      <point x="494" y="417" type="line"/>
      <point x="494" y="695" type="line"/>
      <point x="657" y="695" type="line"/>
      <point x="657" y="0" type="line"/>
      <point x="494" y="0" type="line"/>
      <point x="494" y="305" type="line"/>
      <point x="208" y="305" type="line"/>
      <point x="208" y="0" type="line"/>
    </contour>
  </outline>
</glyph>
<glyph name="I" format="2">
  <advance width="253"/>
  <unicode hex="0049"/>
  <anchor x="124" y="790" name="top"/>
  <anchor x="109" y="10" name="bottom_0"/>
  <outline>
    <contour>
      <point x="45" y="0" type="line"/>
      <point x="45" y="695" type="line"/>
      <point x="208" y="695" type="line"/>
      <point x="208" y="0" type="line"/>
    </contour>
  </outline>
</glyph>
<glyph name="J" format="2">
  <advance width="473"/>
  <unicode hex="004A"/>
  <anchor x="340" y="790" name="top"/>
  <outline>
    <contour>
      <point x="36" y="22" type="curve"/>
      <point x="62" y="170" type="line"/>
      <point x="78" y="148"/>
      <point x="118" y="92"/>
      <point x="181" y="92" type="curve" smooth="yes"/>
      <point x="263" y="92"/>
      <point x="268" y="139"/>
      <point x="268" y="157" type="curve" smooth="yes"/>
      <point x="268" y="695" type="line"/>
      <point x="428" y="695" type="line"/>
      <point x="428" y="160" type="line" smooth="yes"/>
      <point x="428" y="15"/>
      <point x="323" y="-21"/>
      <point x="230" y="-21" type="curve" smooth="yes"/>
      <point x="174" y="-21"/>
      <point x="110" y="-11"/>
    </contour>
  </outline>
</glyph>
<glyph name="K" format="2">
  <advance width="725"/>
  <unicode hex="004B"/>
  <anchor x="312" y="790" name="top"/>
  <outline>
    <contour>
      <point x="45" y="0" type="line"/>
      <point x="45" y="695" type="line"/>
      <point x="191" y="695" type="line"/>
      <point x="191" y="398" type="line"/>
      <point x="490" y="695" type="line"/>
      <point x="671" y="695" type="line"/>
      <point x="391" y="415" type="line"/>
      <point x="485" y="281"/>
      <point x="589" y="134"/>
      <point x="682" y="0" type="curve"/>
      <point x="514" y="0" type="line"/>
      <point x="291" y="317" type="line"/>
      <point x="191" y="218" type="line"/>
      <point x="191" y="0" type="line"/>
    </contour>
  </outline>
</glyph>
<glyph name="L" format="2">
  <advance width="543"/>
  <unicode hex="004C"/>
  <anchor x="122" y="790" name="top"/>
  <outline>
    <contour>
      <point x="45" y="0" type="line"/>
      <point x="45" y="695" type="line"/>
      <point x="208" y="695" type="line"/>
      <point x="208" y="118" type="line"/>
      <point x="495" y="121" type="line"/>
      <point x="495" y="0" type="line"/>
    </contour>
  </outline>
</glyph>
<glyph name="M" format="2">
  <advance width="882"/>
  <unicode hex="004D"/>
  <anchor x="438" y="790" name="top"/>
  <outline>
    <contour>
      <point x="45" y="0" type="line"/>
      <point x="45" y="695" type="line"/>
      <point x="237" y="695" type="line"/>
      <point x="438" y="185" type="line"/>
      <point x="642" y="695" type="line"/>
      <point x="837" y="695" type="line"/>
      <point x="837" y="0" type="line"/>
      <point x="697" y="0" type="line"/>
      <point x="697" y="501" type="line"/>
      <point x="503" y="21" type="line"/>
      <point x="375" y="21" type="line"/>
      <point x="184" y="500" type="line"/>
      <point x="184" y="0" type="line"/>
    </contour>
  </outline>
  <guideline angle="90" x="438" y="0"/>
</glyph>
<glyph name="N" format="2">
  <advance width="704"/>
  <unicode hex="004E"/>
  <anchor x="381" y="790" name="top"/>
  <outline>
    <contour>
      <point x="45" y="0" type="line"/>
      <point x="45" y="695" type="line"/>
      <point x="247" y="695" type="line"/>
      <point x="519" y="167" type="line"/>
      <point x="519" y="695" type="line"/>
      <point x="659" y="695" type="line"/>
      <point x="659" y="0" type="line"/>
      <point x="456" y="0" type="line"/>
      <point x="184" y="527" type="line"/>
      <point x="184" y="0" type="line"/>
    </contour>
  </outline>
</glyph>
<glyph name="O" format="2">
  <advance width="733"/>
  <unicode hex="004F"/>
  <anchor x="367" y="790" name="top"/>
  <anchor x="366" y="-60" name="bottom_60"/>
  <anchor x="367" y="10" name="bottom_0"/>
  <outline>
    <contour>
      <point x="30" y="346" type="curve" smooth="yes"/>
      <point x="30" y="526"/>
      <point x="96" y="716"/>
      <point x="366" y="716" type="curve" smooth="yes"/>
      <point x="636" y="716"/>
      <point x="703" y="526"/>
      <point x="703" y="346" type="curve" smooth="yes"/>
      <point x="703" y="166"/>
      <point x="636" y="-21"/>
      <point x="366" y="-21" type="curve" smooth="yes"/>
      <point x="96" y="-21"/>
      <point x="30" y="166"/>
    </contour>
    <contour>
      <point x="193" y="346" type="curve" smooth="yes"/>
      <point x="193" y="206"/>
      <point x="216" y="77"/>
      <point x="366" y="77" type="curve" smooth="yes"/>
      <point x="516" y="77"/>
      <point x="539" y="206"/>
      <point x="539" y="346" type="curve" smooth="yes"/>
      <point x="539" y="486"/>
      <point x="516" y="621"/>
      <point x="366" y="621" type="curve" smooth="yes"/>
      <point x="216" y="621"/>
      <point x="193" y="486"/>
    </contour>
  </outline>
  <guideline angle="90" x="393" y="0"/>
</glyph>
<glyph name="P" format="2">
  <advance width="629"/>
  <unicode hex="0050"/>
  <anchor x="313" y="790" name="top"/>
  <outline>
    <contour>
      <point x="45" y="0" type="line"/>
      <point x="45" y="695" type="line"/>
      <point x="327" y="695" type="line" smooth="yes"/>
      <point x="475.219" y="695"/>
      <point x="599" y="631.249"/>
      <point x="599" y="474" type="curve" smooth="yes"/>
      <point x="599" y="269"/>
      <point x="413" y="260"/>
      <point x="342" y="260" type="curve" smooth="yes"/>
      <point x="208" y="260" type="line"/>
      <point x="208" y="0" type="line"/>
    </contour>
    <contour>
      <point x="205" y="364" type="line"/>
      <point x="305" y="364" type="line" smooth="yes"/>
      <point x="396.879" y="364"/>
      <point x="443" y="380.818"/>
      <point x="443" y="473" type="curve" smooth="yes"/>
      <point x="443" y="568"/>
      <point x="392" y="591"/>
      <point x="305" y="591" type="curve" smooth="yes"/>
      <point x="205" y="591" type="line"/>
    </contour>
  </outline>
</glyph>
<glyph name="Q" format="2">
  <advance width="733"/>
  <unicode hex="0051"/>
  <anchor x="366" y="790" name="top"/>
  <outline>
    <component base="O"/>
    <contour>
      <point x="421.84" y="-4.41387" type="line"/>
      <point x="565.932" y="44.949" type="line"/>
      <point x="682" y="-108" type="line"/>
      <point x="489" y="-108" type="line"/>
    </contour>
    <contour>
      <point x="521.11" y="102.733" type="line"/>
      <point x="390.254" y="42.1184" type="line"/>
      <point x="279" y="209" type="line"/>
      <point x="441" y="209" type="line"/>
    </contour>
  </outline>
</glyph>
<glyph name="R" format="2">
  <advance width="666"/>
  <unicode hex="0052"/>
  <anchor x="290" y="790" name="top"/>
  <outline>
    <contour>
      <point x="45" y="0" type="line"/>
      <point x="45" y="695" type="line"/>
      <point x="299" y="695" type="line" smooth="yes"/>
      <point x="539" y="695"/>
      <point x="599" y="584"/>
      <point x="599" y="493" type="curve" smooth="yes"/>
      <point x="599" y="396"/>
      <point x="544" y="336"/>
      <point x="451" y="315" type="curve"/>
      <point x="511" y="213"/>
      <point x="578" y="101"/>
      <point x="636" y="0" type="curve"/>
      <point x="469" y="0" type="line"/>
      <point x="297" y="302" type="line"/>
      <point x="205" y="302" type="line"/>
      <point x="205" y="0" type="line"/>
    </contour>
    <contour>
      <point x="205" y="393" type="line"/>
      <point x="311" y="393" type="line" smooth="yes"/>
      <point x="393" y="393"/>
      <point x="444" y="407"/>
      <point x="444" y="492" type="curve" smooth="yes"/>
      <point x="444" y="576"/>
      <point x="395" y="591"/>
      <point x="312" y="591" type="curve" smooth="yes"/>
      <point x="205" y="591" type="line"/>
    </contour>
  </outline>
</glyph>
<glyph name="S" format="2">
  <advance width="547"/>
  <unicode hex="0053"/>
  <anchor x="268" y="790" name="top"/>
  <outline>
    <contour>
      <point x="20" y="51" type="curve"/>
      <point x="46" y="202" type="line"/>
      <point x="119" y="144"/>
      <point x="185" y="104"/>
      <point x="280" y="104" type="curve" smooth="yes"/>
      <point x="371" y="104"/>
      <point x="386" y="155"/>
      <point x="386" y="189" type="curve" smooth="yes"/>
      <point x="386" y="237.833"/>
      <point x="356.366" y="265.057"/>
      <point x="280" y="286.382" type="curve" smooth="yes"/>
      <point x="199" y="309" type="line" smooth="yes"/>
      <point x="83.9537" y="341.126"/>
      <point x="33" y="407.693"/>
      <point x="33" y="504" type="curve" smooth="yes"/>
      <point x="33" y="612"/>
      <point x="84.9974" y="716"/>
      <point x="276" y="716" type="curve" smooth="yes"/>
      <point x="359" y="716"/>
      <point x="413" y="705"/>
      <point x="495" y="665" type="curve"/>
      <point x="470" y="515" type="line"/>
      <point x="448" y="534"/>
      <point x="367" y="596"/>
      <point x="279" y="596" type="curve" smooth="yes"/>
      <point x="190" y="596"/>
      <point x="175" y="547.351"/>
      <point x="175" y="516" type="curve" smooth="yes"/>
      <point x="175" y="450.957"/>
      <point x="208.678" y="439.509"/>
      <point x="300.966" y="414.301" type="curve" smooth="yes"/>
      <point x="346" y="402" type="line" smooth="yes"/>
      <point x="476.587" y="366.331"/>
      <point x="527" y="310.905"/>
      <point x="527" y="203" type="curve" smooth="yes"/>
      <point x="527" y="90"/>
      <point x="478" y="-21"/>
      <point x="280" y="-21" type="curve" smooth="yes"/>
      <point x="188" y="-21"/>
      <point x="102" y="5"/>
    </contour>
  </outline>
</glyph>
<glyph name="T" format="2">
  <advance width="675"/>
  <unicode hex="0054"/>
  <anchor x="337" y="790" name="top"/>
  <outline>
    <contour>
      <point x="10" y="568" type="line"/>
      <point x="10" y="689" type="line"/>
      <point x="665" y="689" type="line"/>
      <point x="665" y="568" type="line"/>
      <point x="419" y="568" type="line"/>
      <point x="419" y="0" type="line"/>
      <point x="256" y="0" type="line"/>
      <point x="256" y="568" type="line"/>
    </contour>
  </outline>
  <guideline angle="90" x="337" y="0"/>
</glyph>
<glyph name="U" format="2">
  <advance width="673"/>
  <unicode hex="0055"/>
  <anchor x="342" y="790" name="top"/>
  <anchor x="366" y="10" name="bottom_0"/>
  <outline>
    <contour>
      <point x="45" y="249" type="curve" smooth="yes"/>
      <point x="45" y="695" type="line"/>
      <point x="208" y="695" type="line"/>
      <point x="208" y="233" type="line" smooth="yes"/>
      <point x="208" y="148"/>
      <point x="219" y="82"/>
      <point x="340" y="82" type="curve" smooth="yes"/>
      <point x="474" y="82"/>
      <point x="476" y="166"/>
      <point x="476" y="235" type="curve" smooth="yes"/>
      <point x="476" y="695" type="line"/>
      <point x="628" y="695" type="line"/>
      <point x="628" y="245" type="line" smooth="yes"/>
      <point x="628" y="101"/>
      <point x="573" y="-21"/>
      <point x="341" y="-21" type="curve" smooth="yes"/>
      <point x="87" y="-21"/>
      <point x="45" y="111"/>
    </contour>
  </outline>
</glyph>
<glyph name="V" format="2">
  <advance width="750"/>
  <unicode hex="0056"/>
  <anchor x="383" y="790" name="top"/>
  <anchor x="383" y="-60" name="bottom_60"/>
  <outline>
    <contour>
      <point x="20" y="695" type="line"/>
      <point x="190" y="695" type="line"/>
      <point x="383" y="166" type="line"/>
      <point x="574" y="695" type="line"/>
      <point x="730" y="695" type="line"/>
      <point x="473" y="0" type="line"/>
      <point x="277" y="0" type="line"/>
    </contour>
  </outline>
</glyph>
<glyph name="W" format="2">
  <advance width="1045"/>
  <unicode hex="0057"/>
  <anchor x="520" y="790" name="top"/>
  <anchor x="520" y="-60" name="bottom_60"/>
  <outline>
    <contour>
      <point x="20" y="695" type="line"/>
      <point x="169" y="695" type="line"/>
      <point x="304" y="181" type="line"/>
      <point x="439" y="695" type="line"/>
      <point x="614" y="695" type="line"/>
      <point x="752" y="176" type="line"/>
      <point x="889" y="695" type="line"/>
      <point x="1025" y="695" type="line"/>
      <point x="838" y="0" type="line"/>
      <point x="658" y="0" type="line"/>
      <point x="520" y="518" type="line"/>
      <point x="382" y="0" type="line"/>
      <point x="208" y="0" type="line"/>
    </contour>
  </outline>
  <guideline angle="90" x="520" y="0"/>
</glyph>
<glyph name="X" format="2">
  <advance width="721"/>
  <unicode hex="0058"/>
  <anchor x="353" y="790" name="top"/>
  <outline>
    <contour>
      <point x="0" y="0" type="line"/>
      <point x="268" y="368" type="line"/>
      <point x="16" y="695" type="line"/>
      <point x="211" y="695" type="line"/>
      <point x="353" y="500" type="line"/>
      <point x="490" y="695" type="line"/>
      <point x="677" y="695" type="line"/>
      <point x="440" y="367" type="line"/>
      <point x="721" y="0" type="line"/>
      <point x="525" y="0" type="line"/>
      <point x="353" y="246" type="line"/>
      <point x="187" y="0" type="line"/>
    </contour>
  </outline>
</glyph>
<glyph name="Y" format="2">
  <advance width="762"/>
  <unicode hex="0059"/>
  <anchor x="390" y="790" name="top"/>
  <outline>
    <contour>
      <point x="10" y="695" type="line"/>
      <point x="205" y="695" type="line"/>
      <point x="390" y="422" type="line"/>
      <point x="574" y="695" type="line"/>
      <point x="752" y="695" type="line"/>
      <point x="462" y="277" type="line"/>
      <point x="462" y="0" type="line"/>
      <point x="301" y="0" type="line"/>
      <point x="301" y="277" type="line"/>
    </contour>
  </outline>
</glyph>
<glyph name="Z" format="2">
  <advance width="580"/>
  <unicode hex="005A"/>
  <anchor x="297" y="790" name="top"/>
  <anchor x="306" y="-60" name="bottom_60"/>
  <outline>
    <contour>
      <point x="10" y="0" type="line"/>
      <point x="10" y="78" type="line"/>
      <point x="357" y="578" type="line"/>
      <point x="25" y="578" type="line"/>
      <point x="25" y="695" type="line"/>
      <point x="564" y="695" type="line"/>
      <point x="564" y="620" type="line"/>
      <point x="218" y="121" type="line"/>
      <point x="570" y="121" type="line"/>
      <point x="570" y="0" type="line"/>
    </contour>
  </outline>
</glyph>
<glyph name="bracketleft" format="2">
  <advance width="343"/>
  <unicode hex="005B"/>
  <outline>
    <contour>
      <point x="75" y="-216" type="line"/>
      <point x="75" y="748" type="line"/>
      <point x="321" y="748" type="line"/>
      <point x="321" y="659" type="line"/>
      <point x="224" y="659" type="line" name=".hr01"/>
      <point x="224" y="-126" type="line"/>
      <point x="321" y="-126" type="line" name=".hr02"/>
      <point x="321" y="-216" type="line"/>
    </contour>
  </outline>
</glyph>
<glyph name="backslash" format="2">
  <advance width="550"/>
  <unicode hex="005C"/>
  <outline>
    <contour>
      <point x="30.2969" y="749" type="line"/>
      <point x="128" y="749" type="line"/>
      <point x="508" y="-216" type="line"/>
      <point x="411.99" y="-216" type="line"/>
    </contour>
  </outline>
</glyph>
<glyph name="bracketright" format="2">
  <advance width="343"/>
  <unicode hex="005D"/>
  <outline>
    <contour>
      <point x="16" y="-126" type="line"/>
      <point x="113" y="-126" type="line" name=".hr01"/>
      <point x="113" y="659" type="line"/>
      <point x="16" y="659" type="line" name=".hr02"/>
      <point x="16" y="748" type="line"/>
      <point x="261" y="748" type="line"/>
      <point x="261" y="-216" type="line"/>
      <point x="16" y="-216" type="line"/>
    </contour>
  </outline>
</glyph>
<glyph name="asciicircum" format="2">
  <advance width="672"/>
  <unicode hex="005E"/>
  <outline>
    <contour>
      <point x="150" y="459" type="line"/>
      <point x="273" y="622" type="line"/>
      <point x="389" y="622" type="line"/>
      <point x="512" y="459" type="line"/>
      <point x="418" y="459" type="line"/>
      <point x="330" y="539" type="line"/>
      <point x="302" y="513"/>
      <point x="272" y="484"/>
      <point x="244" y="459" type="curve"/>
    </contour>
  </outline>
</glyph>
<glyph name="underscore" format="2">
  <advance width="856"/>
  <unicode hex="005F"/>
  <outline>
    <contour>
      <point x="86" y="-228" type="line"/>
      <point x="756" y="-228" type="line"/>
      <point x="756" y="-329" type="line"/>
      <point x="86" y="-329" type="line"/>
    </contour>
  </outline>
</glyph>
<glyph name="grave" format="2">
  <advance width="410"/>
  <unicode hex="0060"/>
  <anchor x="293" y="550" name="_top"/>
  <outline>
    <contour>
      <point x="69" y="720" type="line"/>
      <point x="233" y="720" type="line"/>
      <point x="341" y="550" type="line"/>
      <point x="249" y="550" type="line"/>
    </contour>
  </outline>
  <guideline angle="0" x="0" y="720"/>
</glyph>
<glyph name="a" format="2">
  <advance width="520"/>
  <unicode hex="0061"/>
  <anchor x="242" y="550" name="top"/>
  <anchor x="361" y="10" name="bottom_0"/>
  <anchor x="240" y="-60" name="bottom_60"/>
  <outline>
    <contour>
      <point x="24" y="123" type="curve" smooth="yes"/>
      <point x="24" y="269.514"/>
      <point x="260" y="277"/>
      <point x="310" y="277" type="curve"/>
      <point x="310" y="334" type="line" smooth="yes"/>
      <point x="310" y="367"/>
      <point x="295.966" y="405"/>
      <point x="241" y="405" type="curve" smooth="yes"/>
      <point x="173.14" y="405"/>
      <point x="115.277" y="350.035"/>
      <point x="83" y="319" type="curve"/>
      <point x="74" y="443" type="line"/>
      <point x="137" y="475"/>
      <point x="184" y="488"/>
      <point x="254" y="488" type="curve" smooth="yes"/>
      <point x="412" y="488"/>
      <point x="460" y="431.725"/>
      <point x="460" y="344" type="curve" smooth="yes"/>
      <point x="460" y="0" type="line"/>
      <point x="312" y="0" type="line"/>
      <point x="312" y="50" type="line"/>
      <point x="275" y="10.3496"/>
      <point x="221" y="-11" name=".hr01"/>
      <point x="167" y="-11" type="curve" smooth="yes"/>
      <point x="80" y="-11"/>
      <point x="24" y="47.625"/>
    </contour>
    <contour>
      <point x="170" y="135" type="curve" smooth="yes"/>
      <point x="170" y="105"/>
      <point x="192" y="79"/>
      <point x="227" y="79" type="curve" smooth="yes"/>
      <point x="267.704" y="79"/>
      <point x="310" y="101.592"/>
      <point x="310" y="157" type="curve" smooth="yes"/>
      <point x="310" y="219" type="line"/>
      <point x="252" y="213"/>
      <point x="170" y="200"/>
    </contour>
  </outline>
</glyph>
<glyph name="b" format="2">
  <advance width="561"/>
  <unicode hex="0062"/>
  <anchor x="128" y="790" name="top"/>
  <outline>
    <contour>
      <point x="54" y="0" type="line"/>
      <point x="54" y="695" type="line"/>
      <point x="202" y="695" type="line"/>
      <point x="202" y="427" type="line"/>
      <point x="233" y="458.652"/>
      <point x="273.472" y="483"/>
      <point x="326" y="483" type="curve" smooth="yes"/>
      <point x="479.023" y="483"/>
      <point x="517" y="383.177"/>
      <point x="517" y="244" type="curve" smooth="yes"/>
      <point x="517" y="61.8571"/>
      <point x="434.03" y="-11" name=".hr01"/>
      <point x="308" y="-11" type="curve" smooth="yes"/>
      <point x="271.474" y="-11"/>
      <point x="221.368" y="11.3171"/>
      <point x="204" y="50" type="curve"/>
      <point x="204" y="0" type="line" name=".hr02"/>
    </contour>
    <contour>
      <point x="204" y="156" type="line" smooth="yes"/>
      <point x="204" y="108.719"/>
      <point x="232" y="79" name=".hr03"/>
      <point x="269" y="79" type="curve" smooth="yes"/>
      <point x="360" y="79"/>
      <point x="367" y="152.51"/>
      <point x="367" y="242" type="curve" smooth="yes"/>
      <point x="367" y="325.506"/>
      <point x="365" y="394"/>
      <point x="279" y="394" type="curve" smooth="yes"/>
      <point x="247" y="394"/>
      <point x="223" y="379"/>
      <point x="204" y="347" type="curve"/>
    </contour>
  </outline>
</glyph>
<glyph name="c" format="2">
  <advance width="489"/>
  <unicode hex="0063"/>
  <anchor x="250" y="550" name="top"/>
  <outline>
    <contour>
      <point x="30" y="237" type="curve" smooth="yes"/>
      <point x="30" y="408"/>
      <point x="143" y="488"/>
      <point x="273" y="488" type="curve" smooth="yes"/>
      <point x="349" y="488"/>
      <point x="384" y="477"/>
      <point x="448" y="443" type="curve"/>
      <point x="430" y="330" type="line"/>
      <point x="398" y="359"/>
      <point x="357" y="394"/>
      <point x="274" y="394" type="curve" smooth="yes"/>
      <point x="185.054" y="394"/>
      <point x="180" y="298.138"/>
      <point x="180" y="236" type="curve" smooth="yes"/>
      <point x="180" y="166.676"/>
      <point x="185.055" y="83"/>
      <point x="272" y="83" type="curve" smooth="yes"/>
      <point x="357" y="83"/>
      <point x="416" y="133"/>
      <point x="444" y="156" type="curve"/>
      <point x="453" y="37" type="line"/>
      <point x="393" y="5"/>
      <point x="341" y="-11"/>
      <point x="269" y="-11" type="curve" smooth="yes"/>
      <point x="78" y="-11"/>
      <point x="30" y="107"/>
    </contour>
  </outline>
</glyph>
<glyph name="d" format="2">
  <advance width="561"/>
  <unicode hex="0064"/>
  <anchor x="421" y="790" name="top"/>
  <outline>
    <contour>
      <point x="180" y="249" type="curve" smooth="yes"/>
      <point x="180" y="119"/>
      <point x="197.198" y="78"/>
      <point x="267" y="78" type="curve" smooth="yes"/>
      <point x="340.803" y="78"/>
      <point x="346" y="133"/>
      <point x="346" y="155" type="curve" smooth="yes"/>
      <point x="346" y="371" type="line"/>
      <point x="324.016" y="387"/>
      <point x="306.219" y="394"/>
      <point x="279" y="394" type="curve" smooth="yes"/>
      <point x="185.051" y="394"/>
      <point x="180" y="319"/>
    </contour>
    <contour>
      <point x="30" y="238" type="curve" smooth="yes"/>
      <point x="30" y="369.607"/>
      <point x="105.637" y="483"/>
      <point x="216" y="483" type="curve" smooth="yes"/>
      <point x="272" y="483"/>
      <point x="311" y="467"/>
      <point x="346" y="441" type="curve"/>
      <point x="346" y="695" type="line"/>
      <point x="496" y="695" type="line"/>
      <point x="496" y="0" type="line"/>
      <point x="346" y="0" type="line" name=".hr01"/>
      <point x="346" y="37" type="line"/>
      <point x="311.197" y="7"/>
      <point x="273.323" y="-11"/>
      <point x="216" y="-11" type="curve" smooth="yes" name=".hr02"/>
      <point x="161" y="-11"/>
      <point x="30" y="10"/>
    </contour>
  </outline>
</glyph>
<glyph name="e" format="2">
  <advance width="511"/>
  <unicode hex="0065"/>
  <anchor x="249" y="550" name="top"/>
  <anchor x="256" y="10" name="bottom_0"/>
  <outline>
    <contour>
      <point x="24" y="240" type="curve" smooth="yes"/>
      <point x="24" y="347"/>
      <point x="72" y="488"/>
      <point x="263" y="488" type="curve" smooth="yes"/>
      <point x="452" y="488"/>
      <point x="474" y="343.734"/>
      <point x="474" y="221" type="curve"/>
      <point x="174" y="221" type="line"/>
      <point x="174" y="148.782"/>
      <point x="211.37" y="79"/>
      <point x="282" y="79" type="curve" smooth="yes"/>
      <point x="360" y="79"/>
      <point x="424" y="124"/>
      <point x="461" y="153" type="curve"/>
      <point x="469" y="40" type="line"/>
      <point x="434" y="20"/>
      <point x="371" y="-11"/>
      <point x="276" y="-11" type="curve" smooth="yes"/>
      <point x="147" y="-11"/>
      <point x="24" y="49"/>
    </contour>
    <contour>
      <point x="180" y="311" type="curve"/>
      <point x="345" y="311" type="line"/>
      <point x="335" y="389"/>
      <point x="296" y="399"/>
      <point x="264" y="399" type="curve" smooth="yes"/>
      <point x="201" y="399"/>
      <point x="185.478" y="340"/>
    </contour>
  </outline>
</glyph>
<glyph name="f" format="2">
  <advance width="336"/>
  <unicode hex="0066"/>
  <anchor x="207" y="790" name="top"/>
  <outline>
    <contour>
      <point x="23" y="384" type="line"/>
      <point x="23" y="472" type="line"/>
      <point x="77" y="472" type="line"/>
      <point x="77" y="527" type="line" smooth="yes"/>
      <point x="77" y="660.329"/>
      <point x="168.414" y="695"/>
      <point x="283" y="695" type="curve" smooth="yes"/>
      <point x="315.97" y="695"/>
      <point x="338.273" y="692"/>
      <point x="379" y="683" type="curve"/>
      <point x="379" y="557" type="line"/>
      <point x="350.038" y="584.152"/>
      <point x="308.212" y="606"/>
      <point x="283" y="606" type="curve" smooth="yes"/>
      <point x="229" y="606"/>
      <point x="224" y="574"/>
      <point x="224" y="553" type="curve" smooth="yes"/>
      <point x="224" y="472" type="line"/>
      <point x="319" y="472" type="line"/>
      <point x="319" y="384" type="line"/>
      <point x="227" y="384" type="line"/>
      <point x="227" y="0" type="line"/>
      <point x="77" y="0" type="line"/>
      <point x="77" y="384" type="line"/>
    </contour>
  </outline>
</glyph>
<glyph name="g" format="2">
  <advance width="561"/>
  <unicode hex="0067"/>
  <anchor x="251" y="550" name="top"/>
  <outline>
    <contour>
      <point x="30" y="236" type="curve" smooth="yes"/>
      <point x="30" y="334"/>
      <point x="62" y="483"/>
      <point x="234" y="483" type="curve" smooth="yes"/>
      <point x="277" y="483"/>
      <point x="318" y="463"/>
      <point x="346" y="434" type="curve"/>
      <point x="346" y="472" type="line" name=".hr01"/>
      <point x="496" y="472" type="line"/>
      <point x="496" y="33" type="line" smooth="yes"/>
      <point x="496" y="-92"/>
      <point x="428.404" y="-182"/>
      <point x="269" y="-182" type="curve" smooth="yes"/>
      <point x="187" y="-182"/>
      <point x="134" y="-165"/>
      <point x="69" y="-130" type="curve"/>
      <point x="69" y="-16" type="line"/>
      <point x="124" y="-58"/>
      <point x="175" y="-93"/>
      <point x="264" y="-93" type="curve" smooth="yes"/>
      <point x="344.962" y="-93"/>
      <point x="346" y="-35.9076"/>
      <point x="346" y="-7" type="curve" smooth="yes"/>
      <point x="346" y="55" type="line"/>
      <point x="321.39" y="21"/>
      <point x="283.449" y="-10"/>
      <point x="225" y="-10" type="curve" smooth="yes"/>
      <point x="128" y="-10"/>
      <point x="30" y="39.662"/>
    </contour>
    <contour>
      <point x="180" y="238" type="curve" smooth="yes"/>
      <point x="180" y="168.595"/>
      <point x="191.129" y="79"/>
      <point x="266" y="79" type="curve" smooth="yes"/>
      <point x="334" y="79"/>
      <point x="346" y="178"/>
      <point x="346" y="216" type="curve" smooth="yes"/>
      <point x="346" y="310" type="line" smooth="yes"/>
      <point x="346" y="323"/>
      <point x="335" y="394"/>
      <point x="279" y="394" type="curve" smooth="yes" name=".hr02"/>
      <point x="219.398" y="394"/>
      <point x="180" y="351"/>
    </contour>
  </outline>
</glyph>
<glyph name="h" format="2">
  <advance width="561"/>
  <unicode hex="0068"/>
  <anchor x="125" y="790" name="top"/>
  <anchor x="272" y="-60" name="bottom_60"/>
  <outline>
    <contour>
      <point x="50" y="0" type="line"/>
      <point x="50" y="695" type="line"/>
      <point x="200" y="695" type="line"/>
      <point x="200" y="409" type="line"/>
      <point x="225" y="445"/>
      <point x="270" y="483"/>
      <point x="345" y="483" type="curve" smooth="yes"/>
      <point x="480.06" y="483"/>
      <point x="495" y="402"/>
      <point x="495" y="311" type="curve" smooth="yes"/>
      <point x="495" y="0" type="line"/>
      <point x="345" y="0" type="line"/>
      <point x="345" y="323" type="line" smooth="yes"/>
      <point x="345" y="363"/>
      <point x="338" y="394"/>
      <point x="290" y="394" type="curve" smooth="yes"/>
      <point x="228.966" y="394"/>
      <point x="204.138" y="332"/>
      <point x="200" y="288" type="curve"/>
      <point x="200" y="0" type="line"/>
    </contour>
  </outline>
</glyph>
<glyph name="k" format="2">
  <advance width="540"/>
  <unicode hex="006B"/>
  <anchor x="134" y="790" name="top"/>
  <outline>
    <contour>
      <point x="53" y="0" type="line"/>
      <point x="53" y="695" type="line"/>
      <point x="203" y="695" type="line"/>
      <point x="203" y="338" type="line"/>
      <point x="333" y="472" type="line"/>
      <point x="504" y="472" type="line"/>
      <point x="330" y="290" type="line"/>
      <point x="523" y="0" type="line"/>
      <point x="371" y="0" type="line"/>
      <point x="239" y="195" type="line"/>
      <point x="199.591" y="154" type="line"/>
      <point x="199.591" y="0" type="line"/>
    </contour>
  </outline>
</glyph>
<glyph name="l" format="2">
  <advance width="250"/>
  <unicode hex="006C"/>
  <anchor x="125" y="790" name="top"/>
  <anchor x="125" y="-60" name="bottom_60"/>
  <outline>
    <contour>
      <point x="50" y="0" type="line"/>
      <point x="50" y="695" type="line"/>
      <point x="200" y="695" type="line"/>
      <point x="200" y="0" type="line"/>
    </contour>
  </outline>
  <guideline angle="90" x="113" y="0"/>
</glyph>
<glyph name="m" format="2">
  <advance width="867"/>
  <unicode hex="006D"/>
  <anchor x="420" y="550" name="top"/>
  <anchor x="423" y="-60" name="bottom_60"/>
  <outline>
    <contour>
      <point x="56" y="0" type="line"/>
      <point x="56" y="478" type="line"/>
      <point x="201" y="478" type="line"/>
      <point x="201" y="403" type="line"/>
      <point x="227" y="440"/>
      <point x="273" y="483"/>
      <point x="348" y="483" type="curve" smooth="yes"/>
      <point x="456.232" y="483"/>
      <point x="479.07" y="435"/>
      <point x="489" y="399" type="curve"/>
      <point x="513" y="437"/>
      <point x="559" y="484" name=".hr01"/>
      <point x="640" y="484" type="curve" smooth="yes"/>
      <point x="784.046" y="484"/>
      <point x="791" y="401"/>
      <point x="791" y="311" type="curve" smooth="yes"/>
      <point x="791" y="0" type="line"/>
      <point x="641" y="0" type="line"/>
      <point x="641" y="323" type="line" smooth="yes"/>
      <point x="641" y="364"/>
      <point x="632" y="394"/>
      <point x="585" y="394" type="curve" smooth="yes"/>
      <point x="526.814" y="394"/>
      <point x="502.626" y="332.722"/>
      <point x="498" y="288" type="curve"/>
      <point x="498" y="0" type="line"/>
      <point x="348" y="0" type="line"/>
      <point x="348" y="323" type="line" smooth="yes"/>
      <point x="348" y="364"/>
      <point x="341" y="394"/>
      <point x="293" y="394" type="curve" smooth="yes"/>
      <point x="234.814" y="394"/>
      <point x="210.626" y="332.722"/>
      <point x="206" y="288" type="curve"/>
      <point x="206" y="0" type="line"/>
    </contour>
  </outline>
</glyph>
<glyph name="n" format="2">
  <advance width="561"/>
  <unicode hex="006E"/>
  <anchor x="274" y="550" name="top"/>
  <outline>
    <contour>
      <point x="53" y="0" type="line"/>
      <point x="53" y="478" type="line"/>
      <point x="198" y="478" type="line"/>
      <point x="198" y="404" type="line"/>
      <point x="223" y="441"/>
      <point x="270" y="483"/>
      <point x="345" y="483" type="curve" smooth="yes"/>
      <point x="486.06" y="483"/>
      <point x="495" y="402"/>
      <point x="495" y="312" type="curve" smooth="yes"/>
      <point x="495" y="0" type="line"/>
      <point x="345" y="0" type="line"/>
      <point x="345" y="323" type="line" smooth="yes"/>
      <point x="345" y="363"/>
      <point x="338" y="394"/>
      <point x="290" y="394" type="curve" smooth="yes"/>
      <point x="231" y="394"/>
      <point x="207" y="332"/>
      <point x="203" y="288" type="curve"/>
      <point x="203" y="0" type="line"/>
    </contour>
  </outline>
</glyph>
<glyph name="o" format="2">
  <advance width="548"/>
  <unicode hex="006F"/>
  <anchor x="274" y="550" name="top"/>
  <anchor x="274" y="-86" name="bottom"/>
  <outline>
    <contour>
      <point x="30" y="239" type="curve" smooth="yes"/>
      <point x="30" y="436"/>
      <point x="150.494" y="488"/>
      <point x="274" y="488" type="curve" smooth="yes"/>
      <point x="398" y="488"/>
      <point x="518" y="436"/>
      <point x="518" y="239" type="curve" smooth="yes"/>
      <point x="518" y="29"/>
      <point x="398" y="-11"/>
      <point x="274" y="-11" type="curve" smooth="yes"/>
      <point x="150.494" y="-11"/>
      <point x="30" y="29"/>
    </contour>
    <contour>
      <point x="180" y="241" type="curve" smooth="yes"/>
      <point x="180" y="171"/>
      <point x="181.989" y="83"/>
      <point x="274" y="83" type="curve" smooth="yes"/>
      <point x="365.979" y="83"/>
      <point x="368" y="172"/>
      <point x="368" y="241" type="curve" smooth="yes"/>
      <point x="368" y="315"/>
      <point x="359" y="399"/>
      <point x="274" y="399" type="curve" smooth="yes"/>
      <point x="180" y="399"/>
      <point x="180" y="315"/>
    </contour>
  </outline>
  <guideline angle="0" x="0" y="302"/>
</glyph>
<glyph name="p" format="2">
  <advance width="561"/>
  <unicode hex="0070"/>
  <anchor x="286" y="550" name="top"/>
  <outline>
    <contour>
      <point x="54" y="-160" type="line"/>
      <point x="54" y="472" type="line"/>
      <point x="202" y="472" type="line"/>
      <point x="202" y="434" type="line"/>
      <point x="240" y="460"/>
      <point x="291" y="483" name=".hr01"/>
      <point x="355" y="483" type="curve" smooth="yes"/>
      <point x="453" y="483"/>
      <point x="517" y="415"/>
      <point x="517" y="238" type="curve" smooth="yes"/>
      <point x="517" y="59"/>
      <point x="438" y="-11"/>
      <point x="319" y="-11" type="curve" smooth="yes"/>
      <point x="271" y="-11"/>
      <point x="233" y="6"/>
      <point x="204" y="30" type="curve"/>
      <point x="204" y="-160" type="line"/>
    </contour>
    <contour>
      <point x="204" y="106" type="line"/>
      <point x="212" y="98"/>
      <point x="232" y="79"/>
      <point x="268" y="79" type="curve" smooth="yes"/>
      <point x="354" y="79"/>
      <point x="367" y="172"/>
      <point x="367" y="229" type="curve" smooth="yes"/>
      <point x="367" y="288.285"/>
      <point x="365.6" y="389" name=".hr02"/>
      <point x="277" y="389" type="curve" smooth="yes"/>
      <point x="242" y="389"/>
      <point x="216" y="373"/>
      <point x="204" y="365" type="curve"/>
    </contour>
  </outline>
</glyph>
<glyph name="q" format="2">
  <advance width="561"/>
  <unicode hex="0071"/>
  <anchor x="263" y="550" name="top"/>
  <outline>
    <contour>
      <point x="30" y="235" type="curve" smooth="yes"/>
      <point x="30" y="413"/>
      <point x="110" y="483"/>
      <point x="230" y="483" type="curve" smooth="yes"/>
      <point x="285" y="483"/>
      <point x="325" y="454"/>
      <point x="346" y="432" type="curve"/>
      <point x="346" y="472" type="line" name=".hr01"/>
      <point x="496" y="472" type="line"/>
      <point x="496" y="-160" type="line"/>
      <point x="346" y="-160" type="line"/>
      <point x="346" y="36" type="line"/>
      <point x="312.208" y="9"/>
      <point x="265.104" y="-11"/>
      <point x="218" y="-11" type="curve" smooth="yes"/>
      <point x="63" y="-11"/>
      <point x="30" y="136"/>
    </contour>
    <contour>
      <point x="180" y="235" type="curve" smooth="yes"/>
      <point x="180" y="156"/>
      <point x="194.159" y="79"/>
      <point x="269" y="79" type="curve" smooth="yes"/>
      <point x="322" y="79"/>
      <point x="346" y="108"/>
      <point x="346" y="160" type="curve" smooth="yes"/>
      <point x="346" y="330" type="line" smooth="yes"/>
      <point x="346" y="360"/>
      <point x="315" y="389"/>
      <point x="278" y="389" type="curve" smooth="yes" name=".hr02"/>
      <point x="232.536" y="389"/>
      <point x="180" y="357"/>
    </contour>
  </outline>
</glyph>
<glyph name="r" format="2">
  <advance width="372"/>
  <unicode hex="0072"/>
  <anchor x="212" y="550" name="top"/>
  <anchor x="125" y="-60" name="bottom_60"/>
  <outline>
    <contour>
      <point x="50" y="0" type="line"/>
      <point x="50" y="472" type="line"/>
      <point x="194" y="472" type="line"/>
      <point x="194" y="390" type="line"/>
      <point x="220" y="433"/>
      <point x="271" y="481"/>
      <point x="355" y="483" type="curve" name=".hr01"/>
      <point x="355" y="366" type="line"/>
      <point x="246" y="364"/>
      <point x="204" y="298"/>
      <point x="200" y="258" type="curve"/>
      <point x="200" y="0" type="line"/>
    </contour>
  </outline>
  <guideline angle="90" x="111" y="0"/>
</glyph>
<glyph name="s" format="2">
  <advance width="422"/>
  <unicode hex="0073"/>
  <anchor x="209" y="550" name="top"/>
  <anchor x="213" y="-60" name="bottom_60"/>
  <outline>
    <contour>
      <point x="23" y="38" type="curve"/>
      <point x="44.6836" y="168.103" type="line"/>
      <point x="51.2016" y="152.629"/>
      <point x="92.721" y="84"/>
      <point x="177" y="84" type="curve" smooth="yes"/>
      <point x="233" y="84"/>
      <point x="244" y="108"/>
      <point x="244" y="129" type="curve" smooth="yes"/>
      <point x="244" y="155.19"/>
      <point x="214.577" y="172.984"/>
      <point x="186" y="179" type="curve" smooth="yes"/>
      <point x="148" y="188" type="line" smooth="yes"/>
      <point x="109.686" y="197.074"/>
      <point x="29" y="226.644"/>
      <point x="29" y="338" type="curve" smooth="yes"/>
      <point x="29" y="444"/>
      <point x="118" y="488"/>
      <point x="210" y="488" type="curve" smooth="yes"/>
      <point x="272.367" y="488"/>
      <point x="327" y="468"/>
      <point x="380" y="442" type="curve"/>
      <point x="359" y="338" type="line"/>
      <point x="314.391" y="380"/>
      <point x="284.652" y="400"/>
      <point x="233" y="400" type="curve" smooth="yes"/>
      <point x="186" y="400"/>
      <point x="179" y="369.737"/>
      <point x="179" y="350" type="curve" smooth="yes"/>
      <point x="179" y="305.239"/>
      <point x="211.791" y="294.328"/>
      <point x="242" y="286.193" type="curve" smooth="yes"/>
      <point x="265" y="280" type="line" smooth="yes"/>
      <point x="322.877" y="264.415"/>
      <point x="394" y="227.264"/>
      <point x="394" y="150" type="curve" smooth="yes"/>
      <point x="394" y="21.6076"/>
      <point x="313" y="-11"/>
      <point x="213" y="-11" type="curve" smooth="yes"/>
      <point x="142" y="-11"/>
      <point x="84" y="6"/>
    </contour>
  </outline>
</glyph>
<glyph name="t" format="2">
  <advance width="404"/>
  <unicode hex="0074"/>
  <anchor x="150" y="720" name="top"/>
  <outline>
    <contour>
      <point x="14" y="384" type="line"/>
      <point x="14" y="472" type="line"/>
      <point x="78" y="472" type="line"/>
      <point x="78" y="602" type="line"/>
      <point x="228" y="602" type="line"/>
      <point x="228" y="472" type="line"/>
      <point x="354" y="472" type="line"/>
      <point x="354" y="384" type="line"/>
      <point x="228" y="384" type="line"/>
      <point x="228" y="161" type="line" smooth="yes"/>
      <point x="228" y="112"/>
      <point x="235.175" y="83"/>
      <point x="269" y="83" type="curve" smooth="yes"/>
      <point x="308.225" y="83"/>
      <point x="331.551" y="101"/>
      <point x="352" y="118" type="curve"/>
      <point x="373" y="36" type="line"/>
      <point x="324.158" y="9"/>
      <point x="273.632" y="-11"/>
      <point x="213" y="-11" type="curve" smooth="yes"/>
      <point x="80.5714" y="-11"/>
      <point x="78" y="92"/>
      <point x="78" y="146" type="curve" smooth="yes"/>
      <point x="78" y="384" type="line"/>
    </contour>
  </outline>
</glyph>
<glyph name="u" format="2">
  <advance width="561"/>
  <unicode hex="0075"/>
  <anchor x="260" y="550" name="top"/>
  <outline>
    <contour>
      <point x="53" y="134" type="curve" smooth="yes"/>
      <point x="53" y="472" type="line"/>
      <point x="203" y="472" type="line"/>
      <point x="203" y="125" type="line"/>
      <point x="204" y="82"/>
      <point x="212" y="67"/>
      <point x="254" y="67" type="curve" smooth="yes"/>
      <point x="294" y="67"/>
      <point x="345" y="95"/>
      <point x="345" y="177" type="curve" smooth="yes"/>
      <point x="345" y="472" type="line"/>
      <point x="495" y="472" type="line"/>
      <point x="495" y="0" type="line"/>
      <point x="348" y="0" type="line"/>
      <point x="348" y="55" type="line"/>
      <point x="323" y="24"/>
      <point x="276" y="-11" name=".hr01"/>
      <point x="203" y="-11" type="curve" smooth="yes"/>
      <point x="68" y="-11"/>
      <point x="53" y="49"/>
    </contour>
  </outline>
</glyph>
<glyph name="v" format="2">
  <advance width="500"/>
  <unicode hex="0076"/>
  <anchor x="247" y="550" name="top_550"/>
  <anchor x="246" y="-60" name="bottom_60"/>
  <outline>
    <contour>
      <point x="6" y="472" type="line"/>
      <point x="146" y="472" type="line"/>
      <point x="246" y="156" type="line"/>
      <point x="346" y="472" type="line"/>
      <point x="483" y="472" type="line"/>
      <point x="334" y="0" type="line"/>
      <point x="155" y="0" type="line"/>
    </contour>
  </outline>
</glyph>
<glyph name="w" format="2">
  <advance width="744"/>
  <unicode hex="0077"/>
  <anchor x="361" y="550" name="top"/>
  <anchor x="361" y="-60" name="bottom_60"/>
  <outline>
    <contour>
      <point x="9" y="472" type="line"/>
      <point x="147" y="472" type="line"/>
      <point x="228" y="176" type="line"/>
      <point x="308" y="472" type="line"/>
      <point x="414" y="472" type="line"/>
      <point x="500" y="160" type="line"/>
      <point x="584" y="472" type="line"/>
      <point x="720" y="472" type="line"/>
      <point x="591" y="0" type="line"/>
      <point x="445" y="0" type="line"/>
      <point x="361" y="278" type="line"/>
      <point x="277" y="0" type="line"/>
      <point x="137" y="0" type="line"/>
    </contour>
  </outline>
</glyph>
<glyph name="x" format="2">
  <advance width="500"/>
  <unicode hex="0078"/>
  <anchor x="241" y="550" name="top"/>
  <outline>
    <contour>
      <point x="-15" y="0" type="line"/>
      <point x="177" y="245" type="line"/>
      <point x="-9" y="472" type="line"/>
      <point x="147" y="472" type="line"/>
      <point x="242" y="349" type="line"/>
      <point x="331" y="472" type="line"/>
      <point x="487" y="472" type="line"/>
      <point x="306" y="244" type="line"/>
      <point x="505" y="0" type="line"/>
      <point x="348" y="0" type="line"/>
      <point x="242" y="156" type="line"/>
      <point x="140" y="0" type="line"/>
    </contour>
  </outline>
</glyph>
<glyph name="y" format="2">
  <advance width="500"/>
  <unicode hex="0079"/>
  <anchor x="244" y="550" name="top"/>
  <outline>
    <contour>
      <point x="5" y="472" type="line"/>
      <point x="149" y="472" type="line"/>
      <point x="261" y="194" type="line"/>
      <point x="347" y="472" type="line"/>
      <point x="482" y="472" type="line"/>
      <point x="314" y="-31" type="line" smooth="yes"/>
      <point x="277.735" y="-139.578"/>
      <point x="189" y="-171"/>
      <point x="124" y="-171" type="curve" smooth="yes"/>
      <point x="92" y="-171"/>
      <point x="52" y="-166"/>
      <point x="34" y="-163" type="curve"/>
      <point x="34" y="-54" type="line"/>
      <point x="60.8549" y="-63.1844"/>
      <point x="82.0184" y="-70"/>
      <point x="126" y="-70" type="curve" smooth="yes"/>
      <point x="182" y="-70"/>
      <point x="197.213" y="-36.7416"/>
      <point x="205" y="-3" type="curve" smooth="yes"/>
      <point x="208" y="10" type="line"/>
    </contour>
  </outline>
</glyph>
<glyph name="z" format="2">
  <advance width="476"/>
  <unicode hex="007A"/>
  <anchor x="240" y="550" name="top"/>
  <outline>
    <contour>
      <point x="24" y="0" type="line"/>
      <point x="24" y="59" type="line"/>
      <point x="261" y="388" type="line"/>
      <point x="38" y="388" type="line"/>
      <point x="38" y="472" type="line"/>
      <point x="436" y="472" type="line"/>
      <point x="436" y="416" type="line"/>
      <point x="201" y="90" type="line"/>
      <point x="438" y="90" type="line"/>
      <point x="438" y="0" type="line"/>
    </contour>
  </outline>
</glyph>
<glyph name="braceleft" format="2">
  <advance width="550"/>
  <unicode hex="007B"/>
  <outline>
    <contour>
      <point x="48" y="221" type="curve"/>
      <point x="48" y="311" type="line"/>
      <point x="147" y="312"/>
      <point x="195" y="366"/>
      <point x="195" y="424" type="curve" smooth="yes"/>
      <point x="195" y="621" type="line" smooth="yes"/>
      <point x="195" y="688"/>
      <point x="246" y="748"/>
      <point x="430" y="748" type="curve" smooth="yes"/>
      <point x="495" y="748" type="line"/>
      <point x="495" y="659" type="line"/>
      <point x="466" y="659" type="line" smooth="yes"/>
      <point x="361" y="659"/>
      <point x="347" y="645"/>
      <point x="347" y="619" type="curve" smooth="yes"/>
      <point x="347" y="424" type="line" smooth="yes"/>
      <point x="347" y="338"/>
      <point x="288" y="290"/>
      <point x="210" y="266" type="curve"/>
      <point x="300" y="243"/>
      <point x="347" y="188"/>
      <point x="347" y="108" type="curve" smooth="yes"/>
      <point x="347" y="-86" type="line" smooth="yes"/>
      <point x="347" y="-122"/>
      <point x="380" y="-126"/>
      <point x="495" y="-126" type="curve"/>
      <point x="495" y="-216" type="line"/>
      <point x="430" y="-216" type="line" smooth="yes"/>
      <point x="344" y="-216"/>
      <point x="209" y="-207"/>
      <point x="195" y="-108" type="curve"/>
      <point x="195" y="118" type="line"/>
      <point x="189" y="187"/>
      <point x="128" y="221"/>
    </contour>
  </outline>
</glyph>
<glyph name="bar" format="2">
  <advance width="306"/>
  <unicode hex="007C"/>
  <outline>
    <contour>
      <point x="74" y="-216" type="line"/>
      <point x="74" y="747.5" type="line"/>
      <point x="224" y="747.5" type="line"/>
      <point x="224" y="-216" type="line"/>
    </contour>
  </outline>
</glyph>
<glyph name="braceright" format="2">
  <advance width="550"/>
  <unicode hex="007D"/>
  <outline>
    <contour>
      <point x="495" y="221" type="line" name=".hr02"/>
      <point x="415" y="221"/>
      <point x="354" y="187"/>
      <point x="348" y="118" type="curve"/>
      <point x="348" y="-108" type="line"/>
      <point x="334" y="-207"/>
      <point x="199" y="-216"/>
      <point x="113" y="-216" type="curve" smooth="yes"/>
      <point x="48" y="-216" type="line"/>
      <point x="48" y="-126" type="line"/>
      <point x="163" y="-126"/>
      <point x="196" y="-122"/>
      <point x="196" y="-86" type="curve" smooth="yes"/>
      <point x="196" y="108" type="line" smooth="yes"/>
      <point x="196" y="188"/>
      <point x="243" y="243"/>
      <point x="333" y="266" type="curve" name=".hr01"/>
      <point x="255" y="290"/>
      <point x="196" y="338"/>
      <point x="196" y="424" type="curve" smooth="yes"/>
      <point x="196" y="619" type="line" smooth="yes"/>
      <point x="196" y="645"/>
      <point x="182" y="659"/>
      <point x="77" y="659" type="curve" smooth="yes"/>
      <point x="48" y="659" type="line"/>
      <point x="48" y="748" type="line"/>
      <point x="113" y="748" type="line" smooth="yes"/>
      <point x="297" y="748"/>
      <point x="348" y="688"/>
      <point x="348" y="621" type="curve" smooth="yes"/>
      <point x="348" y="424" type="line" smooth="yes"/>
      <point x="348" y="366"/>
      <point x="396" y="312"/>
      <point x="495" y="311" type="curve"/>
    </contour>
  </outline>
</glyph>
<glyph name="asciitilde" format="2">
  <advance width="672"/>
  <unicode hex="007E"/>
  <outline>
    <contour>
      <point x="83" y="560" type="line"/>
      <point x="86" y="643"/>
      <point x="154" y="695"/>
      <point x="232" y="695" type="curve" smooth="yes"/>
      <point x="329" y="695"/>
      <point x="375" y="640"/>
      <point x="431" y="640" type="curve" smooth="yes"/>
      <point x="444" y="640"/>
      <point x="483" y="646"/>
      <point x="489" y="695" type="curve"/>
      <point x="577" y="695" type="line"/>
      <point x="573" y="603"/>
      <point x="506" y="550"/>
      <point x="428" y="550" type="curve" smooth="yes"/>
      <point x="333" y="550"/>
      <point x="287" y="604"/>
      <point x="230" y="604" type="curve" smooth="yes"/>
      <point x="217" y="604"/>
      <point x="178" y="599"/>
      <point x="173" y="550" type="curve"/>
      <point x="93" y="550" type="line"/>
    </contour>
  </outline>
</glyph>
<glyph name="exclamdown" format="2">
  <advance width="367"/>
  <unicode hex="00A1"/>
  <outline>
    <contour>
      <point x="107" y="-162" type="line"/>
      <point x="119" y="322" type="line"/>
      <point x="241" y="322" type="line"/>
      <point x="253" y="-162" type="line"/>
    </contour>
    <contour>
      <point x="107" y="386" type="line"/>
      <point x="107" y="533" type="line"/>
      <point x="253" y="533" type="line"/>
      <point x="253" y="386" type="line"/>
    </contour>
  </outline>
</glyph>
<glyph name="cent" format="2">
  <advance width="550"/>
  <unicode hex="00A2"/>
  <outline>
    <contour>
      <point x="29" y="239" type="curve" smooth="yes"/>
      <point x="29" y="426"/>
      <point x="160" y="482"/>
      <point x="256" y="494" type="curve"/>
      <point x="256" y="565" type="line"/>
      <point x="345" y="565" type="line"/>
      <point x="345" y="495" type="line"/>
      <point x="409" y="491"/>
      <point x="439" y="481"/>
      <point x="513" y="449" type="curve"/>
      <point x="494" y="335" type="line"/>
      <point x="427" y="379"/>
      <point x="404" y="394"/>
      <point x="345" y="398" type="curve"/>
      <point x="345" y="86" type="line"/>
      <point x="399" y="95"/>
      <point x="442" y="112"/>
      <point x="508" y="156" type="curve"/>
      <point x="517" y="38" type="line"/>
      <point x="435" y="1"/>
      <point x="386" y="-5"/>
      <point x="345" y="-9" type="curve"/>
      <point x="345" y="-81" type="line"/>
      <point x="256" y="-81" type="line"/>
      <point x="256" y="-9" type="line"/>
      <point x="151" y="4"/>
      <point x="29" y="48"/>
    </contour>
    <contour>
      <point x="182" y="224" type="curve"/>
      <point x="183" y="168"/>
      <point x="194" y="110"/>
      <point x="256" y="90" type="curve"/>
      <point x="256" y="394" type="line"/>
      <point x="158" y="361"/>
      <point x="182" y="221"/>
    </contour>
  </outline>
</glyph>
<glyph name="sterling" format="2">
  <advance width="703"/>
  <unicode hex="00A3"/>
  <outline>
    <contour>
      <point x="4" y="92" type="curve" smooth="yes"/>
      <point x="4" y="162"/>
      <point x="49.0919" y="206"/>
      <point x="116" y="206" type="curve" smooth="yes"/>
      <point x="146" y="206"/>
      <point x="184.078" y="199.846"/>
      <point x="221" y="187" type="curve"/>
      <point x="223.806" y="201.076"/>
      <point x="225" y="212"/>
      <point x="225" y="234" type="curve" smooth="yes"/>
      <point x="225" y="302" type="line"/>
      <point x="172" y="302" type="line"/>
      <point x="172" y="393" type="line"/>
      <point x="225" y="393" type="line"/>
      <point x="225" y="507" type="line" smooth="yes"/>
      <point x="225" y="640.646"/>
      <point x="270.777" y="741"/>
      <point x="445" y="741" type="curve" smooth="yes"/>
      <point x="579" y="741"/>
      <point x="637" y="648.353"/>
      <point x="637" y="536" type="curve"/>
      <point x="510" y="536" type="line"/>
      <point x="510" y="614"/>
      <point x="475" y="650"/>
      <point x="445" y="650" type="curve" smooth="yes"/>
      <point x="378" y="650"/>
      <point x="377" y="530"/>
      <point x="377" y="527" type="curve" smooth="yes"/>
      <point x="377" y="393" type="line"/>
      <point x="460" y="393" type="line"/>
      <point x="460" y="302" type="line"/>
      <point x="377" y="302" type="line"/>
      <point x="377" y="205" type="line" smooth="yes"/>
      <point x="377" y="170.094"/>
      <point x="372.5" y="144.962"/>
      <point x="368" y="131" type="curve"/>
      <point x="411.203" y="109.464"/>
      <point x="461" y="99"/>
      <point x="494" y="99" type="curve" smooth="yes"/>
      <point x="546.784" y="99"/>
      <point x="557" y="125"/>
      <point x="557" y="155" type="curve"/>
      <point x="667" y="155" type="line"/>
      <point x="662.945" y="52.774"/>
      <point x="616.989" y="-11"/>
      <point x="463" y="-11" type="curve" smooth="yes"/>
      <point x="418.955" y="-11"/>
      <point x="336.641" y="6.14286"/>
      <point x="303" y="29" type="curve"/>
      <point x="273.661" y="9"/>
      <point x="233.408" y="-11"/>
      <point x="141" y="-11" type="curve" smooth="yes"/>
      <point x="58.0096" y="-11"/>
      <point x="4" y="30.4861"/>
    </contour>
    <contour>
      <point x="114" y="91" type="curve" smooth="yes"/>
      <point x="114" y="79.6667"/>
      <point x="127" y="74"/>
      <point x="146" y="74" type="curve" smooth="yes"/>
      <point x="158" y="74"/>
      <point x="174.8" y="77.75"/>
      <point x="188" y="89" type="curve"/>
      <point x="165.881" y="97.0909"/>
      <point x="146" y="105"/>
      <point x="131" y="105" type="curve" smooth="yes"/>
      <point x="120.906" y="105"/>
      <point x="114" y="97.6667"/>
    </contour>
  </outline>
</glyph>
<glyph name="currency" format="2">
  <advance width="808"/>
  <unicode hex="00A4"/>
  <outline>
    <contour>
      <point x="29" y="-14" type="curve" smooth="yes"/>
      <point x="29" y="8"/>
      <point x="40" y="17"/>
      <point x="57" y="35" type="curve"/>
      <point x="88" y="66" type="line"/>
      <point x="104" y="83"/>
      <point x="115" y="94"/>
      <point x="131" y="110" type="curve"/>
      <point x="114" y="138"/>
      <point x="82" y="195"/>
      <point x="82" y="305" type="curve" smooth="yes"/>
      <point x="82" y="414"/>
      <point x="114" y="471"/>
      <point x="131" y="500" type="curve"/>
      <point x="38" y="580"/>
      <point x="29" y="606"/>
      <point x="29" y="623" type="curve" smooth="yes"/>
      <point x="29" y="653"/>
      <point x="54" y="673"/>
      <point x="80" y="673" type="curve" smooth="yes"/>
      <point x="110" y="673"/>
      <point x="126" y="648"/>
      <point x="203" y="571" type="curve"/>
      <point x="267" y="614"/>
      <point x="342" y="621"/>
      <point x="400" y="621" type="curve" smooth="yes"/>
      <point x="510" y="621"/>
      <point x="568" y="586"/>
      <point x="593" y="570" type="curve"/>
      <point x="629" y="606"/>
      <point x="677" y="673"/>
      <point x="716" y="673" type="curve" smooth="yes"/>
      <point x="741" y="673"/>
      <point x="767" y="653"/>
      <point x="767" y="623" type="curve" smooth="yes"/>
      <point x="767" y="588"/>
      <point x="738" y="580"/>
      <point x="664" y="500" type="curve"/>
      <point x="681" y="473"/>
      <point x="713" y="417"/>
      <point x="713" y="304" type="curve" smooth="yes"/>
      <point x="713" y="192"/>
      <point x="681" y="136"/>
      <point x="664" y="109" type="curve"/>
      <point x="701" y="72" type="line" smooth="yes"/>
      <point x="753" y="21"/>
      <point x="767" y="8"/>
      <point x="767" y="-14" type="curve" smooth="yes"/>
      <point x="767" y="-44"/>
      <point x="741" y="-63"/>
      <point x="716" y="-63" type="curve" smooth="yes"/>
      <point x="682" y="-63"/>
      <point x="671" y="-36"/>
      <point x="594" y="38" type="curve"/>
      <point x="530" y="-4"/>
      <point x="451" y="-11"/>
      <point x="398" y="-11" type="curve" smooth="yes"/>
      <point x="287" y="-11"/>
      <point x="229" y="20"/>
      <point x="202" y="38" type="curve"/>
      <point x="167" y="2" type="line" smooth="yes"/>
      <point x="110" y="-55"/>
      <point x="102" y="-63"/>
      <point x="80" y="-63" type="curve" smooth="yes"/>
      <point x="49" y="-63"/>
      <point x="29" y="-39"/>
    </contour>
    <contour>
      <point x="183" y="304" type="curve" smooth="yes"/>
      <point x="183" y="182"/>
      <point x="231" y="89"/>
      <point x="394" y="89" type="curve" smooth="yes"/>
      <point x="511" y="89"/>
      <point x="613" y="124"/>
      <point x="613" y="305" type="curve" smooth="yes"/>
      <point x="613" y="429"/>
      <point x="564" y="520"/>
      <point x="401" y="520" type="curve" smooth="yes"/>
      <point x="285" y="520"/>
      <point x="183" y="485"/>
    </contour>
  </outline>
</glyph>
<glyph name="yen" format="2">
  <advance width="733"/>
  <unicode hex="00A5"/>
  <outline>
    <contour>
      <point x="-37" y="218" type="curve" smooth="yes"/>
      <point x="-37" y="235"/>
      <point x="-27" y="262"/>
      <point x="19" y="262" type="curve" smooth="yes"/>
      <point x="281" y="262" type="line"/>
      <point x="281" y="266" type="line" smooth="yes"/>
      <point x="281" y="277"/>
      <point x="275" y="285"/>
      <point x="237" y="339" type="curve" smooth="yes"/>
      <point x="194" y="402" type="line"/>
      <point x="20" y="402" type="line" smooth="yes"/>
      <point x="-22" y="402"/>
      <point x="-37" y="426"/>
      <point x="-37" y="447" type="curve" smooth="yes"/>
      <point x="-37" y="477"/>
      <point x="-12" y="493"/>
      <point x="22" y="493" type="curve" smooth="yes"/>
      <point x="130" y="493" type="line"/>
      <point x="85" y="557"/>
      <point x="34" y="633"/>
      <point x="-9" y="695" type="curve"/>
      <point x="185" y="695" type="line"/>
      <point x="324" y="493" type="line"/>
      <point x="415" y="493" type="line"/>
      <point x="461" y="559"/>
      <point x="510" y="629"/>
      <point x="554" y="695" type="curve"/>
      <point x="732" y="695" type="line"/>
      <point x="592" y="493" type="line"/>
      <point x="701" y="493" type="line" smooth="yes"/>
      <point x="736" y="493"/>
      <point x="759" y="476"/>
      <point x="759" y="447" type="curve" smooth="yes"/>
      <point x="759" y="432"/>
      <point x="748" y="402"/>
      <point x="713" y="402" type="curve" smooth="yes"/>
      <point x="529" y="402" type="line"/>
      <point x="441" y="277" type="line"/>
      <point x="441" y="262" type="line"/>
      <point x="709" y="262" type="line" smooth="yes"/>
      <point x="746" y="262"/>
      <point x="759" y="235"/>
      <point x="759" y="217" type="curve" smooth="yes"/>
      <point x="759" y="199"/>
      <point x="750" y="173"/>
      <point x="705" y="173" type="curve"/>
      <point x="705" y="173" type="line"/>
      <point x="441" y="173" type="line"/>
      <point x="441" y="0" type="line"/>
      <point x="281" y="0" type="line"/>
      <point x="281" y="173" type="line"/>
      <point x="18" y="173" type="line" smooth="yes"/>
      <point x="17" y="173"/>
      <point x="16" y="172"/>
      <point x="12" y="172" type="curve" smooth="yes"/>
      <point x="-23" y="172"/>
      <point x="-37" y="199"/>
    </contour>
    <contour>
      <point x="338" y="402" type="line"/>
      <point x="373" y="355" type="line"/>
      <point x="403" y="402" type="line"/>
    </contour>
  </outline>
</glyph>
<glyph name="brokenbar" format="2">
  <advance width="183"/>
  <unicode hex="00A6"/>
  <outline>
    <contour>
      <point x="14" y="200" type="line"/>
      <point x="164" y="200" type="line"/>
      <point x="164" y="-216" type="line"/>
      <point x="14" y="-216" type="line"/>
    </contour>
    <contour>
      <point x="14" y="331" type="line"/>
      <point x="14" y="748" type="line"/>
      <point x="164" y="748" type="line"/>
      <point x="164" y="331" type="line"/>
    </contour>
  </outline>
</glyph>
<glyph name="section" format="2">
  <advance width="533"/>
  <unicode hex="00A7"/>
  <outline>
    <contour>
      <point x="39" y="-100" type="curve"/>
      <point x="63" y="34" type="line"/>
      <point x="86" y="4"/>
      <point x="122" y="-46"/>
      <point x="185" y="-70" type="curve" smooth="yes"/>
      <point x="206" y="-78"/>
      <point x="229" y="-83"/>
      <point x="257" y="-83" type="curve" smooth="yes"/>
      <point x="303" y="-83"/>
      <point x="315" y="-32"/>
      <point x="315" y="-5" type="curve" smooth="yes"/>
      <point x="315" y="44"/>
      <point x="244" y="62"/>
      <point x="192" y="86" type="curve"/>
      <point x="170" y="99"/>
      <point x="67" y="160"/>
      <point x="67" y="271" type="curve" smooth="yes"/>
      <point x="67" y="295"/>
      <point x="72" y="350"/>
      <point x="129" y="397" type="curve"/>
      <point x="95" y="430"/>
      <point x="67" y="475"/>
      <point x="67" y="534" type="curve" smooth="yes"/>
      <point x="67" y="626"/>
      <point x="147" y="706"/>
      <point x="265" y="706" type="curve" smooth="yes"/>
      <point x="346" y="706"/>
      <point x="399" y="680"/>
      <point x="453" y="645" type="curve"/>
      <point x="432" y="519" type="line"/>
      <point x="419" y="532"/>
      <point x="396" y="575"/>
      <point x="339" y="600" type="curve" smooth="yes"/>
      <point x="319" y="609"/>
      <point x="296" y="615"/>
      <point x="267" y="615" type="curve" smooth="yes"/>
      <point x="219" y="615"/>
      <point x="209" y="562"/>
      <point x="209" y="537" type="curve" smooth="yes"/>
      <point x="209" y="518"/>
      <point x="218" y="505"/>
      <point x="231" y="495" type="curve" smooth="yes"/>
      <point x="244" y="485"/>
      <point x="262" y="477"/>
      <point x="281" y="469" type="curve" smooth="yes"/>
      <point x="318" y="454"/>
      <point x="456" y="397"/>
      <point x="456" y="260" type="curve" smooth="yes"/>
      <point x="456" y="211"/>
      <point x="433" y="167"/>
      <point x="394" y="134" type="curve"/>
      <point x="431" y="99"/>
      <point x="456" y="52"/>
      <point x="456" y="-1" type="curve" smooth="yes"/>
      <point x="456" y="-93"/>
      <point x="376" y="-173"/>
      <point x="259" y="-173" type="curve" smooth="yes"/>
      <point x="175" y="-173"/>
      <point x="114" y="-152"/>
    </contour>
    <contour>
      <point x="209" y="274" type="curve" smooth="yes"/>
      <point x="209" y="237"/>
      <point x="238" y="223"/>
      <point x="299" y="200" type="curve"/>
      <point x="305" y="210"/>
      <point x="315" y="230"/>
      <point x="315" y="258" type="curve" smooth="yes"/>
      <point x="315" y="293"/>
      <point x="286" y="309"/>
      <point x="226" y="333" type="curve"/>
      <point x="219" y="323"/>
      <point x="209" y="303"/>
    </contour>
  </outline>
</glyph>
<glyph name="dieresis" format="2">
  <advance width="460"/>
  <unicode hex="00A8"/>
  <anchor x="230" y="550" name="top"/>
  <outline>
    <contour>
      <point x="260" y="550" type="line"/>
      <point x="260" y="678" type="line"/>
      <point x="410" y="678" type="line"/>
      <point x="410" y="550" type="line"/>
    </contour>
    <contour>
      <point x="50" y="550" type="line"/>
      <point x="50" y="678" type="line"/>
      <point x="200" y="678" type="line"/>
      <point x="200" y="550" type="line"/>
    </contour>
  </outline>
  <guideline angle="0" x="0" y="550"/>
  <guideline angle="90" x="230" y="0"/>
</glyph>
<glyph name="copyright" format="2">
  <advance width="1143"/>
  <unicode hex="00A9"/>
  <outline>
    <contour>
      <point x="255" y="257" type="curve" smooth="yes"/>
      <point x="255" y="508.858"/>
      <point x="456.253" y="565"/>
      <point x="594" y="565" type="curve" smooth="yes"/>
      <point x="662.135" y="565"/>
      <point x="705.696" y="554.556"/>
      <point x="785" y="518" type="curve"/>
      <point x="765" y="399" type="line"/>
      <point x="725.967" y="423.706"/>
      <point x="685.359" y="447"/>
      <point x="592" y="447" type="curve" smooth="yes"/>
      <point x="441.579" y="447"/>
      <point x="418" y="332.4"/>
      <point x="418" y="256" type="curve" smooth="yes"/>
      <point x="418" y="102.947"/>
      <point x="503.909" y="65"/>
      <point x="598" y="65" type="curve" smooth="yes"/>
      <point x="688.701" y="65"/>
      <point x="723.413" y="88.5714"/>
      <point x="785" y="131" type="curve"/>
      <point x="796" y="0" type="line"/>
      <point x="737.011" y="-30.7143"/>
      <point x="695.831" y="-52"/>
      <point x="599" y="-52" type="curve" smooth="yes"/>
      <point x="441.333" y="-52"/>
      <point x="255" y="0.840149"/>
    </contour>
    <contour>
      <point x="57" y="266" type="curve" smooth="yes"/>
      <point x="57" y="566"/>
      <point x="261" y="771"/>
      <point x="561" y="771" type="curve" smooth="yes"/>
      <point x="861" y="771"/>
      <point x="1067" y="566"/>
      <point x="1067" y="266" type="curve" smooth="yes"/>
      <point x="1067" y="-34"/>
      <point x="863" y="-238"/>
      <point x="563" y="-238" type="curve" smooth="yes"/>
      <point x="263" y="-238"/>
      <point x="57" y="-34"/>
    </contour>
    <contour>
      <point x="157" y="266" type="curve" smooth="yes"/>
      <point x="157" y="26"/>
      <point x="321" y="-138"/>
      <point x="561" y="-138" type="curve" smooth="yes"/>
      <point x="801" y="-138"/>
      <point x="967" y="26"/>
      <point x="967" y="266" type="curve" smooth="yes"/>
      <point x="967" y="506.594"/>
      <point x="802" y="671"/>
      <point x="562" y="671" type="curve" smooth="yes"/>
      <point x="322" y="671"/>
      <point x="157" y="506.594"/>
    </contour>
  </outline>
</glyph>
<glyph name="ordfeminine" format="2">
  <advance width="500"/>
  <unicode hex="00AA"/>
  <outline>
    <contour>
      <point x="36" y="213" type="line"/>
      <point x="36" y="303" type="line"/>
      <point x="462" y="303" type="line"/>
      <point x="462" y="213" type="line"/>
    </contour>
    <contour>
      <point x="44" y="457" type="curve" smooth="yes"/>
      <point x="44" y="530"/>
      <point x="237" y="525"/>
      <point x="273" y="525" type="curve"/>
      <point x="273" y="587" type="line" smooth="yes"/>
      <point x="273" y="673"/>
      <point x="257" y="681"/>
      <point x="239" y="681" type="curve" smooth="yes"/>
      <point x="160" y="681"/>
      <point x="104" y="576"/>
      <point x="104" y="576" type="curve"/>
      <point x="94" y="713" type="line"/>
      <point x="143" y="748"/>
      <point x="185" y="765"/>
      <point x="249" y="765" type="curve" smooth="yes"/>
      <point x="400.858" y="765"/>
      <point x="426" y="664.064"/>
      <point x="426" y="593" type="curve" smooth="yes"/>
      <point x="426" y="364" type="line"/>
      <point x="276" y="364" type="line"/>
      <point x="276" y="408" type="line"/>
      <point x="234" y="363"/>
      <point x="181" y="354"/>
      <point x="160" y="354" type="curve" smooth="yes"/>
      <point x="83" y="354"/>
      <point x="44" y="416"/>
    </contour>
    <contour>
      <point x="192" y="460" type="curve" smooth="yes"/>
      <point x="192" y="453"/>
      <point x="200" y="444"/>
      <point x="217" y="444" type="curve" smooth="yes"/>
      <point x="232" y="444"/>
      <point x="248" y="455"/>
      <point x="258" y="465" type="curve"/>
      <point x="198" y="462"/>
      <point x="192" y="461"/>
    </contour>
  </outline>
</glyph>
<glyph name="guillemotleft" format="2">
  <advance width="733"/>
  <unicode hex="00AB"/>
  <outline>
    <contour>
      <point x="63" y="240" type="line"/>
      <point x="277" y="479" type="line"/>
      <point x="406" y="479" type="line"/>
      <point x="200" y="239" type="line"/>
      <point x="264" y="164"/>
      <point x="344" y="74"/>
      <point x="407" y="0" type="curve"/>
      <point x="277" y="0" type="line"/>
    </contour>
    <contour>
      <point x="289" y="240" type="line"/>
      <point x="503" y="479" type="line"/>
      <point x="632" y="479" type="line"/>
      <point x="426" y="239" type="line"/>
      <point x="490" y="164"/>
      <point x="570" y="74"/>
      <point x="633" y="0" type="curve"/>
      <point x="503" y="0" type="line"/>
    </contour>
  </outline>
</glyph>
<glyph name="logicalnot" format="2">
  <advance width="672"/>
  <unicode hex="00AC"/>
  <outline>
    <contour>
      <point x="53" y="361" type="curve" smooth="yes"/>
      <point x="53" y="379"/>
      <point x="64" y="411"/>
      <point x="111" y="411" type="curve" smooth="yes"/>
      <point x="549" y="411" type="line" smooth="yes"/>
      <point x="580" y="411"/>
      <point x="607" y="399"/>
      <point x="607" y="354" type="curve" smooth="yes"/>
      <point x="607" y="112" type="line" smooth="yes"/>
      <point x="607" y="58"/>
      <point x="573" y="52"/>
      <point x="557" y="52" type="curve" smooth="yes"/>
      <point x="520" y="52"/>
      <point x="506" y="79"/>
      <point x="506" y="126" type="curve" smooth="yes"/>
      <point x="506" y="311" type="line"/>
      <point x="118" y="311" type="line" smooth="yes"/>
      <point x="116" y="311"/>
      <point x="115" y="310"/>
      <point x="112" y="310" type="curve" smooth="yes"/>
      <point x="59" y="310"/>
      <point x="53" y="349"/>
    </contour>
  </outline>
</glyph>
<glyph name="registered" format="2">
  <advance width="1143"/>
  <unicode hex="00AE"/>
  <outline>
    <contour>
      <point x="57" y="266" type="curve" smooth="yes"/>
      <point x="57" y="566"/>
      <point x="261" y="771"/>
      <point x="561" y="771" type="curve" smooth="yes"/>
      <point x="861" y="771"/>
      <point x="1067" y="566"/>
      <point x="1067" y="266" type="curve" smooth="yes"/>
      <point x="1067" y="-34"/>
      <point x="863" y="-238" name=".hr01"/>
      <point x="563" y="-238" type="curve" smooth="yes"/>
      <point x="263" y="-238"/>
      <point x="57" y="-34"/>
    </contour>
    <contour>
      <point x="157" y="266" type="curve" smooth="yes" name=".hr02"/>
      <point x="157" y="26"/>
      <point x="321" y="-138"/>
      <point x="561" y="-138" type="curve" smooth="yes"/>
      <point x="801" y="-138"/>
      <point x="967" y="26"/>
      <point x="967" y="266" type="curve" smooth="yes"/>
      <point x="967" y="506.594"/>
      <point x="802" y="671"/>
      <point x="562" y="671" type="curve" smooth="yes"/>
      <point x="322" y="671"/>
      <point x="157" y="506.594"/>
    </contour>
    <contour>
      <point x="294" y="0" type="line"/>
      <point x="294" y="542" type="line"/>
      <point x="558" y="542" type="line" smooth="yes"/>
      <point x="664" y="542"/>
      <point x="848" y="534.079"/>
      <point x="848" y="370" type="curve" smooth="yes"/>
      <point x="848" y="280.969"/>
      <point x="788" y="237.031"/>
      <point x="713" y="222" type="curve"/>
      <point x="869" y="0" type="line"/>
      <point x="690" y="0" type="line"/>
      <point x="557" y="211" type="line"/>
      <point x="454" y="211" type="line"/>
      <point x="454" y="0" type="line"/>
    </contour>
    <contour>
      <point x="454" y="302" type="line"/>
      <point x="567" y="302" type="line" smooth="yes"/>
      <point x="625.313" y="302"/>
      <point x="694" y="303.237"/>
      <point x="694" y="370" type="curve" smooth="yes"/>
      <point x="694" y="424.918"/>
      <point x="653" y="439"/>
      <point x="568" y="439" type="curve" smooth="yes"/>
      <point x="454" y="439" type="line"/>
    </contour>
  </outline>
</glyph>
<glyph name="macron" format="2">
  <advance width="441"/>
  <unicode hex="00AF"/>
  <anchor x="221" y="550" name="top"/>
  <outline>
    <contour>
      <point x="50.5526" y="550" type="line"/>
      <point x="50.5526" y="650" type="line"/>
      <point x="390.553" y="650" type="line"/>
      <point x="390.553" y="550" type="line"/>
    </contour>
  </outline>
</glyph>
<glyph name="degree" format="2">
  <advance width="367"/>
  <unicode hex="00B0"/>
  <outline>
    <contour>
      <point x="51" y="566" type="curve" smooth="yes"/>
      <point x="51" y="651"/>
      <point x="104" y="695"/>
      <point x="179" y="695" type="curve" smooth="yes"/>
      <point x="258" y="695"/>
      <point x="308" y="648"/>
      <point x="308" y="567" type="curve" smooth="yes"/>
      <point x="308" y="480"/>
      <point x="255" y="437"/>
      <point x="179" y="437" type="curve" smooth="yes"/>
      <point x="95" y="437"/>
      <point x="51" y="491"/>
    </contour>
    <contour>
      <point x="151" y="566" type="curve" smooth="yes"/>
      <point x="151" y="542"/>
      <point x="164" y="538"/>
      <point x="181" y="538" type="curve" smooth="yes"/>
      <point x="203" y="538"/>
      <point x="208" y="550"/>
      <point x="208" y="567" type="curve" smooth="yes"/>
      <point x="208" y="585"/>
      <point x="201" y="594"/>
      <point x="181" y="594" type="curve" smooth="yes"/>
      <point x="165" y="594"/>
      <point x="151" y="591"/>
    </contour>
  </outline>
</glyph>
<glyph name="plusminus" format="2">
  <advance width="672"/>
  <unicode hex="00B1"/>
  <outline>
    <contour>
      <point x="53" y="178" type="line"/>
      <point x="280" y="178" type="line"/>
      <point x="280" y="305" type="line"/>
      <point x="53" y="305" type="line"/>
      <point x="53" y="405" type="line"/>
      <point x="280" y="405" type="line"/>
      <point x="280" y="632" type="line"/>
      <point x="381" y="632" type="line"/>
      <point x="381" y="405" type="line"/>
      <point x="606" y="405" type="line"/>
      <point x="606" y="305" type="line"/>
      <point x="381" y="305" type="line"/>
      <point x="381" y="178" type="line"/>
      <point x="606" y="178" type="line"/>
      <point x="606" y="78" type="line"/>
      <point x="53" y="78" type="line"/>
    </contour>
  </outline>
</glyph>
<glyph name="uni00B2" format="2">
  <advance width="489"/>
  <unicode hex="00B2"/>
  <outline>
    <contour>
      <point x="42" y="718" type="curve"/>
      <point x="98" y="752"/>
      <point x="148" y="771"/>
      <point x="223" y="771" type="curve" smooth="yes"/>
      <point x="346" y="771"/>
      <point x="433" y="705"/>
      <point x="433" y="607" type="curve" smooth="yes"/>
      <point x="433" y="541"/>
      <point x="375" y="525"/>
      <point x="314" y="508" type="curve" smooth="yes"/>
      <point x="272" y="496"/>
      <point x="291" y="505"/>
      <point x="190" y="461" type="curve"/>
      <point x="275" y="461" type="line" smooth="yes"/>
      <point x="282" y="461"/>
      <point x="290" y="462"/>
      <point x="297" y="462" type="curve" smooth="yes"/>
      <point x="433" y="462" type="line"/>
      <point x="433" y="337" type="line"/>
      <point x="46" y="337" type="line"/>
      <point x="46" y="456" type="line"/>
      <point x="79" y="474"/>
      <point x="111" y="491"/>
      <point x="144" y="509" type="curve"/>
      <point x="208" y="530"/>
      <point x="276" y="559"/>
      <point x="276" y="604" type="curve" smooth="yes"/>
      <point x="276" y="633"/>
      <point x="249" y="653"/>
      <point x="208" y="653" type="curve" smooth="yes"/>
      <point x="155" y="653"/>
      <point x="122" y="618"/>
      <point x="110" y="606" type="curve"/>
      <point x="86" y="639"/>
      <point x="63" y="671"/>
      <point x="39" y="704" type="curve"/>
      <point x="40" y="709"/>
      <point x="41" y="713"/>
    </contour>
  </outline>
</glyph>
<glyph name="uni00B3" format="2">
  <advance width="489"/>
  <unicode hex="00B3"/>
  <outline>
    <contour>
      <point x="35" y="326" type="curve"/>
      <point x="53" y="435" type="line"/>
      <point x="107" y="436"/>
      <point x="162" y="438"/>
      <point x="216" y="438" type="curve" smooth="yes"/>
      <point x="255" y="438"/>
      <point x="279" y="440"/>
      <point x="279" y="473" type="curve" smooth="yes"/>
      <point x="279" y="501"/>
      <point x="261" y="508"/>
      <point x="232" y="508" type="curve" smooth="yes"/>
      <point x="171" y="508" type="line"/>
      <point x="171" y="597" type="line"/>
      <point x="208" y="605"/>
      <point x="257" y="601"/>
      <point x="257" y="643" type="curve" smooth="yes"/>
      <point x="257" y="661"/>
      <point x="244" y="664"/>
      <point x="229" y="664" type="curve" smooth="yes"/>
      <point x="181" y="664"/>
      <point x="148" y="654"/>
      <point x="106" y="637" type="curve"/>
      <point x="47" y="729" type="line"/>
      <point x="110" y="756"/>
      <point x="167" y="771"/>
      <point x="229" y="771" type="curve" smooth="yes"/>
      <point x="360" y="771"/>
      <point x="413" y="719"/>
      <point x="413" y="641" type="curve" smooth="yes"/>
      <point x="413" y="598"/>
      <point x="390" y="572"/>
      <point x="370" y="557" type="curve"/>
      <point x="404" y="544"/>
      <point x="442" y="519"/>
      <point x="442" y="471" type="curve" smooth="yes"/>
      <point x="442" y="465"/>
      <point x="441" y="457"/>
      <point x="439" y="448" type="curve" smooth="yes"/>
      <point x="418" y="349"/>
      <point x="310" y="327"/>
      <point x="209" y="327" type="curve" smooth="yes"/>
      <point x="151" y="327"/>
      <point x="93" y="326"/>
    </contour>
  </outline>
</glyph>
<glyph name="acute" format="2">
  <advance width="408"/>
  <unicode hex="00B4"/>
  <anchor x="120" y="550" name="_top"/>
  <outline>
    <contour>
      <point x="69" y="550" type="line"/>
      <point x="177" y="720" type="line"/>
      <point x="341" y="720" type="line"/>
      <point x="161" y="550" type="line"/>
    </contour>
  </outline>
  <guideline angle="0" x="0" y="720"/>
</glyph>
<glyph name="mu" format="2">
  <advance width="561"/>
  <unicode hex="00B5"/>
  <outline>
    <contour>
      <point x="52" y="-162" type="line"/>
      <point x="52" y="478" type="line"/>
      <point x="204" y="478" type="line"/>
      <point x="204" y="126" type="line"/>
      <point x="205" y="83"/>
      <point x="206" y="68"/>
      <point x="256" y="68" type="curve" smooth="yes"/>
      <point x="296" y="68"/>
      <point x="348" y="96"/>
      <point x="348" y="180" type="curve" smooth="yes"/>
      <point x="348" y="478" type="line"/>
      <point x="500" y="478" type="line"/>
      <point x="500" y="0" type="line"/>
      <point x="351" y="0" type="line"/>
      <point x="351" y="56" type="line"/>
      <point x="318" y="15"/>
      <point x="278" y="-1"/>
      <point x="245" y="-7" type="curve" smooth="yes" name=".hr01"/>
      <point x="229" y="-10"/>
      <point x="214" y="-11"/>
      <point x="204" y="-11" type="curve"/>
      <point x="204" y="-162" type="line"/>
    </contour>
  </outline>
</glyph>
<glyph name="paragraph" format="2">
  <advance width="672"/>
  <unicode hex="00B6"/>
  <outline>
    <contour>
      <point x="54" y="455" type="curve" smooth="yes"/>
      <point x="54" y="571"/>
      <point x="149" y="695"/>
      <point x="342" y="695" type="curve" smooth="yes"/>
      <point x="637" y="695" type="line"/>
      <point x="637" y="594" type="line"/>
      <point x="547" y="594" type="line"/>
      <point x="547" y="-161" type="line"/>
      <point x="447" y="-161" type="line"/>
      <point x="447" y="594" type="line"/>
      <point x="392" y="594" type="line"/>
      <point x="392" y="-161" type="line"/>
      <point x="292" y="-161" type="line"/>
      <point x="292" y="219" type="line"/>
      <point x="132" y="242"/>
      <point x="54" y="349"/>
    </contour>
  </outline>
</glyph>
<glyph name="periodcentered" format="2">
  <advance width="219"/>
  <unicode hex="00B7"/>
  <outline>
    <contour>
      <point x="43" y="189" type="line"/>
      <point x="43" y="317" type="line"/>
      <point x="172" y="317" type="line"/>
      <point x="172" y="189" type="line"/>
    </contour>
  </outline>
</glyph>
<glyph name="cedilla" format="2">
  <advance width="489"/>
  <unicode hex="00B8"/>
  <outline>
    <contour>
      <point x="97" y="-163" type="line"/>
      <point x="199" y="-3" type="line"/>
      <point x="289" y="-3" type="line"/>
      <point x="221" y="-163" type="line"/>
    </contour>
  </outline>
</glyph>
<glyph name="uni00B9" format="2">
  <advance width="489"/>
  <unicode hex="00B9"/>
  <outline>
    <contour>
      <point x="68" y="607" type="curve"/>
      <point x="68" y="698" type="line"/>
      <point x="199" y="699"/>
      <point x="249" y="739"/>
      <point x="282" y="771" type="curve"/>
      <point x="329" y="771" type="line"/>
      <point x="329" y="428" type="line"/>
      <point x="414" y="428" type="line"/>
      <point x="414" y="337" type="line"/>
      <point x="83" y="337" type="line"/>
      <point x="83" y="428" type="line"/>
      <point x="175" y="428" type="line"/>
      <point x="175" y="618" type="line"/>
      <point x="148" y="612"/>
      <point x="118" y="607"/>
    </contour>
  </outline>
</glyph>
<glyph name="ordmasculine" format="2">
  <advance width="489"/>
  <unicode hex="00BA"/>
  <outline>
    <contour>
      <point x="23" y="552" type="curve" smooth="yes"/>
      <point x="23" y="722"/>
      <point x="128" y="765"/>
      <point x="242" y="765" type="curve" smooth="yes"/>
      <point x="349" y="765"/>
      <point x="457" y="723"/>
      <point x="457" y="552" type="curve" smooth="yes"/>
      <point x="457" y="396"/>
      <point x="356" y="358"/>
      <point x="256" y="354" type="curve"/>
      <point x="151" y="354"/>
      <point x="23" y="374"/>
    </contour>
    <contour>
      <point x="37" y="213" type="line"/>
      <point x="37" y="303" type="line"/>
      <point x="456" y="303" type="line"/>
      <point x="456" y="213" type="line"/>
    </contour>
    <contour>
      <point x="174" y="554" type="curve" smooth="yes"/>
      <point x="174" y="485"/>
      <point x="184" y="449"/>
      <point x="240" y="449" type="curve" smooth="yes"/>
      <point x="302" y="449"/>
      <point x="305" y="493"/>
      <point x="305" y="573" type="curve" smooth="yes"/>
      <point x="305" y="644"/>
      <point x="293" y="674"/>
      <point x="240" y="674" type="curve" smooth="yes"/>
      <point x="178" y="674"/>
      <point x="174" y="620"/>
    </contour>
  </outline>
</glyph>
<glyph name="guillemotright" format="2">
  <advance width="733"/>
  <unicode hex="00BB"/>
  <outline>
    <contour>
      <point x="89" y="0" type="line"/>
      <point x="296" y="239" type="line"/>
      <point x="89" y="479" type="line"/>
      <point x="218" y="479" type="line"/>
      <point x="433" y="239" type="line"/>
      <point x="218" y="0" type="line"/>
    </contour>
    <contour>
      <point x="314" y="0" type="line"/>
      <point x="521" y="239" type="line"/>
      <point x="314" y="479" type="line"/>
      <point x="445" y="479" type="line"/>
      <point x="658" y="239" type="line"/>
      <point x="445" y="0" type="line"/>
    </contour>
  </outline>
</glyph>
<glyph name="onequarter" format="2">
  <advance width="489"/>
  <unicode hex="00BC"/>
  <outline>
    <contour>
      <point x="21" y="243" type="line"/>
      <point x="21" y="344" type="line"/>
      <point x="464" y="344" type="line"/>
      <point x="464" y="243" type="line"/>
    </contour>
    <contour>
      <point x="44" y="-32" type="line"/>
      <point x="214" y="182" type="line"/>
      <point x="391" y="182" type="line"/>
      <point x="391" y="-25" type="line"/>
      <point x="438" y="-25" type="line"/>
      <point x="438" y="-137" type="line"/>
      <point x="391" y="-137" type="line"/>
      <point x="391" y="-162" type="line"/>
      <point x="251" y="-162" type="line"/>
      <point x="251" y="-137" type="line"/>
      <point x="44" y="-137" type="line"/>
    </contour>
    <contour>
      <point x="69" y="648" type="curve"/>
      <point x="69" y="739" type="line"/>
      <point x="306" y="739"/>
      <point x="251" y="771"/>
      <point x="330" y="771" type="curve" name=".hr01"/>
      <point x="330" y="496" type="line"/>
      <point x="415" y="496" type="line"/>
      <point x="415" y="405" type="line"/>
      <point x="83" y="405" type="line"/>
      <point x="83" y="496" type="line"/>
      <point x="176" y="496" type="line"/>
      <point x="176" y="652" type="line"/>
      <point x="121" y="647"/>
      <point x="93" y="648"/>
    </contour>
    <contour>
      <point x="188" y="-25" type="line"/>
      <point x="256" y="-25" type="line"/>
      <point x="256" y="59" type="line"/>
    </contour>
  </outline>
</glyph>
<glyph name="onehalf" format="2">
  <advance width="489"/>
  <unicode hex="00BD"/>
  <outline>
    <contour>
      <point x="21" y="243" type="line"/>
      <point x="21" y="344" type="line"/>
      <point x="464" y="344" type="line"/>
      <point x="464" y="243" type="line"/>
    </contour>
    <contour>
      <point x="36" y="177" type="line"/>
      <point x="111.463" y="196.067"/>
      <point x="153.977" y="203"/>
      <point x="222" y="203" type="curve" smooth="yes"/>
      <point x="396" y="203"/>
      <point x="435" y="127"/>
      <point x="435" y="73" type="curve" smooth="yes"/>
      <point x="435" y="-12"/>
      <point x="289" y="-29"/>
      <point x="212" y="-59" type="curve"/>
      <point x="197" y="-66" type="line"/>
      <point x="435" y="-66" type="line"/>
      <point x="435" y="-162" type="line"/>
      <point x="48" y="-162" type="line"/>
      <point x="48" y="-76" type="line"/>
      <point x="147" y="-20" type="line" smooth="yes"/>
      <point x="202" y="10"/>
      <point x="278" y="34.9066"/>
      <point x="278" y="71" type="curve" smooth="yes"/>
      <point x="278" y="87"/>
      <point x="266" y="113"/>
      <point x="208" y="113" type="curve" smooth="yes"/>
      <point x="163" y="113"/>
      <point x="137" y="96"/>
      <point x="109" y="77" type="curve"/>
    </contour>
    <contour>
      <point x="69" y="648" type="curve"/>
      <point x="69" y="739" type="line"/>
      <point x="306" y="739"/>
      <point x="251" y="771"/>
      <point x="330" y="771" type="curve"/>
      <point x="330" y="496" type="line"/>
      <point x="415" y="496" type="line"/>
      <point x="415" y="405" type="line"/>
      <point x="83" y="405" type="line"/>
      <point x="83" y="496" type="line"/>
      <point x="176" y="496" type="line"/>
      <point x="176" y="652" type="line"/>
      <point x="121" y="647"/>
      <point x="93" y="648"/>
    </contour>
  </outline>
</glyph>
<glyph name="threequarters" format="2">
  <advance width="489"/>
  <unicode hex="00BE"/>
  <outline>
    <contour>
      <point x="21" y="243" type="line"/>
      <point x="21" y="344" type="line"/>
      <point x="464" y="344" type="line"/>
      <point x="464" y="243" type="line"/>
    </contour>
    <contour>
      <point x="36" y="413" type="curve"/>
      <point x="55" y="525" type="line"/>
      <point x="132" y="502.548"/>
      <point x="190" y="496"/>
      <point x="227" y="496" type="curve" smooth="yes"/>
      <point x="262.057" y="496"/>
      <point x="280" y="501" name=".hr01"/>
      <point x="280" y="515" type="curve" smooth="yes"/>
      <point x="280" y="531"/>
      <point x="261" y="534"/>
      <point x="239" y="534" type="curve" smooth="yes"/>
      <point x="173" y="534" type="line"/>
      <point x="173" y="625" type="line"/>
      <point x="200" y="626"/>
      <point x="258" y="629" name=".hr02"/>
      <point x="258" y="652" type="curve" smooth="yes"/>
      <point x="258" y="663"/>
      <point x="242.194" y="664"/>
      <point x="223" y="664" type="curve" smooth="yes"/>
      <point x="184.333" y="664"/>
      <point x="145.667" y="655"/>
      <point x="107" y="645" type="curve"/>
      <point x="48" y="757" type="line"/>
      <point x="111" y="766"/>
      <point x="172" y="771"/>
      <point x="227" y="771" type="curve" smooth="yes"/>
      <point x="305" y="771"/>
      <point x="415" y="750"/>
      <point x="415" y="652" type="curve" smooth="yes"/>
      <point x="415" y="614"/>
      <point x="399" y="596"/>
      <point x="382" y="583" type="curve"/>
      <point x="410" y="572"/>
      <point x="444" y="553"/>
      <point x="444" y="513" type="curve" smooth="yes"/>
      <point x="444" y="402.288"/>
      <point x="323.057" y="384"/>
      <point x="245" y="384" type="curve" smooth="yes"/>
      <point x="199" y="384"/>
      <point x="139" y="387.742"/>
    </contour>
    <contour>
      <point x="44" y="-32" type="line"/>
      <point x="214" y="182" type="line"/>
      <point x="391" y="182" type="line"/>
      <point x="391" y="-25" type="line"/>
      <point x="438" y="-25" type="line"/>
      <point x="438" y="-137" type="line"/>
      <point x="391" y="-137" type="line"/>
      <point x="391" y="-162" type="line"/>
      <point x="251" y="-162" type="line"/>
      <point x="251" y="-137" type="line"/>
      <point x="44" y="-137" type="line"/>
    </contour>
    <contour>
      <point x="188" y="-25" type="line"/>
      <point x="256" y="-25" type="line"/>
      <point x="256" y="59" type="line"/>
    </contour>
  </outline>
</glyph>
<glyph name="questiondown" format="2">
  <advance width="519"/>
  <unicode hex="00BF"/>
  <outline>
    <contour>
      <point x="52" y="-18" type="curve" smooth="yes"/>
      <point x="52" y="60"/>
      <point x="84" y="88"/>
      <point x="106" y="107" type="curve"/>
      <point x="106" y="106" type="line"/>
      <point x="150" y="172"/>
      <point x="180" y="198"/>
      <point x="180" y="280" type="curve" smooth="yes"/>
      <point x="180" y="322" type="line"/>
      <point x="301" y="322" type="line"/>
      <point x="301" y="280" type="line" smooth="yes"/>
      <point x="301" y="235"/>
      <point x="302" y="168"/>
      <point x="224" y="51" type="curve"/>
      <point x="224" y="52" type="line"/>
      <point x="210" y="29"/>
      <point x="205" y="20"/>
      <point x="205" y="-20" type="curve" smooth="yes"/>
      <point x="205" y="-68"/>
      <point x="207" y="-83"/>
      <point x="241" y="-83" type="curve" smooth="yes"/>
      <point x="263" y="-83"/>
      <point x="283" y="-81"/>
      <point x="301" y="-76" type="curve" smooth="yes"/>
      <point x="380" y="-55"/>
      <point x="398" y="-15"/>
      <point x="422" y="-15" type="curve"/>
      <point x="459" y="-121" type="line"/>
      <point x="350" y="-171"/>
      <point x="277" y="-173"/>
      <point x="250" y="-173" type="curve" smooth="yes"/>
      <point x="153" y="-173"/>
      <point x="52" y="-158"/>
    </contour>
    <contour>
      <point x="167" y="386" type="line"/>
      <point x="167" y="533" type="line" name=".hr01"/>
      <point x="314" y="533" type="line"/>
      <point x="314" y="386" type="line"/>
    </contour>
  </outline>
</glyph>
<glyph name="Aring" format="2">
  <advance width="733"/>
  <unicode hex="00C5"/>
  <outline>
    <contour>
      <point x="21" y="0" type="line"/>
      <point x="244" y="637" type="line"/>
      <point x="219" y="663"/>
      <point x="207" y="701"/>
      <point x="207" y="748" type="curve" smooth="yes"/>
      <point x="207" y="825"/>
      <point x="231" y="896"/>
      <point x="337" y="897" type="curve" smooth="yes"/>
      <point x="406" y="896"/>
      <point x="440" y="865"/>
      <point x="455" y="821" type="curve" smooth="yes"/>
      <point x="463" y="799"/>
      <point x="465" y="774"/>
      <point x="465" y="749" type="curve" smooth="yes"/>
      <point x="465" y="719"/>
      <point x="461" y="705"/>
      <point x="458" y="694" type="curve"/>
      <point x="700" y="0" type="line"/>
      <point x="531" y="0" type="line"/>
      <point x="479" y="146" type="line"/>
      <point x="224" y="146" type="line"/>
      <point x="173" y="0" type="line"/>
    </contour>
    <contour>
      <point x="260" y="250" type="curve"/>
      <point x="444" y="250" type="line"/>
      <point x="421" y="319"/>
      <point x="395" y="391"/>
      <point x="372" y="461" type="curve" smooth="yes"/>
      <point x="355" y="513" type="line"/>
      <point x="354" y="518"/>
      <point x="353" y="522"/>
      <point x="352" y="527" type="curve"/>
      <point x="338" y="478"/>
      <point x="314" y="414"/>
    </contour>
    <contour>
      <point x="287" y="754" type="curve" smooth="yes"/>
      <point x="287" y="720"/>
      <point x="289" y="696"/>
      <point x="333" y="695" type="curve"/>
      <point x="363" y="696"/>
      <point x="386" y="695"/>
      <point x="386" y="746" type="curve" smooth="yes"/>
      <point x="386" y="781"/>
      <point x="384" y="806"/>
      <point x="339" y="807" type="curve" smooth="yes"/>
      <point x="305" y="807"/>
      <point x="287" y="802"/>
    </contour>
  </outline>
</glyph>
<glyph name="AE" format="2">
  <advance width="947"/>
  <unicode hex="00C6"/>
  <outline>
    <contour>
      <point x="22" y="0" type="line"/>
      <point x="274" y="695" type="line"/>
      <point x="876" y="695" type="line"/>
      <point x="876" y="573" type="line"/>
      <point x="606" y="576" type="line"/>
      <point x="606" y="417" type="line"/>
      <point x="846" y="417" type="line"/>
      <point x="846" y="305" type="line"/>
      <point x="606" y="305" type="line"/>
      <point x="606" y="123" type="line"/>
      <point x="853" y="126" type="line" smooth="yes"/>
      <point x="866" y="126"/>
      <point x="878" y="127"/>
      <point x="891" y="127" type="curve"/>
      <point x="891" y="0" type="line"/>
      <point x="444" y="0" type="line"/>
      <point x="444" y="186" type="line"/>
      <point x="241" y="186" type="line"/>
      <point x="174" y="0" type="line"/>
    </contour>
    <contour>
      <point x="280" y="290" type="curve"/>
      <point x="444" y="290" type="line"/>
      <point x="444" y="577" type="line"/>
      <point x="383" y="577" type="line"/>
      <point x="347" y="477"/>
      <point x="317" y="391"/>
    </contour>
  </outline>
</glyph>
<glyph name="Eth" format="2">
  <advance width="794"/>
  <unicode hex="00D0"/>
  <outline>
    <contour>
      <point x="-5" y="296" type="line"/>
      <point x="-5" y="387" type="line"/>
      <point x="85" y="387" type="line"/>
      <point x="85" y="695" type="line"/>
      <point x="376" y="695" type="line"/>
      <point x="376" y="695" type="line"/>
      <point x="568" y="695"/>
      <point x="727" y="629"/>
      <point x="727" y="340" type="curve" smooth="yes"/>
      <point x="727" y="42"/>
      <point x="541" y="0"/>
      <point x="376" y="0" type="curve" smooth="yes"/>
      <point x="85" y="0" type="line"/>
      <point x="85" y="296" type="line"/>
    </contour>
    <contour>
      <point x="245" y="104" type="line"/>
      <point x="336" y="104" type="line" smooth="yes"/>
      <point x="408" y="104"/>
      <point x="488" y="108"/>
      <point x="534" y="176" type="curve"/>
      <point x="534" y="175" type="line"/>
      <point x="561" y="217"/>
      <point x="566" y="270"/>
      <point x="567" y="321" type="curve" smooth="yes"/>
      <point x="567" y="558"/>
      <point x="454" y="591"/>
      <point x="344" y="591" type="curve" smooth="yes"/>
      <point x="245" y="591" type="line"/>
      <point x="245" y="387" type="line"/>
      <point x="401" y="387" type="line"/>
      <point x="401" y="296" type="line"/>
      <point x="245" y="296" type="line"/>
    </contour>
  </outline>
</glyph>
<glyph name="multiply" format="2">
  <advance width="672"/>
  <unicode hex="00D7"/>
  <outline>
    <contour>
      <point x="120" y="105" type="curve" smooth="yes"/>
      <point x="120" y="110"/>
      <point x="121" y="115"/>
      <point x="124" y="121" type="curve" smooth="yes"/>
      <point x="140" y="154"/>
      <point x="177" y="178"/>
      <point x="260" y="266" type="curve"/>
      <point x="204" y="323" type="line" smooth="yes"/>
      <point x="121" y="404"/>
      <point x="120" y="404"/>
      <point x="120" y="427" type="curve" smooth="yes"/>
      <point x="120" y="435"/>
      <point x="122" y="442"/>
      <point x="126" y="449" type="curve" smooth="yes"/>
      <point x="134" y="463"/>
      <point x="148" y="473"/>
      <point x="164" y="476" type="curve"/>
      <point x="203" y="476"/>
      <point x="181" y="487"/>
      <point x="331" y="337" type="curve"/>
      <point x="463" y="475"/>
      <point x="468" y="476"/>
      <point x="491" y="476" type="curve" smooth="yes"/>
      <point x="518" y="476"/>
      <point x="541" y="456"/>
      <point x="541" y="427" type="curve"/>
      <point x="541" y="427" type="line"/>
      <point x="541" y="394"/>
      <point x="520" y="386"/>
      <point x="401" y="265" type="curve"/>
      <point x="459" y="209" type="line" smooth="yes"/>
      <point x="541" y="128"/>
      <point x="541" y="128"/>
      <point x="541" y="106" type="curve" smooth="yes"/>
      <point x="541" y="72"/>
      <point x="518" y="61"/>
      <point x="502" y="57" type="curve" smooth="yes"/>
      <point x="494" y="55"/>
      <point x="488" y="55"/>
      <point x="488" y="55" type="curve"/>
      <point x="455" y="58"/>
      <point x="435" y="92"/>
      <point x="330" y="194" type="curve"/>
      <point x="274" y="137" type="line" smooth="yes"/>
      <point x="199" y="62"/>
      <point x="196" y="55"/>
      <point x="171" y="55" type="curve" smooth="yes"/>
      <point x="145" y="55"/>
      <point x="120" y="79"/>
    </contour>
  </outline>
</glyph>
<glyph name="Oslash" format="2">
  <advance width="856"/>
  <unicode hex="00D8"/>
  <outline>
    <contour>
      <point x="55" y="342" type="curve" smooth="yes"/>
      <point x="55" y="641"/>
      <point x="231" y="716"/>
      <point x="420" y="716" type="curve" smooth="yes"/>
      <point x="475" y="716"/>
      <point x="523" y="710"/>
      <point x="570" y="696" type="curve"/>
      <point x="607" y="758" type="line"/>
      <point x="689" y="710" type="line"/>
      <point x="656" y="653" type="line"/>
      <point x="744" y="593"/>
      <point x="786" y="484"/>
      <point x="786" y="340" type="curve" smooth="yes"/>
      <point x="786" y="155"/>
      <point x="713" y="-21"/>
      <point x="421" y="-21" type="curve" smooth="yes"/>
      <point x="371" y="-21"/>
      <point x="319" y="-17"/>
      <point x="270" y="-3" type="curve"/>
      <point x="260" y="-22"/>
      <point x="245" y="-46"/>
      <point x="235" y="-63" type="curve"/>
      <point x="152" y="-16" type="line"/>
      <point x="184" y="39" type="line"/>
      <point x="101" y="97"/>
      <point x="55" y="198"/>
    </contour>
    <contour>
      <point x="200" y="321" type="curve"/>
      <point x="202" y="263"/>
      <point x="208" y="195"/>
      <point x="243" y="143" type="curve"/>
      <point x="334" y="297"/>
      <point x="429" y="454"/>
      <point x="520" y="609" type="curve"/>
      <point x="493" y="619"/>
      <point x="459" y="626"/>
      <point x="420" y="626" type="curve" smooth="yes"/>
      <point x="205" y="626"/>
      <point x="200" y="456"/>
    </contour>
    <contour>
      <point x="321" y="84" type="curve"/>
      <point x="347" y="74"/>
      <point x="376" y="68"/>
      <point x="421" y="68" type="curve" smooth="yes"/>
      <point x="639" y="68"/>
      <point x="641" y="241"/>
      <point x="641" y="348" type="curve" smooth="yes"/>
      <point x="641" y="424"/>
      <point x="637" y="490"/>
      <point x="596" y="551" type="curve"/>
      <point x="507" y="398"/>
      <point x="410" y="236"/>
    </contour>
  </outline>
</glyph>
<glyph name="Thorn" format="2">
  <advance width="642"/>
  <unicode hex="00DE"/>
  <outline>
    <contour>
      <point x="83" y="0" type="line"/>
      <point x="83" y="695" type="line"/>
      <point x="241" y="695" type="line"/>
      <point x="241" y="595" type="line"/>
      <point x="331" y="595" type="line" smooth="yes"/>
      <point x="371" y="595"/>
      <point x="419" y="594"/>
      <point x="463" y="577" type="curve" smooth="yes"/>
      <point x="548" y="542"/>
      <point x="578" y="467"/>
      <point x="578" y="387" type="curve" smooth="yes"/>
      <point x="578" y="179"/>
      <point x="413" y="175"/>
      <point x="337" y="175" type="curve" smooth="yes"/>
      <point x="241" y="175" type="line"/>
      <point x="241" y="0" type="line"/>
    </contour>
    <contour>
      <point x="241" y="279" type="line"/>
      <point x="305" y="279" type="line" smooth="yes"/>
      <point x="360" y="279"/>
      <point x="423" y="281"/>
      <point x="423" y="385" type="curve" smooth="yes"/>
      <point x="423" y="488"/>
      <point x="339" y="491"/>
      <point x="306" y="491" type="curve" smooth="yes"/>
      <point x="242" y="491" type="line"/>
      <point x="242" y="483"/>
      <point x="241" y="475"/>
      <point x="241" y="467" type="curve" smooth="yes"/>
    </contour>
  </outline>
</glyph>
<glyph name="germandbls" format="2">
  <advance width="565"/>
  <unicode hex="00DF"/>
  <outline>
    <contour>
      <point x="54" y="0" type="line"/>
      <point x="54" y="547" type="line" smooth="yes"/>
      <point x="54" y="667"/>
      <point x="147" y="696"/>
      <point x="275" y="696" type="curve" smooth="yes"/>
      <point x="341" y="696"/>
      <point x="498" y="693"/>
      <point x="498" y="556" type="curve" smooth="yes"/>
      <point x="498" y="529"/>
      <point x="491" y="466"/>
      <point x="432" y="424" type="curve"/>
      <point x="493" y="380"/>
      <point x="527" y="300" name=".hr01"/>
      <point x="527" y="193" type="curve" smooth="yes"/>
      <point x="527" y="30"/>
      <point x="422" y="-11"/>
      <point x="318" y="-11" type="curve" smooth="yes"/>
      <point x="269" y="-11"/>
      <point x="232" y="2"/>
      <point x="210" y="11" type="curve"/>
      <point x="240" y="94" type="line"/>
      <point x="260" y="86"/>
      <point x="284" y="79"/>
      <point x="311" y="79" type="curve" smooth="yes"/>
      <point x="378" y="79"/>
      <point x="378" y="144"/>
      <point x="378" y="189" type="curve" smooth="yes"/>
      <point x="378" y="357"/>
      <point x="311" y="380"/>
      <point x="241" y="384" type="curve"/>
      <point x="241" y="472" type="line"/>
      <point x="282" y="473"/>
      <point x="317" y="479"/>
      <point x="335" y="503" type="curve" smooth="yes" name=".hr02"/>
      <point x="344" y="515"/>
      <point x="349" y="532"/>
      <point x="349" y="555" type="curve" smooth="yes"/>
      <point x="349" y="607"/>
      <point x="306" y="607"/>
      <point x="284" y="607" type="curve" smooth="yes"/>
      <point x="226" y="607"/>
      <point x="202" y="601"/>
      <point x="202" y="549" type="curve" smooth="yes"/>
      <point x="202" y="0" type="line"/>
    </contour>
  </outline>
</glyph>
<glyph name="ae" format="2">
  <advance width="794"/>
  <unicode hex="00E6"/>
  <outline>
    <contour>
      <point x="27" y="136" type="curve" smooth="yes"/>
      <point x="27" y="276"/>
      <point x="257" y="283"/>
      <point x="313" y="285" type="curve"/>
      <point x="313" y="319" type="line" smooth="yes"/>
      <point x="313" y="349"/>
      <point x="310" y="405"/>
      <point x="255" y="405" type="curve" smooth="yes"/>
      <point x="233" y="405"/>
      <point x="213" y="401"/>
      <point x="195" y="395" type="curve" smooth="yes"/>
      <point x="142" y="377"/>
      <point x="107" y="340"/>
      <point x="86" y="319" type="curve"/>
      <point x="77" y="443" type="line"/>
      <point x="136" y="473"/>
      <point x="183" y="488"/>
      <point x="257" y="488" type="curve" smooth="yes"/>
      <point x="323" y="488"/>
      <point x="366" y="482"/>
      <point x="405" y="453" type="curve"/>
      <point x="452" y="484"/>
      <point x="512" y="488"/>
      <point x="550" y="488" type="curve" smooth="yes"/>
      <point x="723" y="488"/>
      <point x="750" y="366"/>
      <point x="750" y="240" type="curve" name=".hr01"/>
      <point x="464" y="240" type="line"/>
      <point x="464" y="182"/>
      <point x="469" y="131"/>
      <point x="506" y="100" type="curve"/>
      <point x="505" y="100" type="line"/>
      <point x="523" y="84"/>
      <point x="544" y="79"/>
      <point x="568" y="79" type="curve" smooth="yes"/>
      <point x="653" y="79"/>
      <point x="717" y="139"/>
      <point x="735" y="154" type="curve"/>
      <point x="744" y="40" type="line"/>
      <point x="700" y="15"/>
      <point x="659" y="-1"/>
      <point x="612" y="-8" type="curve" smooth="yes"/>
      <point x="596" y="-10"/>
      <point x="580" y="-11"/>
      <point x="563" y="-11" type="curve" smooth="yes"/>
      <point x="462" y="-11"/>
      <point x="415" y="20"/>
      <point x="390" y="39" type="curve"/>
      <point x="323" y="-7"/>
      <point x="216" y="-11"/>
      <point x="174" y="-11" type="curve" smooth="yes"/>
      <point x="72" y="-11"/>
      <point x="27" y="74"/>
    </contour>
    <contour>
      <point x="172" y="136" type="curve" smooth="yes"/>
      <point x="172" y="119"/>
      <point x="185" y="79"/>
      <point x="232" y="79" type="curve" smooth="yes"/>
      <point x="281" y="79"/>
      <point x="329" y="102"/>
      <point x="329" y="128" type="curve" smooth="yes"/>
      <point x="329" y="129"/>
      <point x="328" y="135"/>
      <point x="326" y="142" type="curve"/>
      <point x="327" y="142" type="line"/>
      <point x="321" y="157"/>
      <point x="315" y="179"/>
      <point x="314" y="212" type="curve"/>
      <point x="199" y="203" name=".hr02"/>
      <point x="172" y="166"/>
    </contour>
    <contour>
      <point x="469" y="311" type="curve"/>
      <point x="618" y="311" type="line"/>
      <point x="613" y="348" name=".hr03"/>
      <point x="596" y="399"/>
      <point x="550" y="399" type="curve" smooth="yes"/>
      <point x="493" y="399"/>
      <point x="474" y="340"/>
    </contour>
  </outline>
</glyph>
<glyph name="eth" format="2">
  <advance width="550"/>
  <unicode hex="00F0"/>
  <outline>
    <contour>
      <point x="25" y="231" type="curve" smooth="yes"/>
      <point x="25" y="437"/>
      <point x="144" y="488"/>
      <point x="267" y="488" type="curve" smooth="yes"/>
      <point x="279" y="488"/>
      <point x="271" y="489"/>
      <point x="284" y="488" type="curve"/>
      <point x="270" y="505"/>
      <point x="257" y="518"/>
      <point x="241" y="531" type="curve"/>
      <point x="214" y="516" type="line"/>
      <point x="197" y="544" type="line"/>
      <point x="184" y="567"/>
      <point x="180" y="572"/>
      <point x="171" y="577" type="curve"/>
      <point x="153" y="586"/>
      <point x="122" y="597"/>
      <point x="78" y="605" type="curve"/>
      <point x="110" y="632"/>
      <point x="142" y="660"/>
      <point x="174" y="687" type="curve"/>
      <point x="196" y="680"/>
      <point x="219" y="675"/>
      <point x="241" y="668" type="curve"/>
      <point x="251" y="673"/>
      <point x="267" y="684"/>
      <point x="277" y="690" type="curve" name=".hr01"/>
      <point x="292" y="662" type="line"/>
      <point x="292" y="663" type="line"/>
      <point x="310" y="633"/>
      <point x="310" y="633"/>
      <point x="322" y="625" type="curve" smooth="yes"/>
      <point x="434" y="547"/>
      <point x="512" y="419"/>
      <point x="512" y="269" type="curve" smooth="yes"/>
      <point x="512" y="243" type="line" smooth="yes"/>
      <point x="512" y="218"/>
      <point x="511" y="193"/>
      <point x="507" y="170" type="curve" smooth="yes"/>
      <point x="491" y="66"/>
      <point x="431" y="-11"/>
      <point x="268" y="-11" type="curve" smooth="yes"/>
      <point x="74" y="-11"/>
      <point x="25" y="106"/>
    </contour>
    <contour>
      <point x="175" y="259" type="curve" smooth="yes"/>
      <point x="175" y="161"/>
      <point x="177" y="83"/>
      <point x="268" y="83" type="curve" smooth="yes"/>
      <point x="340" y="83"/>
      <point x="362" y="131"/>
      <point x="362" y="233" type="curve" smooth="yes"/>
      <point x="362" y="287"/>
      <point x="371" y="399"/>
      <point x="268" y="399" type="curve" smooth="yes"/>
      <point x="181" y="399"/>
      <point x="175" y="327"/>
    </contour>
  </outline>
</glyph>
<glyph name="divide" format="2">
  <advance width="672"/>
  <unicode hex="00F7"/>
  <outline>
    <contour>
      <point x="53" y="316" type="line"/>
      <point x="606" y="316" type="line"/>
      <point x="606" y="216" type="line"/>
      <point x="53" y="216" type="line"/>
    </contour>
    <contour>
      <point x="258.995" y="105.005" type="line"/>
      <point x="402.005" y="105.005" type="line"/>
      <point x="402.005" y="-38.0049" type="line"/>
      <point x="258.995" y="-38.0049" type="line"/>
    </contour>
    <contour>
      <point x="258.995" y="569.82" type="line"/>
      <point x="402.005" y="569.82" type="line"/>
      <point x="402.005" y="426.18" type="line"/>
      <point x="258.995" y="426.18" type="line"/>
    </contour>
  </outline>
</glyph>
<glyph name="oslash" format="2">
  <advance width="550"/>
  <unicode hex="00F8"/>
  <outline>
    <contour>
      <point x="25" y="232" type="curve" smooth="yes"/>
      <point x="25" y="367"/>
      <point x="78" y="488"/>
      <point x="268" y="488" type="curve" smooth="yes"/>
      <point x="309" y="488"/>
      <point x="333" y="484"/>
      <point x="357" y="479" type="curve"/>
      <point x="411" y="574" type="line"/>
      <point x="411" y="574" type="line"/>
      <point x="489" y="530" type="line"/>
      <point x="436" y="437" type="line"/>
      <point x="467" y="413"/>
      <point x="512" y="363"/>
      <point x="512" y="230" type="curve" smooth="yes"/>
      <point x="512" y="37"/>
      <point x="395" y="-11"/>
      <point x="268" y="-11" type="curve" smooth="yes"/>
      <point x="238" y="-11"/>
      <point x="209" y="-8"/>
      <point x="183" y="-2" type="curve"/>
      <point x="126" y="-101" type="line"/>
      <point x="49" y="-57" type="line"/>
      <point x="102" y="36" type="line"/>
      <point x="67" y="64"/>
      <point x="25" y="119"/>
    </contour>
    <contour>
      <point x="159" y="240" type="curve" smooth="yes"/>
      <point x="159" y="214"/>
      <point x="158" y="177"/>
      <point x="166" y="147" type="curve"/>
      <point x="214" y="231"/>
      <point x="260" y="309"/>
      <point x="309" y="394" type="curve"/>
      <point x="297" y="398"/>
      <point x="284" y="400"/>
      <point x="268" y="400" type="curve" smooth="yes"/>
      <point x="167" y="400"/>
      <point x="159" y="319"/>
    </contour>
    <contour>
      <point x="231" y="82" type="line"/>
      <point x="243" y="79"/>
      <point x="255" y="78"/>
      <point x="268" y="78" type="curve" smooth="yes"/>
      <point x="377" y="78"/>
      <point x="378" y="162"/>
      <point x="378" y="232" type="curve" smooth="yes"/>
      <point x="378" y="267"/>
      <point x="380" y="293"/>
      <point x="371" y="324" type="curve"/>
    </contour>
  </outline>
</glyph>
<glyph name="thorn" format="2">
  <advance width="561"/>
  <unicode hex="00FE"/>
  <outline>
    <contour>
      <point x="54" y="-160" type="line"/>
      <point x="54" y="686" type="line"/>
      <point x="202" y="686" type="line"/>
      <point x="202" y="434" type="line"/>
      <point x="240" y="460"/>
      <point x="291" y="483"/>
      <point x="355" y="483" type="curve" smooth="yes"/>
      <point x="453" y="483"/>
      <point x="517" y="415"/>
      <point x="517" y="238" type="curve" smooth="yes"/>
      <point x="517" y="59"/>
      <point x="438" y="-11"/>
      <point x="319" y="-11" type="curve" smooth="yes"/>
      <point x="271" y="-11"/>
      <point x="233" y="6"/>
      <point x="204" y="30" type="curve"/>
      <point x="204" y="-160" type="line"/>
    </contour>
    <contour>
      <point x="204" y="365" type="curve"/>
      <point x="204" y="308" type="line"/>
      <point x="204" y="106" type="line"/>
      <point x="212" y="98"/>
      <point x="232" y="79"/>
      <point x="268" y="79" type="curve" smooth="yes"/>
      <point x="354" y="79"/>
      <point x="367" y="172"/>
      <point x="367" y="229" type="curve" smooth="yes"/>
      <point x="367" y="243"/>
      <point x="366" y="256"/>
      <point x="366" y="270" type="curve"/>
      <point x="363" y="307"/>
      <point x="352" y="389"/>
      <point x="277" y="389" type="curve" smooth="yes"/>
      <point x="242" y="389"/>
      <point x="216" y="373"/>
    </contour>
  </outline>
</glyph>
<glyph name="dcaron" format="2">
  <advance width="732"/>
  <unicode hex="010F"/>
  <outline>
    <contour>
      <point x="32" y="238" type="curve" smooth="yes"/>
      <point x="32" y="316"/>
      <point x="45" y="396"/>
      <point x="102" y="444" type="curve"/>
      <point x="101" y="444" type="line"/>
      <point x="133" y="471"/>
      <point x="175" y="483"/>
      <point x="218" y="483" type="curve" smooth="yes"/>
      <point x="274" y="483"/>
      <point x="313" y="467"/>
      <point x="348" y="441" type="curve"/>
      <point x="348" y="686" type="line"/>
      <point x="496" y="686" type="line"/>
      <point x="496" y="0" type="line"/>
      <point x="345" y="0" type="line"/>
      <point x="345" y="18" type="line"/>
      <point x="345" y="37" type="line"/>
      <point x="311" y="7"/>
      <point x="274" y="-11"/>
      <point x="217" y="-11" type="curve" smooth="yes"/>
      <point x="164" y="-11"/>
      <point x="32" y="10"/>
    </contour>
    <contour>
      <point x="183" y="249" type="curve" smooth="yes"/>
      <point x="183" y="119"/>
      <point x="200" y="78"/>
      <point x="269" y="78" type="curve" smooth="yes"/>
      <point x="314" y="78"/>
      <point x="337" y="104"/>
      <point x="345" y="112" type="curve"/>
      <point x="345" y="177" type="line"/>
      <point x="345" y="371" type="line"/>
      <point x="324" y="387"/>
      <point x="307" y="394"/>
      <point x="281" y="394" type="curve" smooth="yes"/>
      <point x="188" y="394"/>
      <point x="183" y="319"/>
    </contour>
    <contour>
      <point x="528" y="532" type="line"/>
      <point x="565" y="603" type="line"/>
      <point x="535" y="603" type="line"/>
      <point x="535" y="748" type="line"/>
      <point x="681" y="748" type="line"/>
      <point x="681" y="609" type="line"/>
      <point x="658" y="583"/>
      <point x="634" y="558"/>
      <point x="611" y="532" type="curve"/>
    </contour>
  </outline>
</glyph>
<glyph name="dcroat" format="2">
  <advance width="561"/>
  <unicode hex="0111"/>
  <outline>
    <contour>
      <point x="31" y="238" type="curve" smooth="yes"/>
      <point x="31" y="316"/>
      <point x="44" y="396"/>
      <point x="101" y="444" type="curve"/>
      <point x="100" y="444" type="line"/>
      <point x="132" y="471"/>
      <point x="174" y="483"/>
      <point x="217" y="483" type="curve" smooth="yes"/>
      <point x="273" y="483"/>
      <point x="313" y="466"/>
      <point x="347" y="441" type="curve"/>
      <point x="347" y="522" type="line"/>
      <point x="185" y="522" type="line"/>
      <point x="185" y="611" type="line"/>
      <point x="347" y="611" type="line"/>
      <point x="347" y="686" type="line"/>
      <point x="495" y="686" type="line"/>
      <point x="495" y="611" type="line"/>
      <point x="577" y="611" type="line"/>
      <point x="577" y="522" type="line"/>
      <point x="495" y="522" type="line"/>
      <point x="495" y="0" type="line"/>
      <point x="344" y="0" type="line"/>
      <point x="344" y="18" type="line"/>
      <point x="344" y="37" type="line"/>
      <point x="309" y="7"/>
      <point x="273" y="-11" name=".hr01"/>
      <point x="216" y="-11" type="curve" smooth="yes"/>
      <point x="163" y="-11"/>
      <point x="31" y="10"/>
    </contour>
    <contour>
      <point x="182" y="231" type="curve"/>
      <point x="181" y="226"/>
      <point x="181" y="221"/>
      <point x="181" y="214" type="curve" smooth="yes"/>
      <point x="181" y="151"/>
      <point x="192" y="78"/>
      <point x="268" y="78" type="curve" smooth="yes"/>
      <point x="359" y="78"/>
      <point x="344" y="133"/>
      <point x="344" y="155" type="curve" smooth="yes"/>
      <point x="344" y="371" type="line"/>
      <point x="323" y="387"/>
      <point x="306" y="394"/>
      <point x="280" y="394" type="curve" smooth="yes"/>
      <point x="185" y="394"/>
      <point x="182" y="318"/>
    </contour>
  </outline>
</glyph>
<glyph name="hbar" format="2">
  <advance width="617"/>
  <unicode hex="0127"/>
  <outline>
    <contour>
      <point x="-10" y="490" type="line"/>
      <point x="-10" y="578" type="line"/>
      <point x="107" y="578" type="line"/>
      <point x="107" y="686" type="line"/>
      <point x="255" y="686" type="line"/>
      <point x="255" y="578" type="line"/>
      <point x="404" y="578" type="line"/>
      <point x="404" y="490" type="line"/>
      <point x="255" y="490" type="line"/>
      <point x="255" y="409" type="line"/>
      <point x="280" y="445"/>
      <point x="324" y="483"/>
      <point x="400" y="483" type="curve" smooth="yes"/>
      <point x="542" y="483"/>
      <point x="551" y="402"/>
      <point x="551" y="311" type="curve" smooth="yes"/>
      <point x="551" y="304"/>
      <point x="550" y="297"/>
      <point x="550" y="291" type="curve" smooth="yes"/>
      <point x="550" y="0" type="line"/>
      <point x="400" y="0" type="line"/>
      <point x="400" y="323" type="line" smooth="yes"/>
      <point x="400" y="363"/>
      <point x="392" y="394"/>
      <point x="344" y="394" type="curve" smooth="yes"/>
      <point x="286" y="394"/>
      <point x="262" y="332"/>
      <point x="258" y="288" type="curve"/>
      <point x="258" y="240" type="line"/>
      <point x="258" y="0" type="line"/>
      <point x="107" y="0" type="line"/>
      <point x="107" y="490" type="line"/>
    </contour>
  </outline>
</glyph>
<glyph name="dotlessi" format="2">
  <advance width="249"/>
  <unicode hex="0131"/>
  <anchor x="125" y="550" name="top"/>
  <anchor x="100" y="10" name="bottom_0"/>
  <anchor x="125" y="-60" name="bottom_60"/>
  <outline>
    <contour>
      <point x="50.4966" y="0" type="line"/>
      <point x="50.4966" y="472" type="line"/>
      <point x="198.503" y="472" type="line"/>
      <point x="198.503" y="0" type="line"/>
    </contour>
  </outline>
  <guideline angle="90" x="114" y="0"/>
</glyph>
<glyph name="kgreenlandic" format="2">
  <advance width="531"/>
  <unicode hex="0138"/>
  <outline>
    <contour>
      <point x="62" y="0" type="line"/>
      <point x="62" y="422" type="line"/>
      <point x="194" y="472" type="line"/>
      <point x="194" y="338" type="line"/>
      <point x="236" y="382"/>
      <point x="282" y="428"/>
      <point x="324" y="472" type="curve"/>
      <point x="495" y="472" type="line"/>
      <point x="321" y="290" type="line"/>
      <point x="514" y="0" type="line"/>
      <point x="362" y="0" type="line"/>
      <point x="230" y="195" type="line"/>
      <point x="220" y="184"/>
      <point x="202" y="166"/>
      <point x="191" y="154" type="curve"/>
      <point x="191" y="0" type="line"/>
    </contour>
  </outline>
</glyph>
<glyph name="Lslash" format="2">
  <advance width="672"/>
  <unicode hex="0141"/>
  <outline>
    <contour>
      <point x="62" y="279" type="line"/>
      <point x="173" y="365" type="line"/>
      <point x="173" y="695" type="line"/>
      <point x="336" y="695" type="line"/>
      <point x="336" y="497" type="line"/>
      <point x="448" y="588" type="line"/>
      <point x="518" y="500" type="line"/>
      <point x="336" y="355" type="line"/>
      <point x="336" y="118" type="line"/>
      <point x="623" y="121" type="line"/>
      <point x="623" y="0" type="line"/>
      <point x="173" y="0" type="line"/>
      <point x="173" y="223" type="line"/>
      <point x="132" y="190" type="line"/>
    </contour>
  </outline>
</glyph>
<glyph name="lslash" format="2">
  <advance width="381"/>
  <unicode hex="0142"/>
  <outline>
    <contour>
      <point x="6" y="271" type="line"/>
      <point x="110" y="354" type="line"/>
      <point x="110" y="686" type="line"/>
      <point x="258" y="686" type="line"/>
      <point x="258" y="472" type="line"/>
      <point x="324" y="525" type="line"/>
      <point x="379" y="455" type="line"/>
      <point x="258" y="358" type="line"/>
      <point x="258" y="0" type="line"/>
      <point x="110" y="0" type="line"/>
      <point x="110" y="240" type="line"/>
      <point x="61" y="201" type="line"/>
    </contour>
  </outline>
</glyph>
<glyph name="Eng" format="2">
  <advance width="825"/>
  <unicode hex="014A"/>
  <outline>
    <contour>
      <point x="85" y="0" type="line"/>
      <point x="85" y="695" type="line"/>
      <point x="140" y="695" type="line"/>
      <point x="195" y="695" type="line"/>
      <point x="261" y="755"/>
      <point x="347" y="782"/>
      <point x="423" y="782" type="curve" smooth="yes"/>
      <point x="582" y="782"/>
      <point x="757" y="670"/>
      <point x="757" y="448" type="curve" smooth="yes"/>
      <point x="757" y="155" type="line" smooth="yes"/>
      <point x="757" y="14"/>
      <point x="663" y="-21"/>
      <point x="589" y="-21" type="curve" smooth="yes"/>
      <point x="526" y="-21"/>
      <point x="470" y="-1"/>
      <point x="425" y="22" type="curve"/>
      <point x="453" y="181" type="line"/>
      <point x="479" y="117"/>
      <point x="510" y="92"/>
      <point x="539" y="92" type="curve" smooth="yes"/>
      <point x="558" y="92"/>
      <point x="594" y="100"/>
      <point x="594" y="160" type="curve"/>
      <point x="594" y="160" type="line"/>
      <point x="594" y="446" type="line" smooth="yes"/>
      <point x="594" y="594"/>
      <point x="477" y="631"/>
      <point x="418" y="631" type="curve" smooth="yes"/>
      <point x="327" y="631"/>
      <point x="248" y="560"/>
      <point x="248" y="484" type="curve" smooth="yes"/>
      <point x="248" y="0" type="line"/>
    </contour>
  </outline>
</glyph>
<glyph name="eng" format="2">
  <advance width="561"/>
  <unicode hex="014B"/>
  <outline>
    <contour>
      <point x="53" y="0" type="line"/>
      <point x="53" y="478" type="line"/>
      <point x="198" y="478" type="line"/>
      <point x="198" y="404" type="line"/>
      <point x="223" y="441"/>
      <point x="270" y="483" name=".hr01"/>
      <point x="345" y="483" type="curve" smooth="yes"/>
      <point x="487" y="483"/>
      <point x="496" y="402"/>
      <point x="496" y="312" type="curve" smooth="yes"/>
      <point x="496" y="305"/>
      <point x="495" y="298"/>
      <point x="495" y="292" type="curve" smooth="yes"/>
      <point x="495" y="272" type="line" smooth="yes"/>
      <point x="495" y="185"/>
      <point x="494" y="97"/>
      <point x="494" y="10" type="curve" smooth="yes"/>
      <point x="494" y="-19"/>
      <point x="495" y="-171"/>
      <point x="340" y="-171" type="curve" smooth="yes"/>
      <point x="283" y="-171"/>
      <point x="226" y="-153"/>
      <point x="188" y="-137" type="curve"/>
      <point x="229" y="-51" type="line"/>
      <point x="254" y="-62"/>
      <point x="272" y="-70"/>
      <point x="296" y="-70" type="curve" smooth="yes"/>
      <point x="347" y="-70"/>
      <point x="346" y="-32"/>
      <point x="346" y="-19" type="curve" smooth="yes"/>
      <point x="346" y="-9"/>
      <point x="345" y="0"/>
      <point x="345" y="10" type="curve" smooth="yes"/>
      <point x="345" y="323" type="line" smooth="yes"/>
      <point x="345" y="363"/>
      <point x="338" y="394"/>
      <point x="290" y="394" type="curve" smooth="yes"/>
      <point x="270" y="394"/>
      <point x="254" y="387"/>
      <point x="242" y="376" type="curve" smooth="yes" name=".hr02"/>
      <point x="217" y="354"/>
      <point x="206" y="317"/>
      <point x="203" y="288" type="curve"/>
      <point x="203" y="0" type="line"/>
    </contour>
  </outline>
</glyph>
<glyph name="OE" format="2">
  <advance width="1069"/>
  <unicode hex="0152"/>
  <outline>
    <contour>
      <point x="27" y="344" type="curve" smooth="yes"/>
      <point x="27" y="641"/>
      <point x="193.875" y="716"/>
      <point x="358" y="716" type="curve" smooth="yes"/>
      <point x="424.641" y="716"/>
      <point x="487.744" y="698.525"/>
      <point x="534" y="675" type="curve"/>
      <point x="534" y="695" type="line"/>
      <point x="997" y="695" type="line"/>
      <point x="997" y="573" type="line"/>
      <point x="662" y="576" type="line"/>
      <point x="662" y="417" type="line"/>
      <point x="967" y="417" type="line"/>
      <point x="967" y="305" type="line"/>
      <point x="662" y="305" type="line"/>
      <point x="662" y="123" type="line"/>
      <point x="1011" y="127" type="line"/>
      <point x="1011" y="0" type="line"/>
      <point x="534" y="0" type="line"/>
      <point x="534" y="20" type="line"/>
      <point x="482.103" y="-6.88525"/>
      <point x="425.495" y="-21"/>
      <point x="358" y="-21" type="curve" smooth="yes"/>
      <point x="189.291" y="-21"/>
      <point x="27" y="52"/>
    </contour>
    <contour>
      <point x="187" y="362" type="curve" smooth="yes"/>
      <point x="187" y="116"/>
      <point x="307" y="68"/>
      <point x="396" y="68" type="curve" smooth="yes"/>
      <point x="461.925" y="68"/>
      <point x="502.755" y="78.4615"/>
      <point x="534" y="100" type="curve"/>
      <point x="534" y="587" type="line"/>
      <point x="505.295" y="611.87"/>
      <point x="447.457" y="626"/>
      <point x="397" y="626" type="curve" smooth="yes"/>
      <point x="191" y="626"/>
      <point x="187" y="409"/>
    </contour>
  </outline>
</glyph>
<glyph name="oe" format="2">
  <advance width="856"/>
  <unicode hex="0153"/>
  <outline>
    <contour>
      <point x="28" y="239" type="curve" smooth="yes"/>
      <point x="28" y="438"/>
      <point x="148" y="488"/>
      <point x="272" y="488" type="curve" smooth="yes"/>
      <point x="371" y="488"/>
      <point x="418" y="460"/>
      <point x="446" y="438" type="curve"/>
      <point x="470" y="459"/>
      <point x="516" y="488"/>
      <point x="610" y="488" type="curve" smooth="yes"/>
      <point x="830" y="488"/>
      <point x="809" y="276"/>
      <point x="809" y="240" type="curve"/>
      <point x="523" y="240" type="line"/>
      <point x="523" y="182"/>
      <point x="529" y="131"/>
      <point x="565" y="100" type="curve"/>
      <point x="564" y="100" type="line"/>
      <point x="582" y="84"/>
      <point x="603" y="79"/>
      <point x="627" y="79" type="curve" smooth="yes"/>
      <point x="712" y="79"/>
      <point x="776" y="139"/>
      <point x="794" y="154" type="curve"/>
      <point x="803" y="40" type="line"/>
      <point x="745" y="7"/>
      <point x="689" y="-11"/>
      <point x="622" y="-11" type="curve" smooth="yes"/>
      <point x="523" y="-11"/>
      <point x="475" y="20"/>
      <point x="447" y="41" type="curve"/>
      <point x="422" y="20"/>
      <point x="373" y="-11"/>
      <point x="274" y="-11" type="curve" smooth="yes"/>
      <point x="77" y="-11"/>
      <point x="28" y="109"/>
    </contour>
    <contour>
      <point x="173" y="238" type="curve" smooth="yes"/>
      <point x="173" y="148"/>
      <point x="182" y="79"/>
      <point x="274" y="79" type="curve" smooth="yes"/>
      <point x="368" y="79"/>
      <point x="372" y="162"/>
      <point x="372" y="241" type="curve" smooth="yes"/>
      <point x="372" y="402"/>
      <point x="326" y="400"/>
      <point x="272" y="400" type="curve" smooth="yes"/>
      <point x="174" y="400"/>
      <point x="173" y="319"/>
    </contour>
    <contour>
      <point x="528" y="311" type="curve"/>
      <point x="677" y="311" type="line"/>
      <point x="676" y="319"/>
      <point x="674" y="328"/>
      <point x="672" y="336" type="curve" smooth="yes"/>
      <point x="664" y="368"/>
      <point x="646" y="399"/>
      <point x="609" y="399" type="curve" smooth="yes"/>
      <point x="552" y="399"/>
      <point x="533" y="340"/>
    </contour>
  </outline>
</glyph>
<glyph name="longs" format="2">
  <advance width="336"/>
  <unicode hex="017F"/>
  <outline>
    <contour>
      <point x="78" y="0" type="line"/>
      <point x="78" y="515" type="line" smooth="yes"/>
      <point x="78" y="569"/>
      <point x="83" y="616"/>
      <point x="124" y="651" type="curve" smooth="yes"/>
      <point x="152" y="676"/>
      <point x="206" y="696"/>
      <point x="277" y="696" type="curve" smooth="yes"/>
      <point x="306" y="696"/>
      <point x="340" y="693"/>
      <point x="380" y="684" type="curve"/>
      <point x="380" y="557" type="line"/>
      <point x="346" y="588"/>
      <point x="320" y="607"/>
      <point x="281" y="607" type="curve" smooth="yes"/>
      <point x="224" y="607"/>
      <point x="224" y="572"/>
      <point x="224" y="540" type="curve" smooth="yes"/>
      <point x="224" y="0" type="line"/>
    </contour>
  </outline>
</glyph>
<glyph name="uni0180" format="2">
  <advance width="561"/>
  <unicode hex="0180"/>
  <outline>
    <contour>
      <point x="-27" y="490" type="line"/>
      <point x="-27" y="578" type="line"/>
      <point x="55" y="578" type="line"/>
      <point x="55" y="686" type="line"/>
      <point x="203" y="686" type="line"/>
      <point x="203" y="578" type="line"/>
      <point x="352" y="578" type="line"/>
      <point x="352" y="490" type="line"/>
      <point x="203" y="490" type="line"/>
      <point x="203" y="437" type="line"/>
      <point x="239" y="463"/>
      <point x="286" y="483"/>
      <point x="347" y="483" type="curve" smooth="yes"/>
      <point x="515" y="483"/>
      <point x="517" y="303"/>
      <point x="518" y="246" type="curve" smooth="yes"/>
      <point x="518" y="31"/>
      <point x="412" y="-11"/>
      <point x="319" y="-11" type="curve" smooth="yes"/>
      <point x="273" y="-11"/>
      <point x="233" y="8"/>
      <point x="205" y="30" type="curve"/>
      <point x="205" y="0" type="line"/>
      <point x="55" y="0" type="line"/>
      <point x="55" y="490" type="line"/>
    </contour>
    <contour>
      <point x="205" y="106" type="line"/>
      <point x="213" y="97"/>
      <point x="232" y="79"/>
      <point x="270" y="79" type="curve" smooth="yes"/>
      <point x="361" y="79"/>
      <point x="368" y="148"/>
      <point x="368" y="232" type="curve" smooth="yes"/>
      <point x="368" y="306"/>
      <point x="373" y="394"/>
      <point x="280" y="394" type="curve" smooth="yes"/>
      <point x="248" y="394"/>
      <point x="227" y="385"/>
      <point x="205" y="367" type="curve"/>
      <point x="205" y="292" type="line"/>
    </contour>
  </outline>
</glyph>
<glyph name="uni0182" format="2">
  <advance width="578"/>
  <unicode hex="0182"/>
  <outline>
    <contour>
      <point x="45" y="0" type="line"/>
      <point x="45" y="695" type="line"/>
      <point x="490" y="695" type="line"/>
      <point x="490" y="573" type="line"/>
      <point x="203" y="573" type="line"/>
      <point x="203" y="417" type="line"/>
      <point x="304" y="417" type="line" smooth="yes"/>
      <point x="514.803" y="417"/>
      <point x="548" y="309"/>
      <point x="548" y="206" type="curve" smooth="yes"/>
      <point x="548" y="9"/>
      <point x="396.952" y="0"/>
      <point x="304" y="0" type="curve" smooth="yes"/>
    </contour>
    <contour>
      <point x="203" y="104" type="line"/>
      <point x="275" y="104" type="line" smooth="yes"/>
      <point x="347.225" y="104"/>
      <point x="394" y="146.371"/>
      <point x="394" y="206" type="curve" smooth="yes"/>
      <point x="394" y="299"/>
      <point x="322.899" y="305"/>
      <point x="275" y="305" type="curve" smooth="yes"/>
      <point x="203" y="305" type="line"/>
    </contour>
  </outline>
</glyph>
<glyph name="uni0186" format="2">
  <advance width="703"/>
  <unicode hex="0186"/>
  <outline>
    <contour>
      <point x="642" y="349" type="curve" smooth="yes"/>
      <point x="642" y="52"/>
      <point x="469" y="-21"/>
      <point x="272" y="-21" type="curve" smooth="yes"/>
      <point x="194" y="-21"/>
      <point x="138" y="-9"/>
      <point x="64" y="17" type="curve"/>
      <point x="90" y="166" type="line"/>
      <point x="128" y="142"/>
      <point x="169" y="96"/>
      <point x="274" y="96" type="curve" smooth="yes"/>
      <point x="432" y="96"/>
      <point x="479" y="208"/>
      <point x="479" y="346" type="curve" smooth="yes"/>
      <point x="479" y="483"/>
      <point x="438" y="600"/>
      <point x="272" y="600" type="curve" smooth="yes"/>
      <point x="174" y="600"/>
      <point x="140" y="578"/>
      <point x="63" y="529" type="curve"/>
      <point x="53" y="659" type="line"/>
      <point x="142" y="706"/>
      <point x="183" y="717"/>
      <point x="274" y="717" type="curve" smooth="yes"/>
      <point x="473" y="717"/>
      <point x="642" y="636"/>
    </contour>
  </outline>
</glyph>
<glyph name="uni0188" format="2">
  <advance width="550"/>
  <unicode hex="0188"/>
  <outline>
    <contour>
      <point x="32" y="239" type="curve" smooth="yes"/>
      <point x="32" y="438"/>
      <point x="148" y="488"/>
      <point x="273" y="488" type="curve" smooth="yes"/>
      <point x="314" y="488"/>
      <point x="337" y="486"/>
      <point x="361" y="481" type="curve"/>
      <point x="361" y="531" type="line"/>
      <point x="361" y="531" type="line"/>
      <point x="361" y="630"/>
      <point x="418" y="675"/>
      <point x="505" y="675" type="curve" smooth="yes"/>
      <point x="553" y="675"/>
      <point x="581" y="661"/>
      <point x="618" y="626" type="curve"/>
      <point x="575" y="508" type="line"/>
      <point x="562" y="550"/>
      <point x="544" y="571"/>
      <point x="528" y="580" type="curve"/>
      <point x="520" y="585"/>
      <point x="512" y="586"/>
      <point x="505" y="586" type="curve" smooth="yes"/>
      <point x="479" y="586"/>
      <point x="450" y="577"/>
      <point x="450" y="536" type="curve" smooth="yes"/>
      <point x="450" y="453" type="line" smooth="yes"/>
      <point x="450" y="420"/>
      <point x="437" y="367"/>
      <point x="432" y="330" type="curve"/>
      <point x="407" y="348" type="line"/>
      <point x="375" y="373"/>
      <point x="346" y="394"/>
      <point x="275" y="394" type="curve" smooth="yes"/>
      <point x="182" y="394"/>
      <point x="182" y="306"/>
      <point x="182" y="242" type="curve" smooth="yes"/>
      <point x="182" y="150"/>
      <point x="193" y="83"/>
      <point x="273" y="83" type="curve" smooth="yes"/>
      <point x="359" y="83"/>
      <point x="416" y="132"/>
      <point x="446" y="156" type="curve"/>
      <point x="455" y="37" type="line"/>
      <point x="395" y="6"/>
      <point x="343" y="-11"/>
      <point x="271" y="-11" type="curve" smooth="yes"/>
      <point x="80" y="-11"/>
      <point x="32" y="107"/>
    </contour>
  </outline>
</glyph>
<glyph name="uni018E" format="2">
  <advance width="642"/>
  <unicode hex="018E"/>
  <outline>
    <contour>
      <point x="84" y="0" type="line"/>
      <point x="84" y="127" type="line"/>
      <point x="430" y="123" type="line"/>
      <point x="430" y="303" type="line"/>
      <point x="128" y="303" type="line"/>
      <point x="128" y="415" type="line"/>
      <point x="430" y="415" type="line"/>
      <point x="430" y="573" type="line"/>
      <point x="98" y="570" type="line"/>
      <point x="98" y="692" type="line"/>
      <point x="593" y="692" type="line"/>
      <point x="593" y="0" type="line"/>
    </contour>
  </outline>
</glyph>
<glyph name="uni018F" format="2">
  <advance width="761"/>
  <unicode hex="018F"/>
  <anchor x="352" y="790" name="top"/>
  <outline>
    <contour>
      <point x="25" y="344" type="curve"/>
      <point x="549" y="344" type="line"/>
      <point x="546" y="467"/>
      <point x="519" y="600"/>
      <point x="352" y="600" type="curve" smooth="yes"/>
      <point x="224" y="600"/>
      <point x="208" y="581"/>
      <point x="108" y="531" type="curve"/>
      <point x="82" y="680" type="line"/>
      <point x="217" y="715"/>
      <point x="242" y="715"/>
      <point x="352" y="716" type="curve"/>
      <point x="646" y="716"/>
      <point x="709" y="531"/>
      <point x="709" y="340" type="curve" smooth="yes"/>
      <point x="709" y="149"/>
      <point x="651" y="-21"/>
      <point x="356" y="-21" type="curve"/>
      <point x="262" y="-18"/>
      <point x="152" y="-4"/>
      <point x="83" y="92" type="curve"/>
      <point x="28" y="177"/>
      <point x="25" y="291"/>
    </contour>
    <contour>
      <point x="179" y="255" type="line"/>
      <point x="185" y="172"/>
      <point x="234" y="74"/>
      <point x="359" y="74" type="curve" smooth="yes"/>
      <point x="518" y="74"/>
      <point x="542" y="219"/>
      <point x="546" y="255" type="curve"/>
    </contour>
  </outline>
</glyph>
<glyph name="uni0190" format="2">
  <advance width="611"/>
  <unicode hex="0190"/>
  <outline>
    <contour>
      <point x="38" y="203" type="curve" smooth="yes"/>
      <point x="38" y="316"/>
      <point x="117" y="351"/>
      <point x="167" y="363" type="curve"/>
      <point x="75" y="398"/>
      <point x="68" y="472" name=".hr01"/>
      <point x="68" y="506" type="curve" smooth="yes"/>
      <point x="68" y="696"/>
      <point x="186" y="716"/>
      <point x="336" y="716" type="curve" smooth="yes"/>
      <point x="410" y="716"/>
      <point x="458" y="708"/>
      <point x="543" y="678" type="curve"/>
      <point x="517" y="531" type="line"/>
      <point x="498" y="542" type="line"/>
      <point x="461" y="570"/>
      <point x="424" y="600"/>
      <point x="338" y="600" type="curve" smooth="yes"/>
      <point x="265" y="600"/>
      <point x="220" y="585" name=".hr02"/>
      <point x="220" y="502" type="curve" smooth="yes"/>
      <point x="220" y="408"/>
      <point x="293" y="406"/>
      <point x="337" y="406" type="curve" smooth="yes"/>
      <point x="399" y="406" type="line"/>
      <point x="399" y="316" type="line"/>
      <point x="321" y="316" type="line" smooth="yes"/>
      <point x="250" y="316"/>
      <point x="193" y="299" name=".hr03"/>
      <point x="193" y="207" type="curve" smooth="yes"/>
      <point x="193" y="109"/>
      <point x="253" y="95"/>
      <point x="317" y="95" type="curve" smooth="yes"/>
      <point x="426" y="95"/>
      <point x="464" y="120"/>
      <point x="543" y="166" type="curve"/>
      <point x="554" y="36" type="line"/>
      <point x="474" y="-3"/>
      <point x="429" y="-21"/>
      <point x="313" y="-21" type="curve" smooth="yes"/>
      <point x="156" y="-21"/>
      <point x="38" y="21"/>
    </contour>
  </outline>
</glyph>
<glyph name="florin" format="2">
  <advance width="630"/>
  <unicode hex="0192"/>
  <outline>
    <contour>
      <point x="-10" y="-136" type="curve"/>
      <point x="40" y="-51" type="line"/>
      <point x="65" y="-63"/>
      <point x="82" y="-70"/>
      <point x="109" y="-70" type="curve" smooth="yes"/>
      <point x="157" y="-70"/>
      <point x="166" y="-57"/>
      <point x="169" y="-39" type="curve"/>
      <point x="259" y="384" type="line"/>
      <point x="205" y="384" type="line"/>
      <point x="224" y="472" type="line"/>
      <point x="277" y="472" type="line"/>
      <point x="281" y="491" type="line"/>
      <point x="288" y="531"/>
      <point x="298" y="573"/>
      <point x="320" y="608" type="curve"/>
      <point x="331" y="627"/>
      <point x="370" y="696"/>
      <point x="528" y="696" type="curve" smooth="yes"/>
      <point x="567" y="696"/>
      <point x="589" y="692"/>
      <point x="625" y="684" type="curve"/>
      <point x="599" y="560" type="line"/>
      <point x="594" y="565"/>
      <point x="589" y="571"/>
      <point x="584" y="576" type="curve" smooth="yes"/>
      <point x="570" y="590"/>
      <point x="553" y="607"/>
      <point x="512" y="607" type="curve" smooth="yes"/>
      <point x="449" y="607"/>
      <point x="442" y="572"/>
      <point x="428" y="502" type="curve"/>
      <point x="423" y="472" type="line"/>
      <point x="517" y="472" type="line"/>
      <point x="498" y="384" type="line"/>
      <point x="408" y="384" type="line"/>
      <point x="379" y="250"/>
      <point x="350" y="115"/>
      <point x="321" y="-19" type="curve" smooth="yes"/>
      <point x="315" y="-49"/>
      <point x="308" y="-80"/>
      <point x="290" y="-107" type="curve" smooth="yes"/>
      <point x="266" y="-143"/>
      <point x="224" y="-171"/>
      <point x="141" y="-171" type="curve" smooth="yes"/>
      <point x="87" y="-171"/>
      <point x="43" y="-159"/>
    </contour>
  </outline>
</glyph>
<glyph name="uni0195" format="2">
  <advance width="815"/>
  <unicode hex="0195"/>
  <outline>
    <contour>
      <point x="55" y="0" type="line"/>
      <point x="55" y="686" type="line"/>
      <point x="203" y="686" type="line"/>
      <point x="203" y="409" type="line"/>
      <point x="228" y="445"/>
      <point x="272" y="484"/>
      <point x="347" y="484" type="curve" smooth="yes"/>
      <point x="485" y="484"/>
      <point x="498" y="412"/>
      <point x="498" y="314" type="curve" smooth="yes"/>
      <point x="498" y="141" type="line" smooth="yes"/>
      <point x="498" y="89.3333"/>
      <point x="531.333" y="79" name=".hr01"/>
      <point x="554" y="79" type="curve" smooth="yes"/>
      <point x="599.207" y="79"/>
      <point x="611" y="109.036"/>
      <point x="611" y="176" type="curve" smooth="yes"/>
      <point x="611" y="423" type="line"/>
      <point x="761" y="423" type="line"/>
      <point x="761" y="176" type="line" smooth="yes"/>
      <point x="761" y="60.0209"/>
      <point x="698" y="-11"/>
      <point x="553" y="-11" type="curve" smooth="yes"/>
      <point x="353.256" y="-11"/>
      <point x="348" y="87.7184"/>
      <point x="348" y="153" type="curve" smooth="yes"/>
      <point x="348" y="308" type="line" smooth="yes"/>
      <point x="348" y="342"/>
      <point x="343" y="393"/>
      <point x="292" y="393" type="curve" smooth="yes"/>
      <point x="237.03" y="393"/>
      <point x="206" y="344.969"/>
      <point x="206" y="267" type="curve" smooth="yes"/>
      <point x="206" y="0" type="line" name=".hr02"/>
    </contour>
  </outline>
</glyph>
<glyph name="uni0199" format="2">
  <advance width="531"/>
  <unicode hex="0199"/>
  <outline>
    <contour>
      <point x="62" y="0" type="line"/>
      <point x="62" y="537" type="line" smooth="yes"/>
      <point x="62" y="619"/>
      <point x="102" y="663"/>
      <point x="164" y="686" type="curve" smooth="yes"/>
      <point x="206" y="701"/>
      <point x="257" y="707"/>
      <point x="314" y="707" type="curve" smooth="yes"/>
      <point x="382" y="707"/>
      <point x="425" y="693"/>
      <point x="484" y="648" type="curve"/>
      <point x="442" y="537" type="line"/>
      <point x="408" y="591"/>
      <point x="374" y="618"/>
      <point x="313" y="618" type="curve" smooth="yes"/>
      <point x="198" y="618"/>
      <point x="194" y="566"/>
      <point x="194" y="538" type="curve" smooth="yes"/>
      <point x="194" y="338" type="line"/>
      <point x="324" y="472" type="line"/>
      <point x="495" y="472" type="line"/>
      <point x="321" y="290" type="line"/>
      <point x="514" y="0" type="line"/>
      <point x="362" y="0" type="line"/>
      <point x="230" y="195" type="line"/>
      <point x="191" y="154" type="line"/>
      <point x="191" y="0" type="line"/>
    </contour>
  </outline>
</glyph>
<glyph name="uni019A" format="2">
  <advance width="428"/>
  <unicode hex="019A"/>
  <outline>
    <contour>
      <point x="18" y="337" type="line"/>
      <point x="18" y="425" type="line"/>
      <point x="135" y="425" type="line"/>
      <point x="135" y="686" type="line"/>
      <point x="283" y="686" type="line"/>
      <point x="283" y="425" type="line"/>
      <point x="400" y="425" type="line"/>
      <point x="400" y="337" type="line"/>
      <point x="283" y="337" type="line"/>
      <point x="283" y="0" type="line"/>
      <point x="135" y="0" type="line"/>
      <point x="135" y="337" type="line"/>
    </contour>
  </outline>
</glyph>
<glyph name="uni019B" format="2">
  <advance width="581"/>
  <unicode hex="019B"/>
  <outline>
    <contour>
      <point x="-32" y="641" type="curve" smooth="yes"/>
      <point x="-32" y="685"/>
      <point x="3" y="686"/>
      <point x="38" y="686" type="curve" smooth="yes"/>
      <point x="115" y="686"/>
      <point x="174" y="680"/>
      <point x="205" y="632" type="curve"/>
      <point x="230" y="589" type="line" smooth="yes"/>
      <point x="241" y="570"/>
      <point x="247" y="555"/>
      <point x="261" y="532" type="curve"/>
      <point x="296" y="552"/>
      <point x="336" y="576"/>
      <point x="370" y="595" type="curve"/>
      <point x="432" y="485" type="line"/>
      <point x="323" y="424" type="line"/>
      <point x="523" y="73" type="line" smooth="yes"/>
      <point x="536" y="50"/>
      <point x="552" y="23"/>
      <point x="577" y="-11" type="curve"/>
      <point x="508" y="-11" type="line" smooth="yes"/>
      <point x="410" y="-11"/>
      <point x="396" y="-9"/>
      <point x="362" y="52" type="curve" smooth="yes"/>
      <point x="269" y="214" type="line"/>
      <point x="148" y="13"/>
      <point x="155" y="15"/>
      <point x="141" y="5" type="curve"/>
      <point x="129" y="-5"/>
      <point x="114" y="-12"/>
      <point x="96" y="-12" type="curve"/>
      <point x="96" y="-12" type="line"/>
      <point x="60" y="-12"/>
      <point x="17" y="18"/>
      <point x="17" y="61" type="curve" smooth="yes"/>
      <point x="17" y="85"/>
      <point x="22" y="93"/>
      <point x="83" y="186" type="curve"/>
      <point x="83" y="185" type="line"/>
      <point x="100" y="210"/>
      <point x="121" y="241"/>
      <point x="146" y="280" type="curve" smooth="yes"/>
      <point x="190" y="348" type="line"/>
      <point x="156" y="329"/>
      <point x="116" y="305"/>
      <point x="83" y="288" type="curve"/>
      <point x="22" y="397" type="line"/>
      <point x="131" y="459" type="line"/>
      <point x="82" y="557"/>
      <point x="58" y="582"/>
      <point x="56" y="585" type="curve"/>
      <point x="34" y="602"/>
      <point x="-32" y="582"/>
    </contour>
  </outline>
</glyph>
<glyph name="uni019E" format="2">
  <advance width="531"/>
  <unicode hex="019E"/>
  <outline>
    <contour>
      <point x="53" y="0" type="line"/>
      <point x="53" y="478" type="line"/>
      <point x="198" y="478" type="line"/>
      <point x="198" y="404" type="line"/>
      <point x="223" y="441"/>
      <point x="270" y="483"/>
      <point x="345" y="483" type="curve" smooth="yes"/>
      <point x="493" y="483"/>
      <point x="496" y="394"/>
      <point x="496" y="316" type="curve" smooth="yes"/>
      <point x="496" y="-160" type="line"/>
      <point x="345" y="-160" type="line"/>
      <point x="345" y="325" type="line" smooth="yes"/>
      <point x="345" y="366"/>
      <point x="337" y="394"/>
      <point x="290" y="394" type="curve" smooth="yes"/>
      <point x="231" y="394"/>
      <point x="207" y="332"/>
      <point x="203" y="289" type="curve"/>
      <point x="203" y="289" type="line"/>
      <point x="203" y="0" type="line"/>
    </contour>
  </outline>
</glyph>
<glyph name="Ohorn" format="2">
  <advance width="794"/>
  <unicode hex="01A0"/>
  <outline>
    <contour>
      <point x="54" y="340" type="curve" smooth="yes"/>
      <point x="54" y="539"/>
      <point x="122" y="716"/>
      <point x="393" y="716" type="curve" smooth="yes"/>
      <point x="457" y="716"/>
      <point x="542" y="701"/>
      <point x="609" y="654" type="curve"/>
      <point x="616" y="661"/>
      <point x="618" y="664"/>
      <point x="630" y="674" type="curve"/>
      <point x="607" y="674" type="line"/>
      <point x="607" y="821" type="line"/>
      <point x="754" y="821" type="line"/>
      <point x="754" y="679" type="line"/>
      <point x="659" y="603" type="line"/>
      <point x="710" y="535"/>
      <point x="727" y="446"/>
      <point x="727" y="344" type="curve" smooth="yes"/>
      <point x="727" y="152"/>
      <point x="660" y="-21"/>
      <point x="389" y="-21" type="curve" smooth="yes"/>
      <point x="188" y="-21"/>
      <point x="54" y="80"/>
    </contour>
    <contour>
      <point x="218" y="369" type="curve" smooth="yes"/>
      <point x="218" y="294"/>
      <point x="218" y="211"/>
      <point x="258" y="145" type="curve"/>
      <point x="257" y="145" type="line"/>
      <point x="287" y="100"/>
      <point x="337" y="77"/>
      <point x="391" y="77" type="curve" smooth="yes"/>
      <point x="454" y="77"/>
      <point x="560" y="117"/>
      <point x="564" y="322" type="curve" smooth="yes"/>
      <point x="564" y="411"/>
      <point x="572" y="518"/>
      <point x="501" y="584" type="curve"/>
      <point x="501" y="583" type="line"/>
      <point x="475" y="606"/>
      <point x="436" y="621"/>
      <point x="391" y="621" type="curve" smooth="yes"/>
      <point x="237" y="621"/>
      <point x="218" y="480"/>
    </contour>
  </outline>
</glyph>
<glyph name="ohorn" format="2">
  <advance width="550"/>
  <unicode hex="01A1"/>
  <outline>
    <contour>
      <point x="26" y="230" type="curve" smooth="yes"/>
      <point x="26" y="364"/>
      <point x="74" y="488"/>
      <point x="269" y="488" type="curve" smooth="yes"/>
      <point x="293" y="488"/>
      <point x="314" y="486"/>
      <point x="333" y="483" type="curve" smooth="yes"/>
      <point x="389" y="473"/>
      <point x="423" y="451"/>
      <point x="443" y="433" type="curve"/>
      <point x="465" y="453" type="line"/>
      <point x="443" y="453" type="line"/>
      <point x="443" y="598" type="line"/>
      <point x="588" y="598" type="line"/>
      <point x="588" y="458" type="line"/>
      <point x="484" y="377" type="line"/>
      <point x="495" y="355"/>
      <point x="513" y="315"/>
      <point x="513" y="230" type="curve" smooth="yes"/>
      <point x="513" y="107"/>
      <point x="465" y="-11"/>
      <point x="270" y="-11" type="curve" smooth="yes"/>
      <point x="144" y="-11"/>
      <point x="26" y="37"/>
    </contour>
    <contour>
      <point x="176" y="241" type="curve" smooth="yes"/>
      <point x="176" y="157"/>
      <point x="181" y="83"/>
      <point x="270" y="83" type="curve" smooth="yes"/>
      <point x="355" y="83"/>
      <point x="363" y="155"/>
      <point x="363" y="227" type="curve" smooth="yes"/>
      <point x="363" y="290"/>
      <point x="375" y="399"/>
      <point x="269" y="399" type="curve" smooth="yes"/>
      <point x="173" y="399"/>
      <point x="176" y="311"/>
    </contour>
  </outline>
</glyph>
<glyph name="uni01A5" format="2">
  <advance width="531"/>
  <unicode hex="01A5"/>
  <outline>
    <contour>
      <point x="25" y="-160" type="line"/>
      <point x="25" y="532" type="line" smooth="yes"/>
      <point x="25" y="542"/>
      <point x="25" y="558"/>
      <point x="29" y="575" type="curve" smooth="yes"/>
      <point x="40" y="627"/>
      <point x="70" y="707"/>
      <point x="301" y="707" type="curve" smooth="yes"/>
      <point x="418" y="707"/>
      <point x="441" y="670"/>
      <point x="490" y="649" type="curve"/>
      <point x="450" y="539" type="line"/>
      <point x="422" y="574"/>
      <point x="384" y="618"/>
      <point x="303" y="618" type="curve" smooth="yes"/>
      <point x="192" y="618"/>
      <point x="171" y="582"/>
      <point x="171" y="529" type="curve" smooth="yes"/>
      <point x="171" y="498"/>
      <point x="172" y="467"/>
      <point x="172" y="436" type="curve"/>
      <point x="229" y="477"/>
      <point x="284" y="483"/>
      <point x="316" y="483" type="curve" smooth="yes"/>
      <point x="452" y="483"/>
      <point x="489" y="361"/>
      <point x="489" y="248" type="curve" smooth="yes"/>
      <point x="489" y="120"/>
      <point x="441" y="-11"/>
      <point x="288" y="-11" type="curve" smooth="yes"/>
      <point x="240" y="-11"/>
      <point x="204" y="7"/>
      <point x="175" y="30" type="curve"/>
      <point x="175" y="-160" type="line"/>
    </contour>
    <contour>
      <point x="175" y="106" type="line"/>
      <point x="184" y="97"/>
      <point x="203" y="79"/>
      <point x="240" y="79" type="curve" smooth="yes"/>
      <point x="332" y="79"/>
      <point x="338" y="147"/>
      <point x="338" y="232" type="curve" smooth="yes"/>
      <point x="338" y="319"/>
      <point x="336" y="394"/>
      <point x="251" y="394" type="curve" smooth="yes"/>
      <point x="217" y="394"/>
      <point x="197" y="385"/>
      <point x="175" y="367" type="curve"/>
      <point x="175" y="334" type="line"/>
      <point x="175" y="171" type="line"/>
    </contour>
  </outline>
</glyph>
<glyph name="uni01A7" format="2">
  <advance width="611"/>
  <unicode hex="01A7"/>
  <outline>
    <contour>
      <point x="41" y="203" type="curve" smooth="yes"/>
      <point x="41" y="318.352"/>
      <point x="101.598" y="388.438"/>
      <point x="190" y="413" type="curve" smooth="yes"/>
      <point x="272" y="438" type="line" smooth="yes"/>
      <point x="341.833" y="457.587"/>
      <point x="394" y="477"/>
      <point x="394" y="522" type="curve" smooth="yes"/>
      <point x="394" y="551"/>
      <point x="378" y="596"/>
      <point x="290" y="596" type="curve" smooth="yes"/>
      <point x="189.638" y="596"/>
      <point x="117.761" y="529.761"/>
      <point x="99" y="511" type="curve"/>
      <point x="73" y="665" type="line"/>
      <point x="156" y="704"/>
      <point x="207.001" y="716.453"/>
      <point x="293" y="716" type="curve" smooth="yes"/>
      <point x="483" y="715"/>
      <point x="536" y="613"/>
      <point x="536" y="504" type="curve" smooth="yes"/>
      <point x="536" y="397.02"/>
      <point x="461.753" y="345.931"/>
      <point x="390" y="326" type="curve" smooth="yes"/>
      <point x="246" y="286" type="line" smooth="yes"/>
      <point x="202.398" y="273.888"/>
      <point x="181.887" y="233.245"/>
      <point x="183" y="189" type="curve" smooth="yes"/>
      <point x="183.855" y="155.011"/>
      <point x="198" y="104"/>
      <point x="289" y="104" type="curve" smooth="yes"/>
      <point x="413.476" y="104"/>
      <point x="493.965" y="172.022"/>
      <point x="523" y="198" type="curve"/>
      <point x="548" y="51" type="line"/>
      <point x="476" y="9"/>
      <point x="390" y="-21"/>
      <point x="289" y="-21" type="curve" smooth="yes"/>
      <point x="91" y="-21"/>
      <point x="41" y="90"/>
    </contour>
  </outline>
</glyph>
